<svg width="29" height="21" viewBox="0 0 29 21" fill="none" xmlns="http://www.w3.org/2000/svg">
<path d="M1.59061 0H12.8045C13.6823 0 14.3963 0.718245 14.3963 1.60122V2.94684H26.9556C28.0829 2.94684 29 3.86937 29 5.00361V14.4987C29 15.6323 28.0829 16.5546 26.9556 16.5546H24.992V20.5364C24.992 20.72 24.8844 20.886 24.7176 20.9604C24.6577 20.987 24.5944 21 24.5314 21C24.419 21 24.3077 20.9586 24.2214 20.8795L19.4889 16.5546H11.2535C10.1265 16.5546 9.20938 15.6323 9.20938 14.4987V9.98341H6.97479L3.63287 13.0372C3.54623 13.1163 3.43531 13.1577 3.32286 13.1577C3.25988 13.1577 3.19628 13.1447 3.13636 13.1182C2.96953 13.044 2.86199 12.8777 2.86199 12.6941V9.98341H1.59092C0.713732 9.98341 9.92022e-08 9.26486 9.92022e-08 8.38189V1.60122C-0.000307147 0.718245 0.713118 0 1.59061 0ZM10.1308 14.4984C10.1308 15.1208 10.6344 15.6271 11.2532 15.6271H19.6668C19.7814 15.6271 19.8917 15.67 19.9768 15.7476L24.0706 19.4887V16.0907C24.0706 15.8344 24.2767 15.6271 24.5314 15.6271H26.9559C27.575 15.6271 28.0786 15.1208 28.0786 14.4984V5.0033C28.0786 4.38055 27.575 3.8737 26.9559 3.8737H13.94L13.9354 3.87401L13.9308 3.8737H11.2532C10.6341 3.8737 10.1308 4.38055 10.1308 5.0033V14.4984ZM0.92143 8.38189C0.92143 8.75368 1.22161 9.05625 1.59061 9.05625H3.32256C3.57696 9.05625 3.78342 9.26362 3.78342 9.51983V11.6467L6.48657 9.17678C6.57137 9.09952 6.68198 9.05625 6.79658 9.05625H9.20938V5.00361C9.20938 3.86968 10.1265 2.94684 11.2535 2.94684H13.4746V1.60122C13.4746 1.22942 13.1738 0.927166 12.8045 0.927166H1.59061C1.22161 0.927166 0.92143 1.22942 0.92143 1.60122V8.38189Z" fill="white"/>
<path d="M19.1538 9.50857C18.261 9.25143 17.9735 8.97143 17.9735 8.55429C17.9735 8.07429 18.372 7.73714 19.0328 7.73714C19.7289 7.73714 19.9912 8.11429 20.0113 8.67429H20.8739C20.8487 7.90857 20.4351 7.20571 19.6179 6.97714V6H18.4426V6.96571C17.681 7.14857 17.0706 7.70857 17.0706 8.57143C17.0706 9.59429 17.8222 10.1086 18.9168 10.4057C19.9004 10.6686 20.0971 11.0629 20.0971 11.4743C20.0971 11.7771 19.9004 12.2686 19.0378 12.2686C18.2308 12.2686 17.913 11.8571 17.8676 11.3314H17C17.0504 12.3029 17.686 12.8514 18.4426 13.0286V14H19.6229V13.0457C20.3897 12.88 20.995 12.3829 21 11.4629C20.995 10.2057 20.0416 9.77143 19.1538 9.50857Z" fill="white"/>
</svg>
