<svg width="20" height="20" viewBox="0 0 20 20" fill="none" xmlns="http://www.w3.org/2000/svg">
<path d="M10.3604 6.63063H9.11711V11.6036L13.054 13.9658L13.6757 12.9463L10.3604 10.982V6.63063ZM14.3694 1.50018L18.1878 4.68702L17.1269 5.95927L13.306 2.77409L14.3694 1.50018ZM5.52248 1.50018L6.58504 2.77326L2.7658 5.95927L1.7049 4.68619L5.52248 1.50018ZM9.94594 3.31531C5.82666 3.31531 2.48648 6.65549 2.48648 10.7748C2.48648 14.894 5.82666 18.2342 9.94594 18.2342C14.0652 18.2342 17.4054 14.894 17.4054 10.7748C17.4054 6.65549 14.0652 3.31531 9.94594 3.31531ZM9.94594 16.5766C6.74666 16.5766 4.14414 13.974 4.14414 10.7748C4.14414 7.57549 6.74666 4.97297 9.94594 4.97297C13.1452 4.97297 15.7477 7.57549 15.7477 10.7748C15.7477 13.974 13.1452 16.5766 9.94594 16.5766Z" fill="white"/>
</svg>
