<svg  viewBox="0 0 336 142" fill="none" xmlns="http://www.w3.org/2000/svg">
<path d="M15.1 137.463C15.1 137.91 15.0133 138.323 14.84 138.703C14.66 139.077 14.41 139.383 14.09 139.623L13.2 138.883C13.7333 138.497 14 138.033 14 137.493C14 136.767 13.57 136.403 12.71 136.403L9.09 136.403L9.09 138.893L8 138.893L8 135.103L12.64 135.103C13.46 135.103 14.0767 135.303 14.49 135.703C14.8967 136.103 15.1 136.69 15.1 137.463ZM9.6 131.36C9.6 130.573 9.79 129.973 10.17 129.56C10.5433 129.14 11.11 128.93 11.87 128.93L15 128.93L15 130.11L14.35 130.11C14.5833 130.263 14.7633 130.483 14.89 130.77C15.01 131.05 15.07 131.39 15.07 131.79C15.07 132.19 15.0033 132.54 14.87 132.84C14.73 133.14 14.54 133.373 14.3 133.54C14.0533 133.7 13.7767 133.78 13.47 133.78C12.99 133.78 12.6067 133.603 12.32 133.25C12.0267 132.89 11.88 132.327 11.88 131.56L11.88 130.18L11.8 130.18C11.4267 130.18 11.14 130.293 10.94 130.52C10.74 130.74 10.64 131.07 10.64 131.51C10.64 131.81 10.6867 132.107 10.78 132.4C10.8733 132.687 11.0033 132.93 11.17 133.13L10.26 133.62C10.0467 133.34 9.88333 133.003 9.77 132.61C9.65667 132.217 9.6 131.8 9.6 131.36ZM14.16 131.53C14.16 131.217 14.09 130.94 13.95 130.7C13.8033 130.453 13.5967 130.28 13.33 130.18L12.71 130.18L12.71 131.47C12.71 132.19 12.9467 132.55 13.42 132.55C13.6467 132.55 13.8267 132.46 13.96 132.28C14.0933 132.1 14.16 131.85 14.16 131.53ZM9.6 124.296C9.6 123.622 9.79667 123.082 10.19 122.676C10.5833 122.269 11.1667 122.066 11.94 122.066L15 122.066L15 123.316L12.1 123.316C11.6333 123.316 11.2833 123.426 11.05 123.646C10.81 123.866 10.69 124.179 10.69 124.586C10.69 125.046 10.83 125.409 11.11 125.676C11.3833 125.942 11.78 126.076 12.3 126.076L15 126.076L15 127.326L9.66 127.326L9.66 126.136L10.35 126.136C10.1033 125.929 9.91667 125.669 9.79 125.356C9.66333 125.042 9.6 124.689 9.6 124.296Z" fill="#6C6C6C" fill-opacity="0.46"/>
<path d="M42.9323 137.253L45.0623 137.253L45.0623 133.873L46.1623 133.873L46.1623 137.253L48.8423 137.253L48.8423 138.553L41.8423 138.553L41.8423 133.443L42.9323 133.443L42.9323 137.253ZM46.2023 127.433C46.289 127.433 46.4123 127.439 46.5723 127.453L46.5723 131.643C46.9656 131.569 47.279 131.379 47.5123 131.073C47.739 130.759 47.8523 130.373 47.8523 129.913C47.8523 129.326 47.659 128.843 47.2723 128.463L48.0423 127.793C48.329 128.033 48.5456 128.336 48.6923 128.703C48.839 129.069 48.9123 129.483 48.9123 129.943C48.9123 130.529 48.7956 131.046 48.5623 131.493C48.329 131.939 48.0056 132.286 47.5923 132.533C47.1723 132.773 46.699 132.893 46.1723 132.893C45.6523 132.893 45.1856 132.776 44.7723 132.543C44.3523 132.303 44.0256 131.973 43.7923 131.553C43.559 131.133 43.4423 130.659 43.4423 130.133C43.4423 129.613 43.559 129.149 43.7923 128.743C44.019 128.329 44.3423 128.009 44.7623 127.783C45.1756 127.549 45.6556 127.433 46.2023 127.433ZM44.4423 130.133C44.4423 130.533 44.5623 130.873 44.8023 131.153C45.0356 131.426 45.349 131.593 45.7423 131.653L45.7423 128.623C45.3556 128.676 45.0423 128.839 44.8023 129.113C44.5623 129.386 44.4423 129.726 44.4423 130.133ZM43.5023 121.33L48.8423 123.62L48.8423 124.91L43.5023 127.2L43.5023 125.9L47.4623 124.24L43.5023 122.53L43.5023 121.33Z" fill="#6C6C6C" fill-opacity="0.46"/>
<path d="M86.2468 133.905L81.6068 133.915L85.4468 136.215L85.4468 136.795L81.6668 139.095L86.2468 139.095L86.2468 140.335L79.2468 140.335L79.2468 139.265L83.8868 136.485L79.2468 133.755L79.2468 132.685L86.2468 132.675L86.2468 133.905ZM80.8468 128.864C80.8468 128.077 81.0368 127.477 81.4168 127.064C81.7902 126.644 82.3568 126.434 83.1168 126.434L86.2468 126.434L86.2468 127.614L85.5968 127.614C85.8302 127.767 86.0102 127.987 86.1368 128.274C86.2568 128.554 86.3168 128.894 86.3168 129.294C86.3168 129.694 86.2502 130.044 86.1168 130.344C85.9768 130.644 85.7868 130.877 85.5468 131.044C85.3002 131.204 85.0235 131.284 84.7168 131.284C84.2368 131.284 83.8535 131.107 83.5668 130.754C83.2735 130.394 83.1268 129.83 83.1268 129.064L83.1268 127.684L83.0468 127.684C82.6735 127.684 82.3868 127.797 82.1868 128.024C81.9868 128.244 81.8868 128.574 81.8868 129.014C81.8868 129.314 81.9335 129.61 82.0268 129.904C82.1202 130.19 82.2502 130.434 82.4168 130.634L81.5068 131.124C81.2935 130.844 81.1302 130.507 81.0168 130.114C80.9035 129.72 80.8468 129.304 80.8468 128.864ZM85.4068 129.034C85.4068 128.72 85.3368 128.444 85.1968 128.204C85.0502 127.957 84.8435 127.784 84.5768 127.684L83.9568 127.684L83.9568 128.974C83.9568 129.694 84.1935 130.054 84.6668 130.054C84.8935 130.054 85.0735 129.964 85.2068 129.784C85.3402 129.604 85.4068 129.354 85.4068 129.034ZM81.6868 123.64C81.1268 123.28 80.8468 122.646 80.8468 121.74L82.0368 121.74C82.0168 121.846 82.0068 121.943 82.0068 122.03C82.0068 122.516 82.1502 122.896 82.4368 123.17C82.7168 123.443 83.1235 123.58 83.6568 123.58L86.2468 123.58L86.2468 124.83L80.9068 124.83L80.9068 123.64L81.6868 123.64Z" fill="#6C6C6C" fill-opacity="0.46"/>
<path d="M118.469 134.013L118.469 137.513L120.089 138.203L120.089 139.543L113.089 136.393L113.089 135.113L120.089 131.953L120.089 133.313L118.469 134.013ZM117.449 134.443L114.389 135.763L117.449 137.073L117.449 134.443ZM114.689 128.223C114.689 127.703 114.802 127.24 115.029 126.833C115.256 126.42 115.576 126.097 115.989 125.863C116.402 125.63 116.879 125.513 117.419 125.513C117.959 125.513 118.439 125.63 118.859 125.863C119.272 126.097 119.592 126.42 119.819 126.833C120.046 127.24 120.159 127.703 120.159 128.223C120.159 128.59 120.096 128.927 119.969 129.233C119.842 129.533 119.652 129.787 119.399 129.993L120.089 129.993L120.089 131.183L112.669 131.183L112.669 129.933L115.399 129.933C115.166 129.72 114.989 129.47 114.869 129.183C114.749 128.89 114.689 128.57 114.689 128.223ZM119.089 128.363C119.089 127.903 118.936 127.527 118.629 127.233C118.322 126.933 117.919 126.783 117.419 126.783C116.919 126.783 116.516 126.933 116.209 127.233C115.902 127.527 115.749 127.903 115.749 128.363C115.749 128.663 115.819 128.933 115.959 129.173C116.092 129.413 116.286 129.603 116.539 129.743C116.792 129.883 117.086 129.953 117.419 129.953C117.752 129.953 118.046 129.883 118.299 129.743C118.552 129.603 118.749 129.413 118.889 129.173C119.022 128.933 119.089 128.663 119.089 128.363ZM115.529 123.138C114.969 122.778 114.689 122.144 114.689 121.238L115.879 121.238C115.859 121.344 115.849 121.441 115.849 121.528C115.849 122.014 115.992 122.394 116.279 122.668C116.559 122.941 116.966 123.078 117.499 123.078L120.089 123.078L120.089 124.328L114.749 124.328L114.749 123.138L115.529 123.138Z" fill="#6C6C6C" fill-opacity="0.46"/>
<path d="M153.931 132.123L149.291 132.133L153.131 134.433L153.131 135.013L149.351 137.313L153.931 137.313L153.931 138.553L146.931 138.553L146.931 137.483L151.571 134.703L146.931 131.973L146.931 130.903L153.931 130.893L153.931 132.123ZM148.531 127.083C148.531 126.296 148.721 125.696 149.101 125.283C149.475 124.863 150.041 124.653 150.801 124.653L153.931 124.653L153.931 125.833L153.281 125.833C153.515 125.986 153.695 126.206 153.821 126.493C153.941 126.773 154.001 127.113 154.001 127.513C154.001 127.913 153.935 128.263 153.801 128.563C153.661 128.863 153.471 129.096 153.231 129.263C152.985 129.423 152.708 129.503 152.401 129.503C151.921 129.503 151.538 129.326 151.251 128.973C150.958 128.613 150.811 128.049 150.811 127.283L150.811 125.903L150.731 125.903C150.358 125.903 150.071 126.016 149.871 126.243C149.671 126.463 149.571 126.793 149.571 127.233C149.571 127.533 149.618 127.829 149.711 128.123C149.805 128.409 149.935 128.653 150.101 128.853L149.191 129.343C148.978 129.063 148.815 128.726 148.701 128.333C148.588 127.939 148.531 127.523 148.531 127.083ZM153.091 127.253C153.091 126.939 153.021 126.663 152.881 126.423C152.735 126.176 152.528 126.003 152.261 125.903L151.641 125.903L151.641 127.193C151.641 127.913 151.878 128.273 152.351 128.273C152.578 128.273 152.758 128.183 152.891 128.003C153.025 127.823 153.091 127.573 153.091 127.253ZM148.591 123.048L148.591 121.798L153.931 121.798L153.931 123.048L148.591 123.048ZM147.711 122.418C147.711 122.645 147.641 122.835 147.501 122.988C147.355 123.142 147.175 123.218 146.961 123.218C146.748 123.218 146.571 123.142 146.431 122.988C146.285 122.835 146.211 122.645 146.211 122.418C146.211 122.192 146.281 122.002 146.421 121.848C146.555 121.695 146.725 121.618 146.931 121.618C147.151 121.618 147.338 121.695 147.491 121.848C147.638 121.995 147.711 122.185 147.711 122.418Z" fill="#6C6C6C" fill-opacity="0.46"/>
<path d="M187.874 137.463C187.874 137.91 187.787 138.323 187.614 138.703C187.434 139.077 187.184 139.383 186.864 139.623L185.974 138.883C186.507 138.497 186.774 138.033 186.774 137.493C186.774 136.767 186.344 136.403 185.484 136.403L181.864 136.403L181.864 138.893L180.774 138.893L180.774 135.103L185.414 135.103C186.234 135.103 186.85 135.303 187.264 135.703C187.67 136.103 187.874 136.69 187.874 137.463ZM182.434 128.23L187.774 128.23L187.774 129.42L187.094 129.42C187.334 129.62 187.52 129.87 187.654 130.17C187.78 130.47 187.844 130.793 187.844 131.14C187.844 131.853 187.647 132.417 187.254 132.83C186.854 133.237 186.264 133.44 185.484 133.44L182.434 133.44L182.434 132.19L185.314 132.19C185.794 132.19 186.154 132.083 186.394 131.87C186.627 131.65 186.744 131.34 186.744 130.94C186.744 130.493 186.607 130.14 186.334 129.88C186.054 129.613 185.654 129.48 185.134 129.48L182.434 129.48L182.434 128.23ZM182.374 123.563C182.374 122.89 182.57 122.35 182.964 121.943C183.357 121.537 183.94 121.333 184.714 121.333L187.774 121.333L187.774 122.583L184.874 122.583C184.407 122.583 184.057 122.693 183.824 122.913C183.584 123.133 183.464 123.447 183.464 123.853C183.464 124.313 183.604 124.677 183.884 124.943C184.157 125.21 184.554 125.343 185.074 125.343L187.774 125.343L187.774 126.593L182.434 126.593L182.434 125.403L183.124 125.403C182.877 125.197 182.69 124.937 182.564 124.623C182.437 124.31 182.374 123.957 182.374 123.563Z" fill="#6C6C6C" fill-opacity="0.46"/>
<path d="M219.996 135.795L219.996 139.295L221.616 139.985L221.616 141.325L214.616 138.175L214.616 136.895L221.616 133.735L221.616 135.095L219.996 135.795ZM218.976 136.225L215.916 137.545L218.976 138.855L218.976 136.225ZM216.276 127.713L220.806 127.713C222.686 127.713 223.626 128.673 223.626 130.593C223.626 131.107 223.559 131.593 223.426 132.053C223.299 132.513 223.113 132.893 222.866 133.193L221.926 132.633C222.119 132.4 222.273 132.107 222.386 131.753C222.506 131.393 222.566 131.03 222.566 130.663C222.566 130.077 222.433 129.647 222.166 129.373C221.899 129.1 221.493 128.963 220.946 128.963L220.666 128.963C220.899 129.177 221.076 129.437 221.196 129.743C221.316 130.05 221.376 130.387 221.376 130.753C221.376 131.26 221.269 131.72 221.056 132.133C220.836 132.54 220.529 132.863 220.136 133.103C219.743 133.337 219.293 133.453 218.786 133.453C218.279 133.453 217.833 133.337 217.446 133.103C217.053 132.863 216.749 132.54 216.536 132.133C216.323 131.72 216.216 131.26 216.216 130.753C216.216 130.367 216.279 130.017 216.406 129.703C216.533 129.383 216.726 129.117 216.986 128.903L216.276 128.903L216.276 127.713ZM220.316 130.563C220.316 130.09 220.176 129.703 219.896 129.403C219.609 129.097 219.239 128.943 218.786 128.943C218.339 128.943 217.976 129.097 217.696 129.403C217.416 129.703 217.276 130.09 217.276 130.563C217.276 131.043 217.416 131.437 217.696 131.743C217.976 132.043 218.339 132.193 218.786 132.193C219.239 132.193 219.609 132.043 219.896 131.743C220.176 131.437 220.316 131.043 220.316 130.563ZM221.686 123.67C221.686 124.21 221.569 124.697 221.336 125.13C221.103 125.563 220.779 125.903 220.366 126.15C219.946 126.39 219.473 126.51 218.946 126.51C218.419 126.51 217.949 126.39 217.536 126.15C217.123 125.903 216.799 125.563 216.566 125.13C216.333 124.697 216.216 124.21 216.216 123.67C216.216 123.123 216.333 122.633 216.566 122.2C216.799 121.767 217.123 121.43 217.536 121.19C217.949 120.943 218.419 120.82 218.946 120.82C219.473 120.82 219.946 120.943 220.366 121.19C220.779 121.43 221.103 121.767 221.336 122.2C221.569 122.633 221.686 123.123 221.686 123.67ZM220.616 123.67C220.616 123.21 220.463 122.83 220.156 122.53C219.849 122.23 219.446 122.08 218.946 122.08C218.446 122.08 218.043 122.23 217.736 122.53C217.429 122.83 217.276 123.21 217.276 123.67C217.276 124.13 217.429 124.51 217.736 124.81C218.043 125.103 218.446 125.25 218.946 125.25C219.446 125.25 219.849 125.103 220.156 124.81C220.463 124.51 220.616 124.13 220.616 123.67Z" fill="#6C6C6C" fill-opacity="0.46"/>
<path d="M255.558 137.065C255.558 137.778 255.405 138.421 255.098 138.995C254.785 139.568 254.355 140.018 253.808 140.345C253.255 140.671 252.638 140.835 251.958 140.835C251.278 140.835 250.665 140.671 250.118 140.345C249.565 140.018 249.135 139.568 248.828 138.995C248.515 138.421 248.358 137.778 248.358 137.065C248.358 136.351 248.515 135.708 248.828 135.135C249.135 134.561 249.561 134.111 250.108 133.785C250.655 133.458 251.271 133.295 251.958 133.295C252.645 133.295 253.261 133.458 253.808 133.785C254.355 134.111 254.785 134.561 255.098 135.135C255.405 135.708 255.558 136.351 255.558 137.065ZM254.418 137.065C254.418 136.598 254.315 136.178 254.108 135.805C253.895 135.431 253.601 135.138 253.228 134.925C252.848 134.711 252.425 134.605 251.958 134.605C251.491 134.605 251.071 134.711 250.698 134.925C250.318 135.138 250.025 135.431 249.818 135.805C249.605 136.178 249.498 136.598 249.498 137.065C249.498 137.531 249.605 137.951 249.818 138.325C250.025 138.698 250.318 138.991 250.698 139.205C251.071 139.418 251.491 139.525 251.958 139.525C252.425 139.525 252.848 139.418 253.228 139.205C253.601 138.991 253.895 138.698 254.108 138.325C254.315 137.951 254.418 137.531 254.418 137.065ZM250.118 126.867L255.458 126.867L255.458 128.057L254.778 128.057C255.018 128.257 255.205 128.507 255.338 128.807C255.465 129.107 255.528 129.43 255.528 129.777C255.528 130.49 255.331 131.053 254.938 131.467C254.538 131.873 253.948 132.077 253.168 132.077L250.118 132.077L250.118 130.827L252.998 130.827C253.478 130.827 253.838 130.72 254.078 130.507C254.311 130.287 254.428 129.977 254.428 129.577C254.428 129.13 254.291 128.777 254.018 128.517C253.738 128.25 253.338 128.117 252.818 128.117L250.118 128.117L250.118 126.867ZM255.168 122.02C255.288 122.167 255.378 122.347 255.438 122.56C255.498 122.767 255.528 122.987 255.528 123.22C255.528 123.807 255.375 124.26 255.068 124.58C254.761 124.9 254.315 125.06 253.728 125.06L251.158 125.06L251.158 125.94L250.158 125.94L250.158 125.06L248.938 125.06L248.938 123.81L250.158 123.81L250.158 122.38L251.158 122.38L251.158 123.81L253.698 123.81C253.958 123.81 254.158 123.747 254.298 123.62C254.431 123.493 254.498 123.31 254.498 123.07C254.498 122.79 254.425 122.557 254.278 122.37L255.168 122.02Z" fill="#6C6C6C" fill-opacity="0.46"/>
<path d="M316.143 138.553L316.143 135.493C316.143 134.747 316.289 134.083 316.583 133.503C316.869 132.923 317.279 132.473 317.813 132.153C318.339 131.833 318.949 131.673 319.643 131.673C320.336 131.673 320.949 131.833 321.483 132.153C322.009 132.473 322.419 132.923 322.713 133.503C322.999 134.083 323.143 134.747 323.143 135.493L323.143 138.553L316.143 138.553ZM322.043 135.553C322.043 135.04 321.946 134.59 321.753 134.203C321.553 133.81 321.273 133.51 320.913 133.303C320.546 133.09 320.123 132.983 319.643 132.983C319.163 132.983 318.743 133.09 318.383 133.303C318.016 133.51 317.736 133.81 317.543 134.203C317.343 134.59 317.243 135.04 317.243 135.553L317.243 137.253L322.043 137.253L322.043 135.553ZM320.503 125.392C320.589 125.392 320.713 125.398 320.873 125.412L320.873 129.602C321.266 129.528 321.579 129.338 321.813 129.032C322.039 128.718 322.153 128.332 322.153 127.872C322.153 127.285 321.959 126.802 321.573 126.422L322.343 125.752C322.629 125.992 322.846 126.295 322.993 126.662C323.139 127.028 323.213 127.442 323.213 127.902C323.213 128.488 323.096 129.005 322.863 129.452C322.629 129.898 322.306 130.245 321.893 130.492C321.473 130.732 320.999 130.852 320.473 130.852C319.953 130.852 319.486 130.735 319.073 130.502C318.653 130.262 318.326 129.932 318.093 129.512C317.859 129.092 317.743 128.618 317.743 128.092C317.743 127.572 317.859 127.108 318.093 126.702C318.319 126.288 318.643 125.968 319.063 125.742C319.476 125.508 319.956 125.392 320.503 125.392ZM318.743 128.092C318.743 128.492 318.863 128.832 319.103 129.112C319.336 129.385 319.649 129.552 320.043 129.612L320.043 126.582C319.656 126.635 319.343 126.798 319.103 127.072C318.863 127.345 318.743 127.685 318.743 128.092ZM322.143 120.07L323.143 120.07L323.143 124.68L322.353 124.68L318.803 121.75L318.803 124.62L317.803 124.62L317.803 120.15L318.593 120.15L322.143 123.09L322.143 120.07Z" fill="#6C6C6C" fill-opacity="0.46"/>
<path d="M282.301 132.333L289.301 132.333L289.301 133.403L284.561 137.263L289.301 137.263L289.301 138.553L282.301 138.553L282.301 137.483L287.041 133.623L282.301 133.623L282.301 132.333ZM289.371 128.178C289.371 128.718 289.254 129.204 289.021 129.638C288.787 130.071 288.464 130.411 288.051 130.658C287.631 130.898 287.157 131.018 286.631 131.018C286.104 131.018 285.634 130.898 285.221 130.658C284.807 130.411 284.484 130.071 284.251 129.638C284.017 129.204 283.901 128.718 283.901 128.178C283.901 127.631 284.017 127.141 284.251 126.708C284.484 126.274 284.807 125.938 285.221 125.698C285.634 125.451 286.104 125.328 286.631 125.328C287.157 125.328 287.631 125.451 288.051 125.698C288.464 125.938 288.787 126.274 289.021 126.708C289.254 127.141 289.371 127.631 289.371 128.178ZM288.301 128.178C288.301 127.718 288.147 127.338 287.841 127.038C287.534 126.738 287.131 126.588 286.631 126.588C286.131 126.588 285.727 126.738 285.421 127.038C285.114 127.338 284.961 127.718 284.961 128.178C284.961 128.638 285.114 129.018 285.421 129.318C285.727 129.611 286.131 129.758 286.631 129.758C287.131 129.758 287.534 129.611 287.841 129.318C288.147 129.018 288.301 128.638 288.301 128.178ZM283.961 119.279L289.301 121.569L289.301 122.859L283.961 125.149L283.961 123.849L287.921 122.189L283.961 120.479L283.961 119.279Z" fill="#6C6C6C" fill-opacity="0.46"/>
<rect x="9.8692" y="31.7983" width="6" height="71.2468" fill="#81269D"/>
<rect x="43.2664" width="6" height="102.848" fill="#9139CA"/>
<rect x="80.7439" y="85.2334" width="6" height="17.8117" fill="#81269D"/>
<line x1="-4.37114e-08" y1="103.5" x2="336" y2="103.5" stroke="#555555" stroke-opacity="0.62"/>
</svg>
