<svg width="19" height="20" viewBox="0 0 19 20" fill="none" xmlns="http://www.w3.org/2000/svg">
<path d="M9.5 1C4.256 1 0 5.256 0 10.5C0 15.744 4.256 20 9.5 20C14.744 20 19 15.744 19 10.5C19 5.256 14.744 1 9.5 1ZM9.5 18.1C5.3105 18.1 1.9 14.6895 1.9 10.5C1.9 6.3105 5.3105 2.9 9.5 2.9C13.6895 2.9 17.1 6.3105 17.1 10.5C17.1 14.6895 13.6895 18.1 9.5 18.1ZM9.7945 9.683C8.113 9.2555 7.5715 8.79 7.5715 8.0965C7.5715 7.2985 8.322 6.738 9.5665 6.738C10.8775 6.738 11.3715 7.365 11.4095 8.296H13.034C12.9865 7.023 12.2075 5.8545 10.6685 5.4745V3.85H8.455V5.4555C7.0205 5.7595 5.871 6.6905 5.871 8.125C5.871 9.8255 7.2865 10.6805 9.348 11.1745C11.2005 11.6115 11.571 12.267 11.571 12.951C11.571 13.4545 11.2005 14.2715 9.576 14.2715C8.056 14.2715 7.4575 13.5875 7.372 12.7135H5.738C5.833 14.3285 7.03 15.2405 8.455 15.535V17.15H10.678V15.5635C12.122 15.288 13.262 14.4615 13.2715 12.932C13.262 10.842 11.4665 10.12 9.7945 9.683Z" fill="#ABABAB"/>
<path d="M14.8833 1.26336L14.8833 5.06653L15.5167 5.06653L15.5167 1.26336L16.4667 1.26336L15.2 -0.000138338L13.9333 1.26336L14.8833 1.26336Z" fill="#ABABAB"/>
</svg>
