<svg width="294" height="143" viewBox="0 0 294 143" fill="none" xmlns="http://www.w3.org/2000/svg">
<path d="M212.903 44.5547C212.932 46.8328 211.274 48.6248 209.29 48.6506C207.306 48.6764 205.601 46.9281 205.572 44.6501C205.542 42.372 207.2 40.58 209.184 40.5542C211.168 40.5284 212.873 42.2767 212.903 44.5547Z" stroke="#ABABAB"/>
<path d="M209.213 42.7831L209.261 46.4217" stroke="#ABABAB"/>
<line x1="207.569" y1="44.4879" x2="210.902" y2="44.4446" stroke="#ABABAB"/>
<path d="M222.474 47.1725L218.754 47.2209L218.007 48.9807L216.977 48.9941L220.056 41.9535L221.045 41.9406L224.316 48.8987L223.266 48.9123L222.474 47.1725ZM222.113 46.3771L220.559 42.967L219.093 46.4164L222.113 46.3771ZM230.075 41.4032L230.171 48.8225L229.251 48.8345L229.24 47.9946C229.031 48.2907 228.764 48.5175 228.439 48.6751C228.114 48.8326 227.755 48.914 227.362 48.9191C226.849 48.9258 226.387 48.8184 225.978 48.5971C225.568 48.3757 225.244 48.0632 225.006 47.6596C224.773 47.2493 224.654 46.7774 224.647 46.2442C224.64 45.7109 224.747 45.2394 224.969 44.8299C225.197 44.4202 225.513 44.0994 225.916 43.8674C226.32 43.6355 226.778 43.5162 227.292 43.5095C227.672 43.5046 228.023 43.5734 228.345 43.7159C228.666 43.8517 228.936 44.0582 229.153 44.3354L229.115 41.4157L230.075 41.4032ZM227.431 48.0781C227.764 48.0738 228.067 47.9932 228.338 47.8363C228.609 47.6728 228.82 47.45 228.969 47.168C229.119 46.8794 229.191 46.5518 229.187 46.1851C229.182 45.8185 229.101 45.4962 228.944 45.2182C228.787 44.9335 228.571 44.7163 228.296 44.5666C228.02 44.4168 227.716 44.3441 227.383 44.3484C227.043 44.3528 226.737 44.4335 226.466 44.5904C226.201 44.7472 225.991 44.9699 225.834 45.2586C225.685 45.5406 225.612 45.8649 225.617 46.2315C225.622 46.5982 225.703 46.9238 225.86 47.2085C226.023 47.4864 226.24 47.7036 226.508 47.8601C226.784 48.0099 227.091 48.0825 227.431 48.0781ZM231.918 43.4994L232.878 43.4869L232.947 48.7864L231.987 48.7989L231.918 43.4994ZM232.385 42.4732C232.198 42.4756 232.041 42.4177 231.913 42.2993C231.791 42.1809 231.729 42.035 231.727 41.8617C231.725 41.6884 231.783 41.541 231.901 41.4194C232.026 41.2911 232.182 41.2257 232.369 41.2233C232.555 41.2209 232.71 41.2789 232.831 41.3973C232.959 41.509 233.024 41.6515 233.027 41.8248C233.029 42.0048 232.968 42.1589 232.843 42.2872C232.724 42.4088 232.572 42.4708 232.385 42.4732ZM237.091 48.7926C236.551 48.7996 236.066 48.6892 235.636 48.4614C235.213 48.2336 234.879 47.9179 234.634 47.5144C234.388 47.1042 234.262 46.6392 234.256 46.1192C234.249 45.5992 234.363 45.1344 234.598 44.7246C234.832 44.3082 235.158 43.9839 235.575 43.7518C235.999 43.513 236.48 43.39 237.02 43.383C237.5 43.3768 237.928 43.4679 238.304 43.6563C238.686 43.8447 238.983 44.1209 239.195 44.4848L238.471 44.9643C238.301 44.7131 238.092 44.5258 237.844 44.4024C237.595 44.2789 237.321 44.2192 237.021 44.2231C236.675 44.2276 236.362 44.3083 236.084 44.4653C235.813 44.6221 235.599 44.8449 235.443 45.1337C235.293 45.4156 235.221 45.7399 235.226 46.1066C235.23 46.4799 235.311 46.8089 235.468 47.0935C235.632 47.3714 235.852 47.5852 236.127 47.735C236.409 47.8847 236.723 47.9573 237.07 47.9528C237.37 47.9489 237.642 47.882 237.887 47.7521C238.132 47.6222 238.336 47.4296 238.5 47.1741L239.236 47.6246C239.034 47.9939 238.744 48.281 238.367 48.4859C237.996 48.6841 237.571 48.7863 237.091 48.7926ZM240.424 43.3888L241.383 43.3763L241.452 48.6758L240.492 48.6883L240.424 43.3888ZM240.89 42.3626C240.704 42.365 240.546 42.3071 240.418 42.1887C240.296 42.0703 240.234 41.9244 240.232 41.7511C240.23 41.5778 240.288 41.4304 240.406 41.3088C240.532 41.1805 240.687 41.1151 240.874 41.1127C241.061 41.1103 241.215 41.1683 241.336 41.2867C241.464 41.3984 241.53 41.5409 241.532 41.7142C241.534 41.8942 241.473 42.0483 241.348 42.1766C241.229 42.2982 241.077 42.3602 240.89 42.3626ZM245.556 48.6825C245.029 48.6893 244.554 48.5788 244.131 48.351C243.708 48.1231 243.374 47.8074 243.129 47.4039C242.89 46.9937 242.768 46.5285 242.761 46.0086C242.754 45.4886 242.865 45.0238 243.093 44.6142C243.327 44.1977 243.653 43.8735 244.07 43.6414C244.487 43.4026 244.959 43.2798 245.485 43.2729C246.012 43.2661 246.484 43.3766 246.9 43.6046C247.323 43.8257 247.654 44.1415 247.892 44.5517C248.138 44.9552 248.264 45.417 248.27 45.9369C248.277 46.4569 248.163 46.9251 247.929 47.3415C247.701 47.7512 247.378 48.0754 246.961 48.3142C246.551 48.5528 246.082 48.6756 245.556 48.6825ZM245.545 47.8425C245.885 47.8381 246.187 47.7575 246.452 47.6007C246.723 47.4372 246.933 47.2144 247.083 46.9325C247.233 46.6438 247.305 46.3162 247.3 45.9495C247.296 45.5829 247.215 45.2606 247.058 44.9826C246.901 44.698 246.685 44.4808 246.409 44.331C246.141 44.1811 245.836 44.1084 245.496 44.1129C245.156 44.1173 244.851 44.1979 244.579 44.3548C244.315 44.5116 244.104 44.7343 243.948 45.0231C243.798 45.305 243.726 45.6293 243.731 45.996C243.735 46.3626 243.816 46.6882 243.973 46.9729C244.137 47.2508 244.353 47.468 244.622 47.6245C244.897 47.7743 245.205 47.847 245.545 47.8425ZM252.393 43.1831C253.066 43.1743 253.602 43.3641 254 43.7522C254.405 44.1337 254.612 44.701 254.622 45.4543L254.662 48.504L253.702 48.5165L253.664 45.5768C253.657 45.0635 253.529 44.6784 253.279 44.4217C253.029 44.1649 252.674 44.0395 252.214 44.0455C251.694 44.0523 251.286 44.2109 250.99 44.5214C250.694 44.8253 250.549 45.2606 250.557 45.8272L250.592 48.557L249.632 48.5694L249.563 43.2699L250.483 43.2579L250.494 44.0579C250.683 43.782 250.941 43.5687 251.265 43.4178C251.597 43.2668 251.973 43.1886 252.393 43.1831ZM258.299 43.1063C259.032 43.0967 259.594 43.2695 259.986 43.6244C260.384 43.9792 260.587 44.5133 260.596 45.2266L260.638 48.4263L259.728 48.4381L259.719 47.7382C259.562 47.9869 259.335 48.1799 259.036 48.3171C258.745 48.4476 258.396 48.5155 257.989 48.5208C257.396 48.5285 256.917 48.3914 256.554 48.1094C256.197 47.8274 256.015 47.453 256.009 46.9864C256.003 46.5198 256.168 46.1442 256.504 45.8599C256.841 45.5688 257.379 45.4184 258.119 45.4088L259.638 45.3891L259.636 45.1991C259.631 44.7858 259.506 44.4707 259.264 44.2538C259.021 44.037 258.666 43.9316 258.199 43.9376C257.886 43.9417 257.58 43.999 257.282 44.1096C256.983 44.2135 256.731 44.3534 256.527 44.5294L256.118 43.8147C256.388 43.5912 256.713 43.4203 257.091 43.302C257.469 43.1771 257.872 43.1118 258.299 43.1063ZM258.139 47.7788C258.506 47.774 258.822 47.6899 259.086 47.5264C259.351 47.3563 259.541 47.1205 259.657 46.8189L259.647 46.079L258.168 46.0982C257.354 46.1088 256.951 46.3874 256.958 46.934C256.962 47.2007 257.068 47.4093 257.276 47.56C257.485 47.7106 257.773 47.7835 258.139 47.7788ZM263.277 43.9816C263.44 43.6728 263.683 43.4363 264.008 43.2721C264.332 43.1078 264.728 43.0227 265.195 43.0166L265.207 43.9465C265.153 43.9405 265.08 43.9382 264.987 43.9394C264.467 43.9461 264.059 44.1081 263.763 44.4253C263.474 44.7358 263.333 45.1777 263.34 45.7509L263.374 48.3907L262.414 48.4032L262.346 43.1037L263.265 43.0917L263.277 43.9816ZM275.761 42.8792C276.427 42.8705 276.957 43.057 277.348 43.4386C277.747 43.8201 277.951 44.3908 277.961 45.1508L278 48.2005L277.04 48.213L277.002 45.2732C276.995 44.76 276.87 44.3749 276.627 44.118C276.39 43.8611 276.052 43.7355 275.612 43.7412C275.125 43.7475 274.741 43.9059 274.458 44.2162C274.175 44.5199 274.038 44.9551 274.045 45.5217L274.081 48.2515L273.121 48.264L273.082 45.3242C273.076 44.8109 272.951 44.4259 272.707 44.169C272.471 43.9121 272.132 43.7864 271.692 43.7922C271.206 43.7985 270.821 43.9568 270.538 44.2672C270.256 44.5709 270.118 45.0061 270.125 45.5727L270.161 48.3025L269.201 48.315L269.132 43.0154L270.052 43.0034L270.062 43.7934C270.252 43.5175 270.503 43.3076 270.814 43.1635C271.126 43.0128 271.481 42.9348 271.881 42.9296C272.294 42.9243 272.662 43.0028 272.984 43.1653C273.306 43.3278 273.556 43.5679 273.734 43.8856C273.93 43.5764 274.203 43.3328 274.554 43.1549C274.912 42.9769 275.314 42.885 275.761 42.8792ZM281.627 42.8029C282.36 42.7934 282.922 42.9661 283.314 43.321C283.712 43.6759 283.915 44.2099 283.925 44.9232L283.966 48.1229L283.056 48.1348L283.047 47.4348C282.89 47.6835 282.663 47.8765 282.365 48.0137C282.073 48.1442 281.724 48.2121 281.317 48.2174C280.724 48.2251 280.245 48.088 279.882 47.806C279.525 47.524 279.343 47.1496 279.337 46.683C279.331 46.2164 279.496 45.8409 279.832 45.5565C280.169 45.2654 280.707 45.1151 281.447 45.1054L282.967 45.0857L282.964 44.8957C282.959 44.4824 282.835 44.1673 282.592 43.9504C282.349 43.7336 281.994 43.6282 281.528 43.6343C281.214 43.6383 280.908 43.6957 280.61 43.8062C280.311 43.9101 280.06 44.0501 279.855 44.2261L279.446 43.5113C279.716 43.2878 280.041 43.1169 280.419 42.9986C280.798 42.8737 281.2 42.8084 281.627 42.8029ZM281.467 47.4754C281.834 47.4706 282.15 47.3865 282.414 47.223C282.679 47.0529 282.869 46.8171 282.985 46.5155L282.976 45.7756L281.496 45.7949C280.682 45.8054 280.279 46.084 280.286 46.6307C280.29 46.8973 280.396 47.1059 280.605 47.2566C280.813 47.4072 281.101 47.4801 281.467 47.4754ZM285.674 42.8003L286.634 42.7878L286.702 48.0873L285.743 48.0998L285.674 42.8003ZM286.14 41.7741C285.954 41.7765 285.796 41.7186 285.668 41.6002C285.546 41.4818 285.485 41.3359 285.482 41.1626C285.48 40.9893 285.538 40.8419 285.657 40.7203C285.782 40.592 285.937 40.5267 286.124 40.5242C286.311 40.5218 286.465 40.5798 286.586 40.6982C286.714 40.8099 286.78 40.9524 286.782 41.1257C286.784 41.3057 286.723 41.4598 286.598 41.5882C286.48 41.7097 286.327 41.7717 286.14 41.7741ZM290.056 48.1037C289.623 48.1094 289.205 48.0581 288.804 47.95C288.402 47.8352 288.087 47.6893 287.858 47.5123L288.248 46.7471C288.484 46.9107 288.769 47.0404 289.103 47.136C289.438 47.2317 289.775 47.2773 290.115 47.2729C290.955 47.262 291.372 47.0165 291.366 46.5366C291.364 46.3766 291.305 46.2507 291.191 46.1588C291.076 46.067 290.932 46.0022 290.758 45.9644C290.591 45.9199 290.35 45.8731 290.036 45.8238C289.609 45.7627 289.258 45.6906 288.983 45.6075C288.716 45.5243 288.484 45.3806 288.288 45.1765C288.092 44.9723 287.991 44.6836 287.986 44.3103C287.98 43.8304 288.175 43.4445 288.571 43.1526C288.968 42.8541 289.502 42.7005 290.176 42.6917C290.529 42.6871 290.883 42.7259 291.237 42.8079C291.592 42.89 291.883 43.0029 292.112 43.1466L291.712 43.9118C291.275 43.6375 290.763 43.5042 290.176 43.5118C289.77 43.5171 289.46 43.5878 289.249 43.7239C289.037 43.86 288.933 44.038 288.936 44.258C288.938 44.4313 289 44.5672 289.121 44.6656C289.242 44.764 289.39 44.8355 289.564 44.8799C289.745 44.9242 289.995 44.9743 290.316 45.0301C290.744 45.0979 291.088 45.1734 291.349 45.2567C291.617 45.3332 291.845 45.4702 292.034 45.6678C292.224 45.8654 292.321 46.1441 292.325 46.5041C292.332 46.984 292.13 47.37 291.72 47.6621C291.317 47.9473 290.763 48.0945 290.056 48.1037Z" fill="#555555" fill-opacity="0.75"/>
<line x1="3.83936" y1="73.5037" x2="177.673" y2="73.5036" stroke="#CCCCCC"/>
<rect x="34.6099" y="72.0623" width="25.4815" height="51.8616" transform="rotate(180 34.6099 72.0623)" fill="#FEAA00"/>
<path d="M24.25 136.49L24.25 140.21L26 140.98L26 142.01L19 138.84L19 137.85L26 134.67L26 135.72L24.25 136.49ZM23.45 136.84L20.02 138.35L23.45 139.86L23.45 136.84ZM18.58 133.766L18.58 132.806L26 132.806L26 133.766L18.58 133.766ZM20.7 130.973L20.7 130.013L26 130.013L26 130.973L20.7 130.973ZM19.68 130.493C19.68 130.679 19.62 130.836 19.5 130.963C19.38 131.083 19.2333 131.143 19.06 131.143C18.8867 131.143 18.74 131.083 18.62 130.963C18.4933 130.836 18.43 130.679 18.43 130.493C18.43 130.306 18.49 130.153 18.61 130.033C18.7233 129.906 18.8667 129.843 19.04 129.843C19.22 129.843 19.3733 129.906 19.5 130.033C19.62 130.153 19.68 130.306 19.68 130.493ZM20.65 121.55C20.65 120.883 20.8433 120.357 21.23 119.97C21.6167 119.577 22.19 119.38 22.95 119.38L26 119.38L26 120.34L23.06 120.34C22.5467 120.34 22.16 120.46 21.9 120.7C21.64 120.933 21.51 121.27 21.51 121.71C21.51 122.197 21.6633 122.583 21.97 122.87C22.27 123.157 22.7033 123.3 23.27 123.3L26 123.3L26 124.26L23.06 124.26C22.5467 124.26 22.16 124.38 21.9 124.62C21.64 124.853 21.51 125.19 21.51 125.63C21.51 126.117 21.6633 126.503 21.97 126.79C22.27 127.077 22.7033 127.22 23.27 127.22L26 127.22L26 128.18L20.7 128.18L20.7 127.26L21.49 127.26C21.2167 127.067 21.01 126.813 20.87 126.5C20.7233 126.187 20.65 125.83 20.65 125.43C20.65 125.017 20.7333 124.65 20.9 124.33C21.0667 124.01 21.31 123.763 21.63 123.59C21.3233 123.39 21.0833 123.113 20.91 122.76C20.7367 122.4 20.65 121.997 20.65 121.55ZM23.38 112.794C23.4533 112.794 23.55 112.801 23.67 112.814L23.67 117.114C24.1367 117.054 24.5133 116.851 24.8 116.504C25.08 116.151 25.22 115.714 25.22 115.194C25.22 114.561 25.0067 114.051 24.58 113.664L25.2 113.134C25.48 113.374 25.6933 113.674 25.84 114.034C25.9867 114.387 26.06 114.784 26.06 115.224C26.06 115.784 25.9467 116.281 25.72 116.714C25.4867 117.147 25.1633 117.484 24.75 117.724C24.3367 117.957 23.87 118.074 23.35 118.074C22.8367 118.074 22.3733 117.961 21.96 117.734C21.5467 117.501 21.2267 117.184 21 116.784C20.7667 116.377 20.65 115.921 20.65 115.414C20.65 114.907 20.7667 114.457 21 114.064C21.2267 113.664 21.5467 113.354 21.96 113.134C22.3733 112.907 22.8467 112.794 23.38 112.794ZM21.46 115.414C21.46 115.874 21.6 116.261 21.88 116.574C22.16 116.881 22.5267 117.061 22.98 117.114L22.98 113.714C22.5333 113.767 22.17 113.951 21.89 114.264C21.6033 114.571 21.46 114.954 21.46 115.414ZM20.65 108.631C20.65 107.958 20.8467 107.424 21.24 107.031C21.6267 106.631 22.1967 106.431 22.95 106.431L26 106.431L26 107.391L23.06 107.391C22.5467 107.391 22.16 107.514 21.9 107.761C21.64 108.008 21.51 108.361 21.51 108.821C21.51 109.341 21.6633 109.751 21.97 110.051C22.27 110.351 22.7033 110.501 23.27 110.501L26 110.501L26 111.461L20.7 111.461L20.7 110.541L21.5 110.541C21.2267 110.348 21.0167 110.088 20.87 109.761C20.7233 109.428 20.65 109.051 20.65 108.631ZM25.69 101.674C25.81 101.814 25.9033 101.988 25.97 102.194C26.03 102.401 26.06 102.614 26.06 102.834C26.06 103.368 25.9167 103.781 25.63 104.074C25.3433 104.368 24.9333 104.514 24.4 104.514L21.49 104.514L21.49 105.414L20.7 105.414L20.7 104.514L19.54 104.514L19.54 103.554L20.7 103.554L20.7 102.034L21.49 102.034L21.49 103.554L24.36 103.554C24.6467 103.554 24.8667 103.484 25.02 103.344C25.1733 103.198 25.25 102.991 25.25 102.724C25.25 102.431 25.1667 102.181 25 101.974L25.69 101.674ZM20.65 98.5838C20.65 97.8505 20.83 97.2905 21.19 96.9038C21.55 96.5105 22.0867 96.3138 22.8 96.3138L26 96.3138L26 97.2238L25.3 97.2238C25.5467 97.3838 25.7367 97.6138 25.87 97.9138C25.9967 98.2072 26.06 98.5572 26.06 98.9638C26.06 99.5572 25.9167 100.034 25.63 100.394C25.3433 100.747 24.9667 100.924 24.5 100.924C24.0333 100.924 23.66 100.754 23.38 100.414C23.0933 100.074 22.95 99.5338 22.95 98.7938L22.95 97.2738L22.76 97.2738C22.3467 97.2738 22.03 97.3938 21.81 97.6338C21.59 97.8738 21.48 98.2272 21.48 98.6938C21.48 99.0072 21.5333 99.3138 21.64 99.6138C21.74 99.9138 21.8767 100.167 22.05 100.374L21.33 100.774C21.11 100.5 20.9433 100.174 20.83 99.7938C20.71 99.4138 20.65 99.0105 20.65 98.5838ZM25.32 98.8038C25.32 98.4372 25.24 98.1205 25.08 97.8538C24.9133 97.5872 24.68 97.3938 24.38 97.2738L23.64 97.2738L23.64 98.7538C23.64 99.5672 23.9133 99.9738 24.46 99.9738C24.7267 99.9738 24.9367 99.8705 25.09 99.6638C25.2433 99.4572 25.32 99.1705 25.32 98.8038ZM26.06 92.198C26.06 92.738 25.9433 93.2213 25.71 93.648C25.4767 94.068 25.1567 94.398 24.75 94.638C24.3367 94.878 23.87 94.998 23.35 94.998C22.83 94.998 22.3667 94.878 21.96 94.638C21.5467 94.398 21.2267 94.068 21 93.648C20.7667 93.2213 20.65 92.738 20.65 92.198C20.65 91.718 20.7467 91.2913 20.94 90.918C21.1333 90.538 21.4133 90.2446 21.78 90.038L22.25 90.768C21.9967 90.9346 21.8067 91.1413 21.68 91.388C21.5533 91.6346 21.49 91.908 21.49 92.208C21.49 92.5546 21.5667 92.868 21.72 93.148C21.8733 93.4213 22.0933 93.638 22.38 93.798C22.66 93.9513 22.9833 94.028 23.35 94.028C23.7233 94.028 24.0533 93.9513 24.34 93.798C24.62 93.638 24.8367 93.4213 24.99 93.148C25.1433 92.868 25.22 92.5546 25.22 92.208C25.22 91.908 25.1567 91.6346 25.03 91.388C24.9033 91.1413 24.7133 90.9346 24.46 90.768L24.92 90.038C25.2867 90.2446 25.57 90.538 25.77 90.918C25.9633 91.2913 26.06 91.718 26.06 92.198ZM28.24 92.668C28.24 93.0146 28.1667 93.3113 28.02 93.558L27.53 93.348C27.6433 93.148 27.7 92.9213 27.7 92.668C27.7 92.2946 27.5667 92.108 27.3 92.108C27.18 92.108 27.0833 92.1546 27.01 92.248C26.9433 92.3413 26.91 92.4846 26.91 92.678L26.91 92.948L25.93 92.698L25.93 92.148L26.5 92.298C26.5267 92.018 26.6133 91.8046 26.76 91.658C26.9133 91.5046 27.1033 91.428 27.33 91.428C27.61 91.428 27.83 91.5413 27.99 91.768C28.1567 91.9946 28.24 92.2946 28.24 92.668ZM20.65 86.8651C20.65 86.1317 20.83 85.5717 21.19 85.1851C21.55 84.7917 22.0867 84.5951 22.8 84.5951L26 84.5951L26 85.5051L25.3 85.5051C25.5467 85.6651 25.7367 85.8951 25.87 86.1951C25.9967 86.4884 26.06 86.8384 26.06 87.2451C26.06 87.8384 25.9167 88.3151 25.63 88.6751C25.3433 89.0284 24.9667 89.2051 24.5 89.2051C24.0333 89.2051 23.66 89.0351 23.38 88.6951C23.0933 88.3551 22.95 87.8151 22.95 87.0751L22.95 85.5551L22.76 85.5551C22.3467 85.5551 22.03 85.6751 21.81 85.9151C21.59 86.1551 21.48 86.5084 21.48 86.9751C21.48 87.2884 21.5333 87.5951 21.64 87.8951C21.74 88.1951 21.8767 88.4484 22.05 88.6551L21.33 89.0551C21.11 88.7817 20.9433 88.4551 20.83 88.0751C20.71 87.6951 20.65 87.2917 20.65 86.8651ZM25.32 87.0851C25.32 86.7184 25.24 86.4017 25.08 86.1351C24.9133 85.8684 24.68 85.6751 24.38 85.5551L23.64 85.5551L23.64 87.0351C23.64 87.8484 23.9133 88.2551 24.46 88.2551C24.7267 88.2551 24.9367 88.1517 25.09 87.9451C25.2433 87.7384 25.32 87.4517 25.32 87.0851ZM19.9 86.0951C19.9 86.2551 19.8667 86.3951 19.8 86.5151C19.7333 86.6284 19.6333 86.7717 19.5 86.9451C19.4067 87.0451 19.34 87.1317 19.3 87.2051C19.2533 87.2784 19.23 87.3517 19.23 87.4251C19.23 87.5717 19.2867 87.6917 19.4 87.7851C19.5067 87.8784 19.6567 87.9284 19.85 87.9351L19.85 88.4751C19.4767 88.4617 19.18 88.3684 18.96 88.1951C18.74 88.0151 18.63 87.7817 18.63 87.4951C18.63 87.3351 18.6667 87.1951 18.74 87.0751C18.8067 86.9484 18.9067 86.8051 19.04 86.6451C19.1333 86.5317 19.2033 86.4417 19.25 86.3751C19.29 86.3084 19.31 86.2384 19.31 86.1651C19.31 86.0184 19.2567 85.8984 19.15 85.8051C19.0433 85.7117 18.8967 85.6617 18.71 85.6551L18.71 85.1151C19.07 85.1284 19.36 85.2251 19.58 85.4051C19.7933 85.5784 19.9 85.8084 19.9 86.0951ZM26.06 80.5192C26.06 81.0459 25.9433 81.5192 25.71 81.9392C25.4767 82.3592 25.1567 82.6892 24.75 82.9292C24.3367 83.1626 23.87 83.2792 23.35 83.2792C22.83 83.2792 22.3667 83.1626 21.96 82.9292C21.5467 82.6892 21.2267 82.3592 21 81.9392C20.7667 81.5192 20.65 81.0459 20.65 80.5192C20.65 79.9926 20.7667 79.5226 21 79.1092C21.2267 78.6892 21.5467 78.3626 21.96 78.1292C22.3667 77.8892 22.83 77.7692 23.35 77.7692C23.87 77.7692 24.3367 77.8892 24.75 78.1292C25.1567 78.3626 25.4767 78.6892 25.71 79.1092C25.9433 79.5226 26.06 79.9926 26.06 80.5192ZM25.22 80.5192C25.22 80.1792 25.1433 79.8759 24.99 79.6092C24.83 79.3359 24.61 79.1226 24.33 78.9692C24.0433 78.8159 23.7167 78.7392 23.35 78.7392C22.9833 78.7392 22.66 78.8159 22.38 78.9692C22.0933 79.1226 21.8733 79.3359 21.72 79.6092C21.5667 79.8759 21.49 80.1792 21.49 80.5192C21.49 80.8592 21.5667 81.1659 21.72 81.4392C21.8733 81.7059 22.0933 81.9192 22.38 82.0792C22.66 82.2326 22.9833 82.3092 23.35 82.3092C23.7167 82.3092 24.0433 82.2326 24.33 82.0792C24.61 81.9192 24.83 81.7059 24.99 81.4392C25.1433 81.1659 25.22 80.8592 25.22 80.5192Z" fill="#4B4B4B" fill-opacity="0.82"/>
<path d="M5.52 10L4.09 7.95C4.03 7.95667 3.94 7.96 3.82 7.96H2.24V10H0.94V3H3.82C4.42667 3 4.95333 3.1 5.4 3.3C5.85333 3.5 6.2 3.78667 6.44 4.16C6.68 4.53333 6.8 4.97667 6.8 5.49C6.8 6.01667 6.67 6.47 6.41 6.85C6.15667 7.23 5.79 7.51333 5.31 7.7L6.92 10H5.52ZM5.49 5.49C5.49 5.04333 5.34333 4.7 5.05 4.46C4.75667 4.22 4.32667 4.1 3.76 4.1H2.24V6.89H3.76C4.32667 6.89 4.75667 6.77 5.05 6.53C5.34333 6.28333 5.49 5.93667 5.49 5.49ZM13.2545 8.02C13.2545 8.56 13.0545 9.02 12.6545 9.4C12.2611 9.77333 11.6878 10 10.9345 10.08V11.2H10.1145V10.09C9.62112 10.0567 9.15445 9.96667 8.71445 9.82C8.27445 9.67333 7.92445 9.48667 7.66445 9.26L8.11445 8.25C8.36112 8.45 8.66112 8.62 9.01445 8.76C9.36779 8.89333 9.73445 8.97667 10.1145 9.01V7.01C9.64112 6.89667 9.24445 6.77333 8.92445 6.64C8.61112 6.5 8.34779 6.3 8.13445 6.04C7.92112 5.77333 7.81445 5.42333 7.81445 4.99C7.81445 4.45 8.01112 3.99 8.40445 3.61C8.79779 3.23 9.36779 3.00333 10.1145 2.93V1.8H10.9345V2.91C11.3078 2.93 11.6711 2.99333 12.0245 3.1C12.3845 3.20667 12.6978 3.34667 12.9645 3.52L12.5545 4.53C12.0478 4.23667 11.5078 4.05667 10.9345 3.99V6.01C11.4145 6.12333 11.8111 6.24667 12.1245 6.38C12.4445 6.51333 12.7111 6.71333 12.9245 6.98C13.1445 7.24 13.2545 7.58667 13.2545 8.02ZM9.10445 4.93C9.10445 5.15 9.19112 5.32667 9.36445 5.46C9.53779 5.59333 9.78779 5.70667 10.1145 5.8V4.02C9.77445 4.07333 9.52112 4.18 9.35445 4.34C9.18779 4.5 9.10445 4.69667 9.10445 4.93ZM10.9345 8.99C11.2878 8.93667 11.5478 8.83333 11.7145 8.68C11.8878 8.52667 11.9745 8.33667 11.9745 8.11C11.9745 7.88333 11.8845 7.70333 11.7045 7.57C11.5245 7.43 11.2678 7.31333 10.9345 7.22V8.99ZM23.0472 8.41H21.8072V10H20.5472V8.41H16.7072V7.51L20.1572 3H21.5472L18.2972 7.31H20.5872V5.9H21.8072V7.31H23.0472V8.41ZM25.755 5.71C26.7417 5.71 27.4717 5.90333 27.945 6.29C28.4183 6.67 28.655 7.19 28.655 7.85C28.655 8.27 28.5517 8.65 28.345 8.99C28.1383 9.33 27.8283 9.6 27.415 9.8C27.0017 10 26.4917 10.1 25.885 10.1C25.385 10.1 24.9017 10.03 24.435 9.89C23.9683 9.74333 23.575 9.54333 23.255 9.29L23.805 8.28C24.065 8.49333 24.375 8.66333 24.735 8.79C25.1017 8.91 25.4783 8.97 25.865 8.97C26.325 8.97 26.685 8.87667 26.945 8.69C27.2117 8.49667 27.345 8.23333 27.345 7.9C27.345 7.54 27.2017 7.27 26.915 7.09C26.635 6.90333 26.1517 6.81 25.465 6.81H23.775L24.135 3H28.245V4.09H25.235L25.085 5.71H25.755ZM30.1948 8.41C30.4282 8.41 30.6215 8.48667 30.7748 8.64C30.9282 8.79333 31.0048 8.99333 31.0048 9.24C31.0048 9.34667 30.9882 9.46 30.9548 9.58C30.9282 9.69333 30.8682 9.86667 30.7748 10.1L30.2648 11.51H29.4548L29.8548 9.98C29.7082 9.92 29.5915 9.82667 29.5048 9.7C29.4248 9.56667 29.3848 9.41333 29.3848 9.24C29.3848 8.99333 29.4615 8.79333 29.6148 8.64C29.7682 8.48667 29.9615 8.41 30.1948 8.41ZM34.6491 10.1C34.0891 10.1 33.5891 9.96 33.1491 9.68C32.7091 9.39333 32.3624 8.98 32.1091 8.44C31.8557 7.89333 31.7291 7.24667 31.7291 6.5C31.7291 5.75333 31.8557 5.11 32.1091 4.57C32.3624 4.02333 32.7091 3.61 33.1491 3.33C33.5891 3.04333 34.0891 2.9 34.6491 2.9C35.2091 2.9 35.7091 3.04333 36.1491 3.33C36.5957 3.61 36.9457 4.02333 37.1991 4.57C37.4524 5.11 37.5791 5.75333 37.5791 6.5C37.5791 7.24667 37.4524 7.89333 37.1991 8.44C36.9457 8.98 36.5957 9.39333 36.1491 9.68C35.7091 9.96 35.2091 10.1 34.6491 10.1ZM34.6491 8.97C35.1491 8.97 35.5424 8.76333 35.8291 8.35C36.1224 7.93667 36.2691 7.32 36.2691 6.5C36.2691 5.68 36.1224 5.06333 35.8291 4.65C35.5424 4.23667 35.1491 4.03 34.6491 4.03C34.1557 4.03 33.7624 4.23667 33.4691 4.65C33.1824 5.06333 33.0391 5.68 33.0391 6.5C33.0391 7.32 33.1824 7.93667 33.4691 8.35C33.7624 8.76333 34.1557 8.97 34.6491 8.97ZM41.3776 10.1C40.8176 10.1 40.3176 9.96 39.8776 9.68C39.4376 9.39333 39.0909 8.98 38.8376 8.44C38.5842 7.89333 38.4576 7.24667 38.4576 6.5C38.4576 5.75333 38.5842 5.11 38.8376 4.57C39.0909 4.02333 39.4376 3.61 39.8776 3.33C40.3176 3.04333 40.8176 2.9 41.3776 2.9C41.9376 2.9 42.4376 3.04333 42.8776 3.33C43.3242 3.61 43.6742 4.02333 43.9276 4.57C44.1809 5.11 44.3076 5.75333 44.3076 6.5C44.3076 7.24667 44.1809 7.89333 43.9276 8.44C43.6742 8.98 43.3242 9.39333 42.8776 9.68C42.4376 9.96 41.9376 10.1 41.3776 10.1ZM41.3776 8.97C41.8776 8.97 42.2709 8.76333 42.5576 8.35C42.8509 7.93667 42.9976 7.32 42.9976 6.5C42.9976 5.68 42.8509 5.06333 42.5576 4.65C42.2709 4.23667 41.8776 4.03 41.3776 4.03C40.8842 4.03 40.4909 4.23667 40.1976 4.65C39.9109 5.06333 39.7676 5.68 39.7676 6.5C39.7676 7.32 39.9109 7.93667 40.1976 8.35C40.4909 8.76333 40.8842 8.97 41.3776 8.97Z" fill="#ABABAB"/>
<rect x="78.5138" y="39.6488" width="25.4815" height="32.4135" fill="#57B894"/>
<path d="M93.13 123.87L94 123.87L94 128.95L87 128.95L87 124.01L87.87 124.01L87.87 127.95L90.02 127.95L90.02 124.44L90.87 124.44L90.87 127.95L93.13 127.95L93.13 123.87ZM86.58 117.459L94 117.459L94 118.379L93.16 118.379C93.4533 118.592 93.6767 118.862 93.83 119.189C93.9833 119.516 94.06 119.876 94.06 120.269C94.06 120.782 93.9467 121.242 93.72 121.649C93.4933 122.056 93.1767 122.376 92.77 122.609C92.3567 122.836 91.8833 122.949 91.35 122.949C90.8167 122.949 90.3467 122.836 89.94 122.609C89.5333 122.376 89.2167 122.056 88.99 121.649C88.7633 121.242 88.65 120.782 88.65 120.269C88.65 119.889 88.7233 119.539 88.87 119.219C89.01 118.899 89.22 118.632 89.5 118.419L86.58 118.419L86.58 117.459ZM93.22 120.189C93.22 119.856 93.1433 119.552 92.99 119.279C92.83 119.006 92.61 118.792 92.33 118.639C92.0433 118.486 91.7167 118.409 91.35 118.409C90.9833 118.409 90.66 118.486 90.38 118.639C90.0933 118.792 89.8733 119.006 89.72 119.279C89.5667 119.552 89.49 119.856 89.49 120.189C89.49 120.529 89.5667 120.836 89.72 121.109C89.8733 121.376 90.0933 121.589 90.38 121.749C90.66 121.902 90.9833 121.979 91.35 121.979C91.7167 121.979 92.0433 121.902 92.33 121.749C92.61 121.589 92.83 121.376 92.99 121.109C93.1433 120.836 93.22 120.529 93.22 120.189ZM88.7 110.703L94 110.703L94 111.613L93.2 111.613C93.4733 111.806 93.6867 112.063 93.84 112.383C93.9867 112.696 94.06 113.039 94.06 113.413C94.06 114.119 93.8667 114.676 93.48 115.083C93.0867 115.489 92.51 115.693 91.75 115.693L88.7 115.693L88.7 114.733L91.64 114.733C92.1533 114.733 92.5433 114.609 92.81 114.363C93.07 114.116 93.2 113.763 93.2 113.303C93.2 112.796 93.0467 112.396 92.74 112.103C92.4333 111.809 92 111.663 91.44 111.663L88.7 111.663L88.7 110.703ZM94.06 106.565C94.06 107.105 93.9433 107.588 93.71 108.015C93.4767 108.435 93.1567 108.765 92.75 109.005C92.3367 109.245 91.87 109.365 91.35 109.365C90.83 109.365 90.3667 109.245 89.96 109.005C89.5467 108.765 89.2267 108.435 89 108.015C88.7667 107.588 88.65 107.105 88.65 106.565C88.65 106.085 88.7467 105.658 88.94 105.285C89.1333 104.905 89.4133 104.612 89.78 104.405L90.25 105.135C89.9967 105.302 89.8067 105.508 89.68 105.755C89.5533 106.002 89.49 106.275 89.49 106.575C89.49 106.922 89.5667 107.235 89.72 107.515C89.8733 107.788 90.0933 108.005 90.38 108.165C90.66 108.318 90.9833 108.395 91.35 108.395C91.7233 108.395 92.0533 108.318 92.34 108.165C92.62 108.005 92.8367 107.788 92.99 107.515C93.1433 107.235 93.22 106.922 93.22 106.575C93.22 106.275 93.1567 106.002 93.03 105.755C92.9033 105.508 92.7133 105.302 92.46 105.135L92.92 104.405C93.2867 104.612 93.57 104.905 93.77 105.285C93.9633 105.658 94.06 106.085 94.06 106.565ZM88.65 101.232C88.65 100.499 88.83 99.9389 89.19 99.5522C89.55 99.1589 90.0867 98.9622 90.8 98.9622L94 98.9622L94 99.8722L93.3 99.8722C93.5467 100.032 93.7367 100.262 93.87 100.562C93.9967 100.856 94.06 101.206 94.06 101.612C94.06 102.206 93.9167 102.682 93.63 103.042C93.3433 103.396 92.9667 103.572 92.5 103.572C92.0333 103.572 91.66 103.402 91.38 103.062C91.0933 102.722 90.95 102.182 90.95 101.442L90.95 99.9222L90.76 99.9222C90.3467 99.9222 90.03 100.042 89.81 100.282C89.59 100.522 89.48 100.876 89.48 101.342C89.48 101.656 89.5333 101.962 89.64 102.262C89.74 102.562 89.8767 102.816 90.05 103.022L89.33 103.422C89.11 103.149 88.9433 102.822 88.83 102.442C88.71 102.062 88.65 101.659 88.65 101.232ZM93.32 101.452C93.32 101.086 93.24 100.769 93.08 100.502C92.9133 100.236 92.68 100.042 92.38 99.9222L91.64 99.9222L91.64 101.402C91.64 102.216 91.9133 102.622 92.46 102.622C92.7267 102.622 92.9367 102.519 93.09 102.312C93.2433 102.106 93.32 101.819 93.32 101.452ZM94.06 94.8463C94.06 95.3863 93.9433 95.8697 93.71 96.2963C93.4767 96.7163 93.1567 97.0463 92.75 97.2863C92.3367 97.5263 91.87 97.6463 91.35 97.6463C90.83 97.6463 90.3667 97.5263 89.96 97.2863C89.5467 97.0463 89.2267 96.7163 89 96.2963C88.7667 95.8697 88.65 95.3863 88.65 94.8463C88.65 94.3663 88.7467 93.9397 88.94 93.5663C89.1333 93.1863 89.4133 92.893 89.78 92.6863L90.25 93.4163C89.9967 93.583 89.8067 93.7897 89.68 94.0363C89.5533 94.283 89.49 94.5563 89.49 94.8563C89.49 95.203 89.5667 95.5163 89.72 95.7963C89.8733 96.0697 90.0933 96.2863 90.38 96.4463C90.66 96.5997 90.9833 96.6763 91.35 96.6763C91.7233 96.6763 92.0533 96.5997 92.34 96.4463C92.62 96.2863 92.8367 96.0697 92.99 95.7963C93.1433 95.5163 93.22 95.203 93.22 94.8563C93.22 94.5563 93.1567 94.283 93.03 94.0363C92.9033 93.7897 92.7133 93.583 92.46 93.4163L92.92 92.6863C93.2867 92.893 93.57 93.1863 93.77 93.5663C93.9633 93.9397 94.06 94.3663 94.06 94.8463ZM96.24 95.3163C96.24 95.663 96.1667 95.9597 96.02 96.2063L95.53 95.9963C95.6433 95.7963 95.7 95.5697 95.7 95.3163C95.7 94.943 95.5667 94.7563 95.3 94.7563C95.18 94.7563 95.0833 94.803 95.01 94.8963C94.9433 94.9897 94.91 95.133 94.91 95.3263L94.91 95.5963L93.93 95.3463L93.93 94.7963L94.5 94.9463C94.5267 94.6663 94.6133 94.453 94.76 94.3063C94.9133 94.153 95.1033 94.0763 95.33 94.0763C95.61 94.0763 95.83 94.1897 95.99 94.4163C96.1567 94.643 96.24 94.943 96.24 95.3163ZM88.65 89.5135C88.65 88.7801 88.83 88.2201 89.19 87.8335C89.55 87.4401 90.0867 87.2435 90.8 87.2435L94 87.2435L94 88.1535L93.3 88.1535C93.5467 88.3135 93.7367 88.5435 93.87 88.8435C93.9967 89.1368 94.06 89.4868 94.06 89.8935C94.06 90.4868 93.9167 90.9635 93.63 91.3235C93.3433 91.6768 92.9667 91.8535 92.5 91.8535C92.0333 91.8535 91.66 91.6835 91.38 91.3435C91.0933 91.0035 90.95 90.4635 90.95 89.7235L90.95 88.2035L90.76 88.2035C90.3467 88.2035 90.03 88.3235 89.81 88.5635C89.59 88.8035 89.48 89.1568 89.48 89.6235C89.48 89.9368 89.5333 90.2435 89.64 90.5435C89.74 90.8435 89.8767 91.0968 90.05 91.3035L89.33 91.7035C89.11 91.4301 88.9433 91.1035 88.83 90.7235C88.71 90.3435 88.65 89.9401 88.65 89.5135ZM93.32 89.7335C93.32 89.3668 93.24 89.0501 93.08 88.7835C92.9133 88.5168 92.68 88.3235 92.38 88.2035L91.64 88.2035L91.64 89.6835C91.64 90.4968 91.9133 90.9035 92.46 90.9035C92.7267 90.9035 92.9367 90.8001 93.09 90.5935C93.2433 90.3868 93.32 90.1001 93.32 89.7335ZM87.9 88.7435C87.9 88.9035 87.8667 89.0435 87.8 89.1635C87.7333 89.2768 87.6333 89.4201 87.5 89.5935C87.4067 89.6935 87.34 89.7801 87.3 89.8535C87.2533 89.9268 87.23 90.0001 87.23 90.0735C87.23 90.2201 87.2867 90.3401 87.4 90.4335C87.5067 90.5268 87.6567 90.5768 87.85 90.5835L87.85 91.1235C87.4767 91.1101 87.18 91.0168 86.96 90.8435C86.74 90.6635 86.63 90.4301 86.63 90.1435C86.63 89.9835 86.6667 89.8435 86.74 89.7235C86.8067 89.5968 86.9067 89.4535 87.04 89.2935C87.1333 89.1801 87.2033 89.0901 87.25 89.0235C87.29 88.9568 87.31 88.8868 87.31 88.8135C87.31 88.6668 87.2567 88.5468 87.15 88.4535C87.0433 88.3601 86.8967 88.3101 86.71 88.3035L86.71 87.7635C87.07 87.7768 87.36 87.8735 87.58 88.0535C87.7933 88.2268 87.9 88.4568 87.9 88.7435ZM94.06 83.1676C94.06 83.6943 93.9433 84.1676 93.71 84.5876C93.4767 85.0076 93.1567 85.3376 92.75 85.5776C92.3367 85.8109 91.87 85.9276 91.35 85.9276C90.83 85.9276 90.3667 85.8109 89.96 85.5776C89.5467 85.3376 89.2267 85.0076 89 84.5876C88.7667 84.1676 88.65 83.6943 88.65 83.1676C88.65 82.6409 88.7667 82.1709 89 81.7576C89.2267 81.3376 89.5467 81.0109 89.96 80.7776C90.3667 80.5376 90.83 80.4176 91.35 80.4176C91.87 80.4176 92.3367 80.5376 92.75 80.7776C93.1567 81.0109 93.4767 81.3376 93.71 81.7576C93.9433 82.1709 94.06 82.6409 94.06 83.1676ZM93.22 83.1676C93.22 82.8276 93.1433 82.5243 92.99 82.2576C92.83 81.9843 92.61 81.7709 92.33 81.6176C92.0433 81.4643 91.7167 81.3876 91.35 81.3876C90.9833 81.3876 90.66 81.4643 90.38 81.6176C90.0933 81.7709 89.8733 81.9843 89.72 82.2576C89.5667 82.5243 89.49 82.8276 89.49 83.1676C89.49 83.5076 89.5667 83.8143 89.72 84.0876C89.8733 84.3543 90.0933 84.5676 90.38 84.7276C90.66 84.8809 90.9833 84.9576 91.35 84.9576C91.7167 84.9576 92.0433 84.8809 92.33 84.7276C92.61 84.5676 92.83 84.3543 92.99 84.0876C93.1433 83.8143 93.22 83.5076 93.22 83.1676Z" fill="#4B4B4B" fill-opacity="0.82"/>
<path d="M75.52 25.9999L74.09 23.9499C74.03 23.9566 73.94 23.9599 73.82 23.9599H72.24V25.9999H70.94V18.9999H73.82C74.4267 18.9999 74.9533 19.0999 75.4 19.2999C75.8533 19.4999 76.2 19.7866 76.44 20.1599C76.68 20.5333 76.8 20.9766 76.8 21.4899C76.8 22.0166 76.67 22.4699 76.41 22.8499C76.1567 23.2299 75.79 23.5133 75.31 23.6999L76.92 25.9999H75.52ZM75.49 21.4899C75.49 21.0433 75.3433 20.6999 75.05 20.4599C74.7567 20.2199 74.3267 20.0999 73.76 20.0999H72.24V22.8899H73.76C74.3267 22.8899 74.7567 22.7699 75.05 22.5299C75.3433 22.2833 75.49 21.9366 75.49 21.4899ZM83.2545 24.0199C83.2545 24.5599 83.0545 25.0199 82.6545 25.3999C82.2611 25.7733 81.6878 25.9999 80.9345 26.0799V27.1999H80.1145V26.0899C79.6211 26.0566 79.1545 25.9666 78.7145 25.8199C78.2745 25.6733 77.9245 25.4866 77.6645 25.2599L78.1145 24.2499C78.3611 24.4499 78.6611 24.6199 79.0145 24.7599C79.3678 24.8933 79.7345 24.9766 80.1145 25.0099V23.0099C79.6411 22.8966 79.2445 22.7733 78.9245 22.6399C78.6111 22.4999 78.3478 22.2999 78.1345 22.0399C77.9211 21.7733 77.8145 21.4233 77.8145 20.9899C77.8145 20.4499 78.0111 19.9899 78.4045 19.6099C78.7978 19.2299 79.3678 19.0033 80.1145 18.9299V17.7999H80.9345V18.9099C81.3078 18.9299 81.6711 18.9933 82.0245 19.0999C82.3845 19.2066 82.6978 19.3466 82.9645 19.5199L82.5545 20.5299C82.0478 20.2366 81.5078 20.0566 80.9345 19.9899V22.0099C81.4145 22.1233 81.8111 22.2466 82.1245 22.3799C82.4445 22.5133 82.7111 22.7133 82.9245 22.9799C83.1445 23.2399 83.2545 23.5866 83.2545 24.0199ZM79.1045 20.9299C79.1045 21.1499 79.1911 21.3266 79.3645 21.4599C79.5378 21.5933 79.7878 21.7066 80.1145 21.7999V20.0199C79.7745 20.0733 79.5211 20.1799 79.3545 20.3399C79.1878 20.4999 79.1045 20.6966 79.1045 20.9299ZM80.9345 24.9899C81.2878 24.9366 81.5478 24.8333 81.7145 24.6799C81.8878 24.5266 81.9745 24.3366 81.9745 24.1099C81.9745 23.8833 81.8845 23.7033 81.7045 23.5699C81.5245 23.4299 81.2678 23.3133 80.9345 23.2199V24.9899ZM91.8772 24.8999V25.9999H86.7172V25.1299L89.4972 22.4899C89.8105 22.1899 90.0205 21.9299 90.1272 21.7099C90.2405 21.4833 90.2972 21.2599 90.2972 21.0399C90.2972 20.7133 90.1872 20.4633 89.9672 20.2899C89.7472 20.1166 89.4239 20.0299 88.9972 20.0299C88.2839 20.0299 87.7372 20.2733 87.3572 20.7599L86.4472 20.0599C86.7205 19.6933 87.0872 19.4099 87.5472 19.2099C88.0139 19.0033 88.5339 18.8999 89.1072 18.8999C89.8672 18.8999 90.4739 19.0799 90.9272 19.4399C91.3805 19.7999 91.6072 20.2899 91.6072 20.9099C91.6072 21.2899 91.5272 21.6466 91.3672 21.9799C91.2072 22.3133 90.9005 22.6933 90.4472 23.1199L88.5772 24.8999H91.8772ZM95.6075 21.8899C96.2542 21.9699 96.7475 22.1899 97.0875 22.5499C97.4275 22.9099 97.5975 23.3599 97.5975 23.8999C97.5975 24.3066 97.4942 24.6766 97.2875 25.0099C97.0808 25.3433 96.7675 25.6099 96.3475 25.8099C95.9342 26.0033 95.4275 26.0999 94.8275 26.0999C94.3275 26.0999 93.8442 26.0299 93.3775 25.8899C92.9175 25.7433 92.5242 25.5433 92.1975 25.2899L92.7575 24.2799C93.0108 24.4933 93.3175 24.6633 93.6775 24.7899C94.0442 24.9099 94.4208 24.9699 94.8075 24.9699C95.2675 24.9699 95.6275 24.8766 95.8875 24.6899C96.1542 24.4966 96.2875 24.2366 96.2875 23.9099C96.2875 23.5833 96.1608 23.3299 95.9075 23.1499C95.6608 22.9633 95.2808 22.8699 94.7675 22.8699H94.1275V21.9799L95.7175 20.0899H92.5375V18.9999H97.3075V19.8699L95.6075 21.8899ZM99.2378 24.4099C99.4711 24.4099 99.6645 24.4866 99.8178 24.6399C99.9711 24.7933 100.048 24.9933 100.048 25.2399C100.048 25.3466 100.031 25.4599 99.9978 25.5799C99.9711 25.6933 99.9111 25.8666 99.8178 26.0999L99.3078 27.5099H98.4978L98.8978 25.9799C98.7511 25.9199 98.6345 25.8266 98.5478 25.6999C98.4678 25.5666 98.4278 25.4133 98.4278 25.2399C98.4278 24.9933 98.5045 24.7933 98.6578 24.6399C98.8111 24.4866 99.0045 24.4099 99.2378 24.4099ZM103.079 21.7099C104.066 21.7099 104.796 21.9033 105.269 22.2899C105.743 22.6699 105.979 23.1899 105.979 23.8499C105.979 24.2699 105.876 24.6499 105.669 24.9899C105.463 25.3299 105.153 25.5999 104.739 25.7999C104.326 25.9999 103.816 26.0999 103.209 26.0999C102.709 26.0999 102.226 26.0299 101.759 25.8899C101.293 25.7433 100.899 25.5433 100.579 25.2899L101.129 24.2799C101.389 24.4933 101.699 24.6633 102.059 24.7899C102.426 24.9099 102.803 24.9699 103.189 24.9699C103.649 24.9699 104.009 24.8766 104.269 24.6899C104.536 24.4966 104.669 24.2333 104.669 23.8999C104.669 23.5399 104.526 23.2699 104.239 23.0899C103.959 22.9033 103.476 22.8099 102.789 22.8099H101.099L101.459 18.9999H105.569V20.0899H102.559L102.409 21.7099H103.079ZM109.649 26.0999C109.089 26.0999 108.589 25.9599 108.149 25.6799C107.709 25.3933 107.362 24.9799 107.109 24.4399C106.856 23.8933 106.729 23.2466 106.729 22.4999C106.729 21.7533 106.856 21.1099 107.109 20.5699C107.362 20.0233 107.709 19.6099 108.149 19.3299C108.589 19.0433 109.089 18.8999 109.649 18.8999C110.209 18.8999 110.709 19.0433 111.149 19.3299C111.596 19.6099 111.946 20.0233 112.199 20.5699C112.452 21.1099 112.579 21.7533 112.579 22.4999C112.579 23.2466 112.452 23.8933 112.199 24.4399C111.946 24.9799 111.596 25.3933 111.149 25.6799C110.709 25.9599 110.209 26.0999 109.649 26.0999ZM109.649 24.9699C110.149 24.9699 110.542 24.7633 110.829 24.3499C111.122 23.9366 111.269 23.3199 111.269 22.4999C111.269 21.6799 111.122 21.0633 110.829 20.6499C110.542 20.2366 110.149 20.0299 109.649 20.0299C109.156 20.0299 108.762 20.2366 108.469 20.6499C108.182 21.0633 108.039 21.6799 108.039 22.4999C108.039 23.3199 108.182 23.9366 108.469 24.3499C108.762 24.7633 109.156 24.9699 109.649 24.9699Z" fill="#ABABAB"/>
<rect x="145.537" y="26.6833" width="25.4815" height="45.3789" fill="#6C63FF"/>
<path d="M160.08 109.91C160.08 110.437 160 110.947 159.84 111.44C159.673 111.927 159.46 112.31 159.2 112.59L158.42 112.22C158.66 111.953 158.857 111.613 159.01 111.2C159.157 110.78 159.23 110.35 159.23 109.91C159.23 109.33 159.133 108.897 158.94 108.61C158.74 108.323 158.477 108.18 158.15 108.18C157.91 108.18 157.717 108.26 157.57 108.42C157.417 108.573 157.3 108.767 157.22 109C157.14 109.227 157.05 109.55 156.95 109.97C156.823 110.497 156.697 110.923 156.57 111.25C156.443 111.57 156.25 111.847 155.99 112.08C155.723 112.307 155.367 112.42 154.92 112.42C154.547 112.42 154.21 112.323 153.91 112.13C153.61 111.93 153.37 111.63 153.19 111.23C153.01 110.83 152.92 110.333 152.92 109.74C152.92 109.327 152.973 108.92 153.08 108.52C153.187 108.12 153.34 107.777 153.54 107.49L154.34 107.82C154.153 108.113 154.013 108.427 153.92 108.76C153.82 109.093 153.77 109.42 153.77 109.74C153.77 110.307 153.873 110.733 154.08 111.02C154.287 111.3 154.553 111.44 154.88 111.44C155.12 111.44 155.317 111.36 155.47 111.2C155.617 111.04 155.733 110.843 155.82 110.61C155.9 110.37 155.987 110.047 156.08 109.64C156.207 109.113 156.333 108.69 156.46 108.37C156.587 108.05 156.78 107.777 157.04 107.55C157.3 107.317 157.65 107.2 158.09 107.2C158.457 107.2 158.793 107.3 159.1 107.5C159.4 107.7 159.64 108.003 159.82 108.41C159.993 108.817 160.08 109.317 160.08 109.91ZM154.65 103.949C154.65 103.216 154.83 102.656 155.19 102.269C155.55 101.876 156.087 101.679 156.8 101.679L160 101.679L160 102.589L159.3 102.589C159.547 102.749 159.737 102.979 159.87 103.279C159.997 103.572 160.06 103.922 160.06 104.329C160.06 104.922 159.917 105.399 159.63 105.759C159.343 106.112 158.967 106.289 158.5 106.289C158.033 106.289 157.66 106.119 157.38 105.779C157.093 105.439 156.95 104.899 156.95 104.159L156.95 102.639L156.76 102.639C156.347 102.639 156.03 102.759 155.81 102.999C155.59 103.239 155.48 103.592 155.48 104.059C155.48 104.372 155.533 104.679 155.64 104.979C155.74 105.279 155.877 105.532 156.05 105.739L155.33 106.139C155.11 105.866 154.943 105.539 154.83 105.159C154.71 104.779 154.65 104.376 154.65 103.949ZM159.32 104.169C159.32 103.802 159.24 103.486 159.08 103.219C158.913 102.952 158.68 102.759 158.38 102.639L157.64 102.639L157.64 104.119C157.64 104.932 157.913 105.339 158.46 105.339C158.727 105.339 158.937 105.236 159.09 105.029C159.243 104.822 159.32 104.536 159.32 104.169ZM154.7 94.9625L160 94.9625L160 95.8725L159.2 95.8725C159.473 96.0659 159.687 96.3225 159.84 96.6425C159.987 96.9559 160.06 97.2992 160.06 97.6725C160.06 98.3792 159.867 98.9359 159.48 99.3425C159.087 99.7492 158.51 99.9525 157.75 99.9525L154.7 99.9525L154.7 98.9925L157.64 98.9925C158.153 98.9925 158.543 98.8692 158.81 98.6225C159.07 98.3759 159.2 98.0225 159.2 97.5625C159.2 97.0559 159.047 96.6559 158.74 96.3625C158.433 96.0692 158 95.9225 157.44 95.9225L154.7 95.9225L154.7 94.9625ZM152.63 96.8425L152.63 95.6225L153.93 97.3025L153.93 98.2025L152.63 96.8425ZM152.58 88.135L160 88.135L160 89.055L159.16 89.055C159.453 89.2683 159.677 89.5383 159.83 89.865C159.983 90.1916 160.06 90.5516 160.06 90.945C160.06 91.4583 159.947 91.9183 159.72 92.325C159.493 92.7316 159.177 93.0516 158.77 93.285C158.357 93.5116 157.883 93.625 157.35 93.625C156.817 93.625 156.347 93.5116 155.94 93.285C155.533 93.0516 155.217 92.7316 154.99 92.325C154.763 91.9183 154.65 91.4583 154.65 90.945C154.65 90.565 154.723 90.215 154.87 89.895C155.01 89.575 155.22 89.3083 155.5 89.095L152.58 89.095L152.58 88.135ZM159.22 90.865C159.22 90.5316 159.143 90.2283 158.99 89.955C158.83 89.6816 158.61 89.4683 158.33 89.315C158.043 89.1616 157.717 89.085 157.35 89.085C156.983 89.085 156.66 89.1616 156.38 89.315C156.093 89.4683 155.873 89.6816 155.72 89.955C155.567 90.2283 155.49 90.5316 155.49 90.865C155.49 91.205 155.567 91.5116 155.72 91.785C155.873 92.0516 156.093 92.265 156.38 92.425C156.66 92.5783 156.983 92.655 157.35 92.655C157.717 92.655 158.043 92.5783 158.33 92.425C158.61 92.265 158.83 92.0516 158.99 91.785C159.143 91.5116 159.22 91.205 159.22 90.865ZM157.38 81.5285C157.453 81.5285 157.55 81.5352 157.67 81.5485L157.67 85.8485C158.137 85.7885 158.513 85.5852 158.8 85.2385C159.08 84.8852 159.22 84.4485 159.22 83.9285C159.22 83.2952 159.007 82.7852 158.58 82.3985L159.2 81.8685C159.48 82.1085 159.693 82.4085 159.84 82.7685C159.987 83.1219 160.06 83.5185 160.06 83.9585C160.06 84.5185 159.947 85.0152 159.72 85.4485C159.487 85.8819 159.163 86.2185 158.75 86.4585C158.337 86.6919 157.87 86.8085 157.35 86.8085C156.837 86.8085 156.373 86.6952 155.96 86.4685C155.547 86.2352 155.227 85.9185 155 85.5185C154.767 85.1119 154.65 84.6552 154.65 84.1485C154.65 83.6419 154.767 83.1919 155 82.7985C155.227 82.3985 155.547 82.0885 155.96 81.8685C156.373 81.6419 156.847 81.5285 157.38 81.5285ZM155.46 84.1485C155.46 84.6085 155.6 84.9952 155.88 85.3085C156.16 85.6152 156.527 85.7952 156.98 85.8485L156.98 82.4485C156.533 82.5019 156.17 82.6852 155.89 82.9985C155.603 83.3052 155.46 83.6885 155.46 84.1485Z" fill="#4B4B4B" fill-opacity="0.82"/>
<path d="M141.52 14L140.09 11.95C140.03 11.9567 139.94 11.96 139.82 11.96H138.24V14H136.94V7.00003H139.82C140.427 7.00003 140.953 7.10003 141.4 7.30003C141.853 7.50003 142.2 7.7867 142.44 8.16003C142.68 8.53336 142.8 8.9767 142.8 9.49003C142.8 10.0167 142.67 10.47 142.41 10.85C142.157 11.23 141.79 11.5134 141.31 11.7L142.92 14H141.52ZM141.49 9.49003C141.49 9.04336 141.343 8.70003 141.05 8.46003C140.757 8.22003 140.327 8.10003 139.76 8.10003H138.24V10.89H139.76C140.327 10.89 140.757 10.77 141.05 10.53C141.343 10.2834 141.49 9.9367 141.49 9.49003ZM149.254 12.02C149.254 12.56 149.054 13.02 148.654 13.4C148.261 13.7734 147.688 14 146.934 14.08V15.2H146.114V14.09C145.621 14.0567 145.154 13.9667 144.714 13.82C144.274 13.6734 143.924 13.4867 143.664 13.26L144.114 12.25C144.361 12.45 144.661 12.62 145.014 12.76C145.368 12.8934 145.734 12.9767 146.114 13.01V11.01C145.641 10.8967 145.244 10.7734 144.924 10.64C144.611 10.5 144.348 10.3 144.134 10.04C143.921 9.77336 143.814 9.42336 143.814 8.99003C143.814 8.45003 144.011 7.99003 144.404 7.61003C144.798 7.23003 145.368 7.00336 146.114 6.93003V5.80003H146.934V6.91003C147.308 6.93003 147.671 6.99336 148.024 7.10003C148.384 7.2067 148.698 7.3467 148.964 7.52003L148.554 8.53003C148.048 8.2367 147.508 8.0567 146.934 7.99003V10.01C147.414 10.1234 147.811 10.2467 148.124 10.38C148.444 10.5134 148.711 10.7134 148.924 10.98C149.144 11.24 149.254 11.5867 149.254 12.02ZM145.104 8.93003C145.104 9.15003 145.191 9.3267 145.364 9.46003C145.538 9.59336 145.788 9.7067 146.114 9.80003V8.02003C145.774 8.07336 145.521 8.18003 145.354 8.34003C145.188 8.50003 145.104 8.6967 145.104 8.93003ZM146.934 12.99C147.288 12.9367 147.548 12.8334 147.714 12.68C147.888 12.5267 147.974 12.3367 147.974 12.11C147.974 11.8834 147.884 11.7034 147.704 11.57C147.524 11.43 147.268 11.3134 146.934 11.22V12.99ZM155.787 9.89003C156.434 9.97003 156.927 10.19 157.267 10.55C157.607 10.91 157.777 11.36 157.777 11.9C157.777 12.3067 157.674 12.6767 157.467 13.01C157.261 13.3434 156.947 13.61 156.527 13.81C156.114 14.0034 155.607 14.1 155.007 14.1C154.507 14.1 154.024 14.03 153.557 13.89C153.097 13.7434 152.704 13.5434 152.377 13.29L152.937 12.28C153.191 12.4934 153.497 12.6634 153.857 12.79C154.224 12.91 154.601 12.97 154.987 12.97C155.447 12.97 155.807 12.8767 156.067 12.69C156.334 12.4967 156.467 12.2367 156.467 11.91C156.467 11.5834 156.341 11.33 156.087 11.15C155.841 10.9634 155.461 10.87 154.947 10.87H154.307V9.98003L155.897 8.09003H152.717V7.00003H157.487V7.87003L155.787 9.89003ZM163.168 10.32C163.534 10.4867 163.814 10.7134 164.008 11C164.208 11.28 164.308 11.61 164.308 11.99C164.308 12.4167 164.188 12.79 163.948 13.11C163.714 13.43 163.381 13.6767 162.948 13.85C162.514 14.0167 162.011 14.1 161.438 14.1C160.864 14.1 160.361 14.0167 159.928 13.85C159.501 13.6767 159.171 13.43 158.938 13.11C158.704 12.79 158.588 12.4167 158.588 11.99C158.588 11.61 158.684 11.28 158.878 11C159.071 10.7134 159.348 10.4867 159.708 10.32C159.428 10.1667 159.211 9.9667 159.058 9.72003C158.911 9.4667 158.838 9.1767 158.838 8.85003C158.838 8.4567 158.944 8.11336 159.158 7.82003C159.378 7.5267 159.684 7.30003 160.078 7.14003C160.471 6.98003 160.924 6.90003 161.438 6.90003C161.958 6.90003 162.414 6.98003 162.808 7.14003C163.201 7.30003 163.508 7.5267 163.728 7.82003C163.948 8.11336 164.058 8.4567 164.058 8.85003C164.058 9.1767 163.981 9.46336 163.828 9.71003C163.674 9.9567 163.454 10.16 163.168 10.32ZM161.438 7.92003C161.031 7.92003 160.708 8.0067 160.468 8.18003C160.234 8.35336 160.118 8.5967 160.118 8.91003C160.118 9.21003 160.234 9.45003 160.468 9.63003C160.708 9.80336 161.031 9.89003 161.438 9.89003C161.851 9.89003 162.178 9.80336 162.418 9.63003C162.658 9.45003 162.778 9.21003 162.778 8.91003C162.778 8.5967 162.654 8.35336 162.408 8.18003C162.168 8.0067 161.844 7.92003 161.438 7.92003ZM161.438 13.08C161.918 13.08 162.298 12.98 162.578 12.78C162.858 12.58 162.998 12.3034 162.998 11.95C162.998 11.6034 162.858 11.33 162.578 11.13C162.298 10.93 161.918 10.83 161.438 10.83C160.958 10.83 160.581 10.93 160.308 11.13C160.034 11.33 159.898 11.6034 159.898 11.95C159.898 12.3034 160.034 12.58 160.308 12.78C160.581 12.98 160.958 13.08 161.438 13.08ZM166.039 12.41C166.272 12.41 166.465 12.4867 166.619 12.64C166.772 12.7934 166.849 12.9934 166.849 13.24C166.849 13.3467 166.832 13.46 166.799 13.58C166.772 13.6934 166.712 13.8667 166.619 14.1L166.109 15.51H165.299L165.699 13.98C165.552 13.92 165.435 13.8267 165.349 13.7C165.269 13.5667 165.229 13.4134 165.229 13.24C165.229 12.9934 165.305 12.7934 165.459 12.64C165.612 12.4867 165.805 12.41 166.039 12.41ZM170.05 6.90003C171.01 6.90003 171.753 7.20003 172.28 7.80003C172.813 8.40003 173.08 9.26003 173.08 10.38C173.08 11.1667 172.937 11.84 172.65 12.4C172.363 12.9534 171.96 13.3767 171.44 13.67C170.927 13.9567 170.33 14.1 169.65 14.1C169.29 14.1 168.95 14.0634 168.63 13.99C168.317 13.91 168.043 13.7967 167.81 13.65L168.29 12.67C168.637 12.8967 169.08 13.01 169.62 13.01C170.293 13.01 170.82 12.8034 171.2 12.39C171.58 11.9767 171.77 11.38 171.77 10.6V10.59C171.563 10.83 171.3 11.0134 170.98 11.14C170.66 11.26 170.3 11.32 169.9 11.32C169.44 11.32 169.027 11.2334 168.66 11.06C168.293 10.88 168.007 10.6267 167.8 10.3C167.593 9.97336 167.49 9.5967 167.49 9.17003C167.49 8.7167 167.603 8.32003 167.83 7.98003C168.057 7.63336 168.363 7.3667 168.75 7.18003C169.137 6.99336 169.57 6.90003 170.05 6.90003ZM170.15 10.3C170.57 10.3 170.91 10.1867 171.17 9.96003C171.437 9.73336 171.57 9.4467 171.57 9.10003C171.57 8.76003 171.44 8.48003 171.18 8.26003C170.927 8.03336 170.573 7.92003 170.12 7.92003C169.713 7.92003 169.383 8.03003 169.13 8.25003C168.877 8.46336 168.75 8.75003 168.75 9.11003C168.75 9.4767 168.877 9.7667 169.13 9.98003C169.383 10.1934 169.723 10.3 170.15 10.3ZM176.88 14.1C176.32 14.1 175.82 13.96 175.38 13.68C174.94 13.3934 174.593 12.98 174.34 12.44C174.086 11.8934 173.96 11.2467 173.96 10.5C173.96 9.75336 174.086 9.11003 174.34 8.57003C174.593 8.02336 174.94 7.61003 175.38 7.33003C175.82 7.04336 176.32 6.90003 176.88 6.90003C177.44 6.90003 177.94 7.04336 178.38 7.33003C178.826 7.61003 179.176 8.02336 179.43 8.57003C179.683 9.11003 179.81 9.75336 179.81 10.5C179.81 11.2467 179.683 11.8934 179.43 12.44C179.176 12.98 178.826 13.3934 178.38 13.68C177.94 13.96 177.44 14.1 176.88 14.1ZM176.88 12.97C177.38 12.97 177.773 12.7634 178.06 12.35C178.353 11.9367 178.5 11.32 178.5 10.5C178.5 9.68003 178.353 9.06336 178.06 8.65003C177.773 8.2367 177.38 8.03003 176.88 8.03003C176.386 8.03003 175.993 8.2367 175.7 8.65003C175.413 9.06336 175.27 9.68003 175.27 10.5C175.27 11.32 175.413 11.9367 175.7 12.35C175.993 12.7634 176.386 12.97 176.88 12.97Z" fill="#ABABAB"/>
</svg>
