<svg width="31" height="30" viewBox="0 0 31 30" fill="none" xmlns="http://www.w3.org/2000/svg">
<path d="M17.5104 13.772C17.5104 14.0238 17.7142 14.2276 17.966 14.2276C18.2177 14.2276 18.4215 14.0238 18.4215 13.772C18.4215 12.508 17.3023 11.4608 15.8482 11.2768V9.34057C15.8482 9.08882 15.6444 8.88504 15.3927 8.88504C15.1409 8.88504 14.9371 9.08882 14.9371 9.34057V11.2768C13.4831 11.4612 12.3638 12.5083 12.3638 13.772C12.3638 15.0352 13.4828 16.082 14.9371 16.2663V19.4927C13.9878 19.3334 13.2746 18.6866 13.2746 17.9141C13.2746 17.6624 13.0708 17.4586 12.8191 17.4586C12.5673 17.4586 12.3635 17.6624 12.3635 17.9141C12.3635 19.1792 13.4831 20.2269 14.9371 20.4106V22.3459C14.9371 22.5977 15.1409 22.8015 15.3927 22.8015C15.6444 22.8015 15.8482 22.5977 15.8482 22.3459V20.4103C17.3026 20.2253 18.4212 19.1782 18.4212 17.9145C18.4212 16.651 17.3023 15.6042 15.8482 15.4195V12.1948C16.7978 12.3544 17.5104 13.0005 17.5104 13.772ZM13.2752 13.772C13.2752 13.0005 13.9881 12.3547 14.9374 12.1951V15.3484C13.9881 15.1888 13.2752 14.543 13.2752 13.772ZM17.5101 17.9138C17.5101 18.6854 16.7975 19.3315 15.8482 19.4917V16.3369C16.7978 16.4971 17.5101 17.1429 17.5101 17.9138Z" fill="white"/>
<path d="M15.3908 6.98426C10.5063 6.98426 6.53251 10.958 6.53251 15.8425C6.53251 20.727 10.5063 24.7007 15.3908 24.7007C20.2752 24.7007 24.249 20.727 24.249 15.8425C24.249 10.958 20.2752 6.98426 15.3908 6.98426ZM15.3908 23.7897C11.0085 23.7897 7.44357 20.2247 7.44357 15.8425C7.44357 11.4602 11.0085 7.89532 15.3908 7.89532C19.773 7.89532 23.3379 11.4602 23.3379 15.8425C23.3379 20.2247 19.7727 23.7897 15.3908 23.7897Z" fill="white"/>
<path d="M30.6432 26.7156C30.4629 26.5407 30.1745 26.5448 29.9989 26.7254L28.3658 28.4095V13.5708C28.3658 13.319 28.162 13.1152 27.9103 13.1152C27.6585 13.1152 27.4548 13.319 27.4548 13.5708V28.4315L25.7831 26.7075C25.6075 26.5269 25.3194 26.5228 25.1388 26.6978C24.9583 26.873 24.9539 27.1615 25.1291 27.342L27.5726 29.8617C27.6582 29.9501 27.7761 30 27.8996 30C28.0231 30 28.141 29.9501 28.2266 29.8617L30.6529 27.3599C30.8281 27.179 30.8237 26.8906 30.6432 26.7156Z" fill="white"/>
<path d="M3.2212 0.128412C3.2071 0.114304 3.18891 0.108661 3.17386 0.0967477C3.16665 0.0917315 3.15944 0.0867154 3.15192 0.0820127C2.97447 -0.0386889 2.73463 -0.0286565 2.57725 0.128726L0.133438 2.5716C-0.0443225 2.74936 -0.044636 3.0381 0.133438 3.21586C0.222475 3.3049 0.338787 3.34942 0.455413 3.34942C0.572039 3.34942 0.688665 3.3049 0.777389 3.21586L2.45404 1.53984V15.9409C2.45404 16.1927 2.65782 16.3965 2.90957 16.3965C3.16132 16.3965 3.3651 16.1927 3.3651 15.9409V1.56053L5.00445 3.19862C5.18253 3.37669 5.47095 3.37607 5.64872 3.19862C5.82648 3.02055 5.82648 2.73212 5.64872 2.55436L3.2212 0.128412Z" fill="white"/>
</svg>
