<svg width="325" height="142" viewBox="0 0 325 142" fill="none" xmlns="http://www.w3.org/2000/svg">
<path d="M10.1 137.463C10.1 137.91 10.0133 138.323 9.84 138.703C9.66 139.077 9.41 139.383 9.09 139.623L8.2 138.883C8.73333 138.497 9 138.033 9 137.493C9 136.767 8.57 136.403 7.71 136.403L4.09 136.403L4.09 138.893L3 138.893L3 135.103L7.64 135.103C8.46 135.103 9.07667 135.303 9.49 135.703C9.89667 136.103 10.1 136.69 10.1 137.463ZM4.6 131.36C4.6 130.573 4.79 129.973 5.17 129.56C5.54333 129.14 6.11 128.93 6.87 128.93L10 128.93L10 130.11L9.35 130.11C9.58333 130.263 9.76333 130.483 9.89 130.77C10.01 131.05 10.07 131.39 10.07 131.79C10.07 132.19 10.0033 132.54 9.87 132.84C9.73 133.14 9.54 133.373 9.3 133.54C9.05333 133.7 8.77667 133.78 8.47 133.78C7.99 133.78 7.60667 133.603 7.32 133.25C7.02667 132.89 6.88 132.327 6.88 131.56L6.88 130.18L6.8 130.18C6.42667 130.18 6.14 130.293 5.94 130.52C5.74 130.74 5.64 131.07 5.64 131.51C5.64 131.81 5.68667 132.107 5.78 132.4C5.87333 132.687 6.00333 132.93 6.17 133.13L5.26 133.62C5.04667 133.34 4.88333 133.003 4.77 132.61C4.65667 132.217 4.6 131.8 4.6 131.36ZM9.16 131.53C9.16 131.217 9.09 130.94 8.95 130.7C8.80333 130.453 8.59667 130.28 8.33 130.18L7.71 130.18L7.71 131.47C7.71 132.19 7.94667 132.55 8.42 132.55C8.64667 132.55 8.82667 132.46 8.96 132.28C9.09333 132.1 9.16 131.85 9.16 131.53ZM4.6 124.296C4.6 123.622 4.79667 123.082 5.19 122.676C5.58333 122.269 6.16667 122.066 6.94 122.066L10 122.066L10 123.316L7.1 123.316C6.63333 123.316 6.28333 123.426 6.05 123.646C5.81 123.866 5.69 124.179 5.69 124.586C5.69 125.046 5.83 125.409 6.11 125.676C6.38333 125.942 6.78 126.076 7.3 126.076L10 126.076L10 127.326L4.66 127.326L4.66 126.136L5.35 126.136C5.10333 125.929 4.91667 125.669 4.79 125.356C4.66333 125.042 4.6 124.689 4.6 124.296Z" fill="#6C6C6C" fill-opacity="0.46"/>
<path d="M37.9323 137.253L40.0623 137.253L40.0623 133.873L41.1623 133.873L41.1623 137.253L43.8423 137.253L43.8423 138.553L36.8423 138.553L36.8423 133.443L37.9323 133.443L37.9323 137.253ZM41.2023 127.433C41.289 127.433 41.4123 127.439 41.5723 127.453L41.5723 131.643C41.9656 131.569 42.279 131.379 42.5123 131.073C42.739 130.759 42.8523 130.373 42.8523 129.913C42.8523 129.326 42.659 128.843 42.2723 128.463L43.0423 127.793C43.329 128.033 43.5456 128.336 43.6923 128.703C43.839 129.069 43.9123 129.483 43.9123 129.943C43.9123 130.529 43.7956 131.046 43.5623 131.493C43.329 131.939 43.0056 132.286 42.5923 132.533C42.1723 132.773 41.699 132.893 41.1723 132.893C40.6523 132.893 40.1856 132.776 39.7723 132.543C39.3523 132.303 39.0256 131.973 38.7923 131.553C38.559 131.133 38.4423 130.659 38.4423 130.133C38.4423 129.613 38.559 129.149 38.7923 128.743C39.019 128.329 39.3423 128.009 39.7623 127.783C40.1756 127.549 40.6556 127.433 41.2023 127.433ZM39.4423 130.133C39.4423 130.533 39.5623 130.873 39.8023 131.153C40.0356 131.426 40.349 131.593 40.7423 131.653L40.7423 128.623C40.3556 128.676 40.0423 128.839 39.8023 129.113C39.5623 129.386 39.4423 129.726 39.4423 130.133ZM38.5023 121.33L43.8423 123.62L43.8423 124.91L38.5023 127.2L38.5023 125.9L42.4623 124.24L38.5023 122.53L38.5023 121.33Z" fill="#6C6C6C" fill-opacity="0.46"/>
<path d="M81.2468 133.905L76.6068 133.915L80.4468 136.215L80.4468 136.795L76.6668 139.095L81.2468 139.095L81.2468 140.335L74.2468 140.335L74.2468 139.265L78.8868 136.485L74.2468 133.755L74.2468 132.685L81.2468 132.675L81.2468 133.905ZM75.8468 128.864C75.8468 128.077 76.0368 127.477 76.4168 127.064C76.7902 126.644 77.3568 126.434 78.1168 126.434L81.2468 126.434L81.2468 127.614L80.5968 127.614C80.8302 127.767 81.0102 127.987 81.1368 128.274C81.2568 128.554 81.3168 128.894 81.3168 129.294C81.3168 129.694 81.2502 130.044 81.1168 130.344C80.9768 130.644 80.7868 130.877 80.5468 131.044C80.3002 131.204 80.0235 131.284 79.7168 131.284C79.2368 131.284 78.8535 131.107 78.5668 130.754C78.2735 130.394 78.1268 129.83 78.1268 129.064L78.1268 127.684L78.0468 127.684C77.6735 127.684 77.3868 127.797 77.1868 128.024C76.9868 128.244 76.8868 128.574 76.8868 129.014C76.8868 129.314 76.9335 129.61 77.0268 129.904C77.1202 130.19 77.2502 130.434 77.4168 130.634L76.5068 131.124C76.2935 130.844 76.1302 130.507 76.0168 130.114C75.9035 129.72 75.8468 129.304 75.8468 128.864ZM80.4068 129.034C80.4068 128.72 80.3368 128.444 80.1968 128.204C80.0502 127.957 79.8435 127.784 79.5768 127.684L78.9568 127.684L78.9568 128.974C78.9568 129.694 79.1935 130.054 79.6668 130.054C79.8935 130.054 80.0735 129.964 80.2068 129.784C80.3402 129.604 80.4068 129.354 80.4068 129.034ZM76.6868 123.64C76.1268 123.28 75.8468 122.646 75.8468 121.74L77.0368 121.74C77.0168 121.846 77.0068 121.943 77.0068 122.03C77.0068 122.516 77.1502 122.896 77.4368 123.17C77.7168 123.443 78.1235 123.58 78.6568 123.58L81.2468 123.58L81.2468 124.83L75.9068 124.83L75.9068 123.64L76.6868 123.64Z" fill="#6C6C6C" fill-opacity="0.46"/>
<path d="M113.469 134.013L113.469 137.513L115.089 138.203L115.089 139.543L108.089 136.393L108.089 135.113L115.089 131.953L115.089 133.313L113.469 134.013ZM112.449 134.443L109.389 135.763L112.449 137.073L112.449 134.443ZM109.689 128.223C109.689 127.703 109.802 127.24 110.029 126.833C110.256 126.42 110.576 126.097 110.989 125.863C111.402 125.63 111.879 125.513 112.419 125.513C112.959 125.513 113.439 125.63 113.859 125.863C114.272 126.097 114.592 126.42 114.819 126.833C115.046 127.24 115.159 127.703 115.159 128.223C115.159 128.59 115.096 128.927 114.969 129.233C114.842 129.533 114.652 129.787 114.399 129.993L115.089 129.993L115.089 131.183L107.669 131.183L107.669 129.933L110.399 129.933C110.166 129.72 109.989 129.47 109.869 129.183C109.749 128.89 109.689 128.57 109.689 128.223ZM114.089 128.363C114.089 127.903 113.936 127.527 113.629 127.233C113.322 126.933 112.919 126.783 112.419 126.783C111.919 126.783 111.516 126.933 111.209 127.233C110.902 127.527 110.749 127.903 110.749 128.363C110.749 128.663 110.819 128.933 110.959 129.173C111.092 129.413 111.286 129.603 111.539 129.743C111.792 129.883 112.086 129.953 112.419 129.953C112.752 129.953 113.046 129.883 113.299 129.743C113.552 129.603 113.749 129.413 113.889 129.173C114.022 128.933 114.089 128.663 114.089 128.363ZM110.529 123.138C109.969 122.778 109.689 122.144 109.689 121.238L110.879 121.238C110.859 121.344 110.849 121.441 110.849 121.528C110.849 122.014 110.992 122.394 111.279 122.668C111.559 122.941 111.966 123.078 112.499 123.078L115.089 123.078L115.089 124.328L109.749 124.328L109.749 123.138L110.529 123.138Z" fill="#6C6C6C" fill-opacity="0.46"/>
<path d="M148.931 132.123L144.291 132.133L148.131 134.433L148.131 135.013L144.351 137.313L148.931 137.313L148.931 138.553L141.931 138.553L141.931 137.483L146.571 134.703L141.931 131.973L141.931 130.903L148.931 130.893L148.931 132.123ZM143.531 127.083C143.531 126.296 143.721 125.696 144.101 125.283C144.475 124.863 145.041 124.653 145.801 124.653L148.931 124.653L148.931 125.833L148.281 125.833C148.515 125.986 148.695 126.206 148.821 126.493C148.941 126.773 149.001 127.113 149.001 127.513C149.001 127.913 148.935 128.263 148.801 128.563C148.661 128.863 148.471 129.096 148.231 129.263C147.985 129.423 147.708 129.503 147.401 129.503C146.921 129.503 146.538 129.326 146.251 128.973C145.958 128.613 145.811 128.049 145.811 127.283L145.811 125.903L145.731 125.903C145.358 125.903 145.071 126.016 144.871 126.243C144.671 126.463 144.571 126.793 144.571 127.233C144.571 127.533 144.618 127.829 144.711 128.123C144.805 128.409 144.935 128.653 145.101 128.853L144.191 129.343C143.978 129.063 143.815 128.726 143.701 128.333C143.588 127.939 143.531 127.523 143.531 127.083ZM148.091 127.253C148.091 126.939 148.021 126.663 147.881 126.423C147.735 126.176 147.528 126.003 147.261 125.903L146.641 125.903L146.641 127.193C146.641 127.913 146.878 128.273 147.351 128.273C147.578 128.273 147.758 128.183 147.891 128.003C148.025 127.823 148.091 127.573 148.091 127.253ZM143.591 123.048L143.591 121.798L148.931 121.798L148.931 123.048L143.591 123.048ZM142.711 122.418C142.711 122.645 142.641 122.835 142.501 122.988C142.355 123.142 142.175 123.218 141.961 123.218C141.748 123.218 141.571 123.142 141.431 122.988C141.285 122.835 141.211 122.645 141.211 122.418C141.211 122.192 141.281 122.002 141.421 121.848C141.555 121.695 141.725 121.618 141.931 121.618C142.151 121.618 142.338 121.695 142.491 121.848C142.638 121.995 142.711 122.185 142.711 122.418Z" fill="#6C6C6C" fill-opacity="0.46"/>
<path d="M182.874 137.463C182.874 137.91 182.787 138.323 182.614 138.703C182.434 139.077 182.184 139.383 181.864 139.623L180.974 138.883C181.507 138.497 181.774 138.033 181.774 137.493C181.774 136.767 181.344 136.403 180.484 136.403L176.864 136.403L176.864 138.893L175.774 138.893L175.774 135.103L180.414 135.103C181.234 135.103 181.85 135.303 182.264 135.703C182.67 136.103 182.874 136.69 182.874 137.463ZM177.434 128.23L182.774 128.23L182.774 129.42L182.094 129.42C182.334 129.62 182.52 129.87 182.654 130.17C182.78 130.47 182.844 130.793 182.844 131.14C182.844 131.853 182.647 132.417 182.254 132.83C181.854 133.237 181.264 133.44 180.484 133.44L177.434 133.44L177.434 132.19L180.314 132.19C180.794 132.19 181.154 132.083 181.394 131.87C181.627 131.65 181.744 131.34 181.744 130.94C181.744 130.493 181.607 130.14 181.334 129.88C181.054 129.613 180.654 129.48 180.134 129.48L177.434 129.48L177.434 128.23ZM177.374 123.563C177.374 122.89 177.57 122.35 177.964 121.943C178.357 121.537 178.94 121.333 179.714 121.333L182.774 121.333L182.774 122.583L179.874 122.583C179.407 122.583 179.057 122.693 178.824 122.913C178.584 123.133 178.464 123.447 178.464 123.853C178.464 124.313 178.604 124.677 178.884 124.943C179.157 125.21 179.554 125.343 180.074 125.343L182.774 125.343L182.774 126.593L177.434 126.593L177.434 125.403L178.124 125.403C177.877 125.197 177.69 124.937 177.564 124.623C177.437 124.31 177.374 123.957 177.374 123.563Z" fill="#6C6C6C" fill-opacity="0.46"/>
<path d="M214.996 135.795L214.996 139.295L216.616 139.985L216.616 141.325L209.616 138.175L209.616 136.895L216.616 133.735L216.616 135.095L214.996 135.795ZM213.976 136.225L210.916 137.545L213.976 138.855L213.976 136.225ZM211.276 127.713L215.806 127.713C217.686 127.713 218.626 128.673 218.626 130.593C218.626 131.107 218.559 131.593 218.426 132.053C218.299 132.513 218.113 132.893 217.866 133.193L216.926 132.633C217.119 132.4 217.273 132.107 217.386 131.753C217.506 131.393 217.566 131.03 217.566 130.663C217.566 130.077 217.433 129.647 217.166 129.373C216.899 129.1 216.493 128.963 215.946 128.963L215.666 128.963C215.899 129.177 216.076 129.437 216.196 129.743C216.316 130.05 216.376 130.387 216.376 130.753C216.376 131.26 216.269 131.72 216.056 132.133C215.836 132.54 215.529 132.863 215.136 133.103C214.743 133.337 214.293 133.453 213.786 133.453C213.279 133.453 212.833 133.337 212.446 133.103C212.053 132.863 211.749 132.54 211.536 132.133C211.323 131.72 211.216 131.26 211.216 130.753C211.216 130.367 211.279 130.017 211.406 129.703C211.533 129.383 211.726 129.117 211.986 128.903L211.276 128.903L211.276 127.713ZM215.316 130.563C215.316 130.09 215.176 129.703 214.896 129.403C214.609 129.097 214.239 128.943 213.786 128.943C213.339 128.943 212.976 129.097 212.696 129.403C212.416 129.703 212.276 130.09 212.276 130.563C212.276 131.043 212.416 131.437 212.696 131.743C212.976 132.043 213.339 132.193 213.786 132.193C214.239 132.193 214.609 132.043 214.896 131.743C215.176 131.437 215.316 131.043 215.316 130.563ZM216.686 123.67C216.686 124.21 216.569 124.697 216.336 125.13C216.103 125.563 215.779 125.903 215.366 126.15C214.946 126.39 214.473 126.51 213.946 126.51C213.419 126.51 212.949 126.39 212.536 126.15C212.123 125.903 211.799 125.563 211.566 125.13C211.333 124.697 211.216 124.21 211.216 123.67C211.216 123.123 211.333 122.633 211.566 122.2C211.799 121.767 212.123 121.43 212.536 121.19C212.949 120.943 213.419 120.82 213.946 120.82C214.473 120.82 214.946 120.943 215.366 121.19C215.779 121.43 216.103 121.767 216.336 122.2C216.569 122.633 216.686 123.123 216.686 123.67ZM215.616 123.67C215.616 123.21 215.463 122.83 215.156 122.53C214.849 122.23 214.446 122.08 213.946 122.08C213.446 122.08 213.043 122.23 212.736 122.53C212.429 122.83 212.276 123.21 212.276 123.67C212.276 124.13 212.429 124.51 212.736 124.81C213.043 125.103 213.446 125.25 213.946 125.25C214.446 125.25 214.849 125.103 215.156 124.81C215.463 124.51 215.616 124.13 215.616 123.67Z" fill="#6C6C6C" fill-opacity="0.46"/>
<path d="M250.558 137.065C250.558 137.778 250.405 138.421 250.098 138.995C249.785 139.568 249.355 140.018 248.808 140.345C248.255 140.671 247.638 140.835 246.958 140.835C246.278 140.835 245.665 140.671 245.118 140.345C244.565 140.018 244.135 139.568 243.828 138.995C243.515 138.421 243.358 137.778 243.358 137.065C243.358 136.351 243.515 135.708 243.828 135.135C244.135 134.561 244.561 134.111 245.108 133.785C245.655 133.458 246.271 133.295 246.958 133.295C247.645 133.295 248.261 133.458 248.808 133.785C249.355 134.111 249.785 134.561 250.098 135.135C250.405 135.708 250.558 136.351 250.558 137.065ZM249.418 137.065C249.418 136.598 249.315 136.178 249.108 135.805C248.895 135.431 248.601 135.138 248.228 134.925C247.848 134.711 247.425 134.605 246.958 134.605C246.491 134.605 246.071 134.711 245.698 134.925C245.318 135.138 245.025 135.431 244.818 135.805C244.605 136.178 244.498 136.598 244.498 137.065C244.498 137.531 244.605 137.951 244.818 138.325C245.025 138.698 245.318 138.991 245.698 139.205C246.071 139.418 246.491 139.525 246.958 139.525C247.425 139.525 247.848 139.418 248.228 139.205C248.601 138.991 248.895 138.698 249.108 138.325C249.315 137.951 249.418 137.531 249.418 137.065ZM245.118 126.867L250.458 126.867L250.458 128.057L249.778 128.057C250.018 128.257 250.205 128.507 250.338 128.807C250.465 129.107 250.528 129.43 250.528 129.777C250.528 130.49 250.331 131.053 249.938 131.467C249.538 131.873 248.948 132.077 248.168 132.077L245.118 132.077L245.118 130.827L247.998 130.827C248.478 130.827 248.838 130.72 249.078 130.507C249.311 130.287 249.428 129.977 249.428 129.577C249.428 129.13 249.291 128.777 249.018 128.517C248.738 128.25 248.338 128.117 247.818 128.117L245.118 128.117L245.118 126.867ZM250.168 122.02C250.288 122.167 250.378 122.347 250.438 122.56C250.498 122.767 250.528 122.987 250.528 123.22C250.528 123.807 250.375 124.26 250.068 124.58C249.761 124.9 249.315 125.06 248.728 125.06L246.158 125.06L246.158 125.94L245.158 125.94L245.158 125.06L243.938 125.06L243.938 123.81L245.158 123.81L245.158 122.38L246.158 122.38L246.158 123.81L248.698 123.81C248.958 123.81 249.158 123.747 249.298 123.62C249.431 123.493 249.498 123.31 249.498 123.07C249.498 122.79 249.425 122.557 249.278 122.37L250.168 122.02Z" fill="#6C6C6C" fill-opacity="0.46"/>
<path d="M311.143 138.553L311.143 135.493C311.143 134.747 311.289 134.083 311.583 133.503C311.869 132.923 312.279 132.473 312.813 132.153C313.339 131.833 313.949 131.673 314.643 131.673C315.336 131.673 315.949 131.833 316.483 132.153C317.009 132.473 317.419 132.923 317.713 133.503C317.999 134.083 318.143 134.747 318.143 135.493L318.143 138.553L311.143 138.553ZM317.043 135.553C317.043 135.04 316.946 134.59 316.753 134.203C316.553 133.81 316.273 133.51 315.913 133.303C315.546 133.09 315.123 132.983 314.643 132.983C314.163 132.983 313.743 133.09 313.383 133.303C313.016 133.51 312.736 133.81 312.543 134.203C312.343 134.59 312.243 135.04 312.243 135.553L312.243 137.253L317.043 137.253L317.043 135.553ZM315.503 125.392C315.589 125.392 315.713 125.398 315.873 125.412L315.873 129.602C316.266 129.528 316.579 129.338 316.813 129.032C317.039 128.718 317.153 128.332 317.153 127.872C317.153 127.285 316.959 126.802 316.573 126.422L317.343 125.752C317.629 125.992 317.846 126.295 317.993 126.662C318.139 127.028 318.213 127.442 318.213 127.902C318.213 128.488 318.096 129.005 317.863 129.452C317.629 129.898 317.306 130.245 316.893 130.492C316.473 130.732 315.999 130.852 315.473 130.852C314.953 130.852 314.486 130.735 314.073 130.502C313.653 130.262 313.326 129.932 313.093 129.512C312.859 129.092 312.743 128.618 312.743 128.092C312.743 127.572 312.859 127.108 313.093 126.702C313.319 126.288 313.643 125.968 314.063 125.742C314.476 125.508 314.956 125.392 315.503 125.392ZM313.743 128.092C313.743 128.492 313.863 128.832 314.103 129.112C314.336 129.385 314.649 129.552 315.043 129.612L315.043 126.582C314.656 126.635 314.343 126.798 314.103 127.072C313.863 127.345 313.743 127.685 313.743 128.092ZM317.143 120.07L318.143 120.07L318.143 124.68L317.353 124.68L313.803 121.75L313.803 124.62L312.803 124.62L312.803 120.15L313.593 120.15L317.143 123.09L317.143 120.07Z" fill="#6C6C6C" fill-opacity="0.46"/>
<path d="M277.301 132.333L284.301 132.333L284.301 133.403L279.561 137.263L284.301 137.263L284.301 138.553L277.301 138.553L277.301 137.483L282.041 133.623L277.301 133.623L277.301 132.333ZM284.371 128.178C284.371 128.718 284.254 129.204 284.021 129.638C283.787 130.071 283.464 130.411 283.051 130.658C282.631 130.898 282.157 131.018 281.631 131.018C281.104 131.018 280.634 130.898 280.221 130.658C279.807 130.411 279.484 130.071 279.251 129.638C279.017 129.204 278.901 128.718 278.901 128.178C278.901 127.631 279.017 127.141 279.251 126.708C279.484 126.274 279.807 125.938 280.221 125.698C280.634 125.451 281.104 125.328 281.631 125.328C282.157 125.328 282.631 125.451 283.051 125.698C283.464 125.938 283.787 126.274 284.021 126.708C284.254 127.141 284.371 127.631 284.371 128.178ZM283.301 128.178C283.301 127.718 283.147 127.338 282.841 127.038C282.534 126.738 282.131 126.588 281.631 126.588C281.131 126.588 280.727 126.738 280.421 127.038C280.114 127.338 279.961 127.718 279.961 128.178C279.961 128.638 280.114 129.018 280.421 129.318C280.727 129.611 281.131 129.758 281.631 129.758C282.131 129.758 282.534 129.611 282.841 129.318C283.147 129.018 283.301 128.638 283.301 128.178ZM278.961 119.279L284.301 121.569L284.301 122.859L278.961 125.149L278.961 123.849L282.921 122.189L278.961 120.479L278.961 119.279Z" fill="#6C6C6C" fill-opacity="0.46"/>
<rect x="4.8692" y="31.7983" width="6" height="71.2468" fill="#81269D"/>
<rect x="38.2664" width="6" height="102.848" fill="#9139CA"/>
<rect x="75.7439" y="85.2334" width="6" height="17.8117" fill="#81269D"/>
</svg>
