<svg width="40" height="31" viewBox="0 0 40 31" fill="none" xmlns="http://www.w3.org/2000/svg">
<path d="M30.4646 30.9961C30.3189 30.9912 30.2979 30.989 30.3669 30.9858L30.4548 30.9816L30.3865 30.9787C29.6115 30.9465 28.7886 30.7989 27.9694 30.545C26.583 30.1154 25.2639 29.398 24.186 28.4874C23.7527 28.1214 23.2577 27.6116 22.9229 27.1865C22.0447 26.0715 21.5212 24.8231 21.378 23.503C21.3344 23.1011 21.3357 23.3612 21.3345 14.5702C21.3336 6.41418 21.3339 6.17654 21.3517 6.07898C21.4629 5.46789 21.9134 5.00709 22.4907 4.91392C22.5712 4.90093 22.8427 4.89939 24.5367 4.90217L26.4898 4.90544L26.5729 4.92682C26.8382 4.99516 27.0451 5.11415 27.2325 5.30611C27.4297 5.50823 27.5552 5.74269 27.6194 6.02918L27.6419 6.12922L27.6479 14.0031C27.6511 18.3338 27.657 21.8951 27.6608 21.9172C27.6646 21.9393 27.6744 22.007 27.6825 22.0677C27.7746 22.7594 28.1126 23.4325 28.6126 23.9205C29.0614 24.3584 29.606 24.6327 30.2302 24.7352L30.3669 24.7576H32.0125H33.6581L33.6633 15.4585C33.6681 7.0099 33.67 6.15242 33.6841 6.08381C33.7504 5.76116 33.8719 5.52048 34.0742 5.31097C34.2635 5.11487 34.5014 4.98198 34.7698 4.92241C34.8444 4.90585 34.9754 4.90474 36.832 4.90474H38.8145L38.9174 4.93164C39.2722 5.02436 39.5511 5.22579 39.7487 5.53204C39.8699 5.71989 39.9664 6.00615 39.9732 6.19829L39.9748 6.23963L39.9808 6.19447C39.9854 6.15972 39.9885 6.17803 39.994 6.27383C40.0032 6.43427 40.0012 21.8345 39.9921 22.0075C39.9877 22.0883 39.9839 22.117 39.982 22.0828C39.9798 22.0393 39.9772 22.051 39.9705 22.138C39.926 22.7194 39.7002 23.368 39.3435 23.9396C38.6892 24.9881 37.6685 25.7668 36.6418 26.0006C36.3793 26.0604 36.3797 26.0604 35.6245 26.0667C35.2396 26.0699 34.9209 26.0762 34.9165 26.0808C34.912 26.0854 34.9057 26.4784 34.9025 26.954C34.8964 27.8556 34.8956 27.8732 34.8501 28.1451C34.6075 29.5962 33.4938 30.6007 31.8075 30.8894C31.5298 30.937 31.1967 30.9727 30.9883 30.9774L30.9043 30.9793L30.9873 30.9856C31.0573 30.9909 31.0451 30.9922 30.9092 30.9939C30.8206 30.9948 30.7261 30.9973 30.6992 30.9991C30.6724 31.0011 30.5669 30.9997 30.4648 30.9961L30.4646 30.9961ZM30.9871 29.6705C31.8927 29.6266 32.5516 29.4121 33.0209 29.0085C33.3038 28.7652 33.508 28.4221 33.6035 28.0297C33.6575 27.8077 33.6568 27.8212 33.6604 26.9231L33.6639 26.0874L33.6383 26.0774C33.6218 26.071 33.0507 26.0675 32.0183 26.0675C30.6751 26.0675 30.3993 26.0652 30.2684 26.0524C28.3919 25.8702 26.8562 24.4094 26.491 22.4592C26.4643 22.3165 26.4425 22.1513 26.4268 21.9724C26.4199 21.894 26.4165 19.4129 26.4163 14.234C26.4161 10.0297 26.4122 6.58094 26.4076 6.54397C26.3905 6.4079 26.3174 6.29993 26.2032 6.24215L26.1387 6.20955H24.4929H22.8472L22.7858 6.23865C22.7079 6.27563 22.6285 6.36118 22.5965 6.44254L22.5737 6.5006L22.5715 8.39255C22.5702 9.43312 22.5731 13.1638 22.578 16.683C22.5876 23.6356 22.583 23.1169 22.6379 23.4579C22.8861 25.0004 23.8728 26.6145 25.2741 27.7704C26.3116 28.6262 27.5473 29.2186 28.8694 29.4939C29.561 29.6379 30.3321 29.7022 30.9872 29.6704L30.9871 29.6705ZM36.3513 24.7298C36.9421 24.5935 37.5359 24.1934 38.0249 23.602C38.4221 23.1217 38.6777 22.5665 38.7312 22.0678C38.739 21.9953 38.7412 19.8198 38.7391 14.229L38.7363 6.4906L38.7053 6.42334C38.6672 6.3408 38.602 6.2719 38.5282 6.23637L38.4726 6.20956H36.8222H35.1717L35.1137 6.23885C35.0069 6.29275 34.9355 6.38968 34.9138 6.5104C34.8989 6.59336 34.8986 24.7152 34.9136 24.7438C34.9238 24.7636 34.933 24.7638 35.5801 24.7601L36.2362 24.7564L36.3512 24.7298L36.3513 24.7298ZM1.1668 26.082C0.666943 25.9952 0.25696 25.6282 0.0925192 25.1205C0.059547 25.0186 0.0303797 24.8734 0.0277106 24.7978L0.0263098 24.7577L0.0201364 24.7978C0.0154927 24.828 0.0122185 24.8094 0.00691859 24.7226C-0.00244853 24.5691 -0.00223467 9.25059 0.00713851 9.02491C0.0126104 8.89315 0.0158523 8.86431 0.020117 8.90948L0.0257995 8.9697L0.0274555 8.90749C0.0296213 8.82588 0.0536904 8.63501 0.0784873 8.50299C0.288712 7.38376 1.06565 6.25106 2.09947 5.55656C2.56701 5.24249 3.04491 5.04533 3.54971 4.95828C3.66928 4.93766 3.71741 4.93605 4.37657 4.93062C4.76152 4.92735 5.08013 4.92109 5.0846 4.91651C5.08908 4.91193 5.09521 4.52123 5.09824 4.04832C5.10425 3.10992 5.10579 3.0808 5.16593 2.77196C5.24943 2.34317 5.41222 1.94252 5.63968 1.60601C5.85033 1.29437 6.14634 0.997906 6.46975 0.774676C7.10701 0.334813 7.96178 0.0752413 8.94539 0.0228837C9.07876 0.0157805 9.08689 0.0144384 9.01375 0.0114924C8.96149 0.00952837 9.00152 0.0060586 9.12185 0.0024579C9.22696 -0.000815475 9.40494 -0.000815467 9.51737 0.00243499C9.64625 0.00600296 9.68931 0.00934181 9.63389 0.0115022C9.55345 0.0147756 9.55883 0.0155612 9.69731 0.0225335C11.9242 0.134977 14.347 1.16721 16.0787 2.74131C16.2632 2.90898 16.6024 3.25356 16.7693 3.44287C17.5082 4.28083 18.0344 5.1924 18.343 6.16944C18.4987 6.6621 18.5847 7.09826 18.6439 7.69504C18.6594 7.85145 18.6695 12.0819 18.671 19.0016C18.672 22.855 18.6691 24.723 18.6621 24.7978C18.6018 25.4568 18.1299 25.9833 17.5101 26.0833C17.4297 26.0963 17.1582 26.0979 15.4642 26.0951L13.511 26.0918L13.428 26.0704C13.1627 26.0021 12.9558 25.8832 12.7683 25.6912C12.5689 25.4869 12.4474 25.2586 12.38 24.9612L12.3589 24.868L12.3534 16.9991C12.3491 10.9047 12.3452 9.11101 12.336 9.04494C12.2412 8.36338 12.0487 7.88806 11.6603 7.37717C11.5711 7.25974 11.3239 7.0072 11.1965 6.90318C10.7781 6.56182 10.3076 6.35026 9.77063 6.26209L9.63391 6.23963H7.9883H6.34274L6.3378 15.5338C6.33306 24.4592 6.33216 24.8315 6.31515 24.9178C6.25846 25.2054 6.13591 25.4548 5.95451 25.6518C5.72517 25.9008 5.43741 26.0497 5.11415 26.0868C5.05021 26.0941 4.41759 26.0972 3.13258 26.0965C1.59526 26.0956 1.23042 26.093 1.1668 26.0819V26.082ZM4.88002 24.7589C4.98341 24.7099 5.06315 24.6075 5.08661 24.4937C5.09468 24.4546 5.09758 22.0366 5.09758 15.3489C5.09758 7.52073 5.09567 6.25555 5.08376 6.2454C5.07338 6.23653 4.90727 6.2345 4.41724 6.23725L3.76454 6.24092L3.64733 6.26746C3.26781 6.35345 2.87999 6.55597 2.50323 6.86494C2.3749 6.97017 2.1277 7.21641 2.01199 7.35428C1.61775 7.82398 1.36858 8.32729 1.28181 8.82919C1.26528 8.92478 1.26446 9.29994 1.26446 16.7182V24.5068L1.29468 24.572C1.34218 24.6745 1.41985 24.7433 1.52814 24.7788C1.55923 24.789 1.89871 24.7912 3.19323 24.7897L4.81925 24.7877L4.88002 24.7589ZM17.2096 24.7609C17.2404 24.7461 17.2807 24.7221 17.2991 24.7077C17.3465 24.6705 17.3987 24.5872 17.4177 24.5182C17.4329 24.4635 17.4337 23.8874 17.4292 16.2428C17.424 7.37585 17.4276 7.9589 17.378 7.61727C17.2131 6.47852 16.6363 5.27846 15.7499 4.23022C15.6023 4.05568 15.1541 3.597 14.9807 3.44302C13.5577 2.17959 11.8183 1.45906 9.89755 1.33732C8.40014 1.24241 7.36698 1.52042 6.80063 2.17064C6.60517 2.39505 6.45229 2.70883 6.38656 3.02052C6.34179 3.23283 6.33787 3.32293 6.33787 4.13975V4.91039L6.36291 4.92017C6.37882 4.92639 6.96874 4.92996 7.97864 4.92996C9.00666 4.92996 9.61356 4.93369 9.69437 4.94053C10.8895 5.04153 11.9908 5.67788 12.7262 6.69238C13.2357 7.39527 13.531 8.23483 13.5837 9.13039C13.5904 9.24464 13.5938 11.8067 13.5939 16.8846C13.594 23.7406 13.5954 24.4733 13.6093 24.5226C13.6417 24.638 13.7292 24.7313 13.843 24.7716C13.9014 24.7923 13.9061 24.7924 15.5276 24.7901L17.1536 24.7879L17.2096 24.7609Z" fill="white"/>
</svg>
