<svg width="25" height="23" viewBox="0 0 25 23" fill="none" xmlns="http://www.w3.org/2000/svg">
<mask id="path-1-inside-1" fill="white">
<path d="M13.8255 2.69252C13.5044 1.33518 11.1142 0 6.93302 0C2.75185 0 0.361349 1.33518 0.0404888 2.69252C0.0171939 2.73903 0 2.78997 0 2.84755V3.00575V6.64428V6.80248V6.96068V10.441V10.5992V10.7574V14.5541C0 14.6054 0.0119248 14.6538 0.0324466 14.6968C0.359962 16.2456 3.29013 17.4017 6.93302 17.4017C10.5676 17.4017 13.493 16.2503 13.8314 14.7073C13.8536 14.662 13.866 14.6098 13.866 14.5541V10.7574V10.5992V10.441V6.96068V6.80248V6.64428V3.00575V2.84755C13.866 2.78997 13.8488 2.73903 13.8255 2.69252ZM13.2895 10.7527C13.2817 10.7909 13.2709 10.8289 13.2573 10.8675C13.2462 10.8988 13.2326 10.9302 13.2177 10.9615C13.1991 11.0004 13.1783 11.0393 13.1536 11.0782C13.1353 11.1077 13.1145 11.1368 13.0929 11.1659C13.0621 11.2073 13.0294 11.2488 12.9922 11.2899C12.9697 11.3149 12.9451 11.3396 12.9201 11.3646C12.8746 11.4098 12.8272 11.4547 12.7742 11.4994C12.7515 11.5187 12.7271 11.5373 12.703 11.5563C12.6403 11.6057 12.5748 11.6547 12.503 11.7028C12.4841 11.7158 12.4639 11.7281 12.4442 11.7408C12.3616 11.7939 12.2753 11.8468 12.1821 11.898C12.1702 11.9047 12.1577 11.911 12.1455 11.9173C12.0415 11.9733 11.9328 12.0284 11.8166 12.0815C11.8133 12.0831 11.81 12.0844 11.8067 12.086C11.1769 12.3729 10.3712 12.6143 9.43251 12.7725C9.4278 12.7732 9.42308 12.7738 9.41837 12.7747C9.23589 12.8054 9.0487 12.8326 8.85652 12.8567C8.82518 12.8605 8.79218 12.863 8.76056 12.8668C8.59278 12.8867 8.42306 12.9051 8.24835 12.9196C8.16848 12.9263 8.08473 12.9295 8.00348 12.9352C7.87203 12.944 7.74196 12.9538 7.60719 12.9592C7.38699 12.9671 7.16236 12.9722 6.93302 12.9722C6.70367 12.9722 6.47904 12.9671 6.25857 12.9583C6.1238 12.9529 5.99373 12.9427 5.86228 12.9342C5.78103 12.9288 5.69728 12.9253 5.61741 12.9187C5.4427 12.9041 5.27298 12.8858 5.1052 12.8659C5.07358 12.8621 5.04058 12.8595 5.00924 12.8557C4.81706 12.8317 4.62987 12.8042 4.44739 12.7738C4.44268 12.7732 4.43796 12.7725 4.43325 12.7716C3.49452 12.6134 2.6889 12.372 2.05911 12.085C2.05578 12.0837 2.05245 12.0822 2.04912 12.0806C1.93293 12.0274 1.82394 11.9724 1.72022 11.9164C1.7083 11.9097 1.69554 11.9034 1.68361 11.8971C1.59043 11.8458 1.50419 11.7933 1.42155 11.7398C1.40213 11.7272 1.38161 11.7148 1.36275 11.7018C1.29093 11.6538 1.22548 11.6047 1.16281 11.5554C1.13896 11.5364 1.11427 11.5177 1.09153 11.4984C1.03857 11.4538 0.991144 11.4089 0.945664 11.3636C0.920982 11.3389 0.896023 11.3143 0.87356 11.289C0.836399 11.2478 0.803676 11.2067 0.772893 11.1649C0.751262 11.1358 0.730463 11.1067 0.71216 11.0773C0.687755 11.0384 0.666956 10.9995 0.648099 10.9605C0.633123 10.9292 0.619812 10.8979 0.608442 10.8666C0.594853 10.8283 0.584038 10.79 0.576273 10.7517C0.566012 10.7014 0.554641 10.6502 0.554641 10.5992C0.554641 10.5635 0.558247 10.5277 0.563238 10.4923C0.570171 10.4445 0.566289 10.3967 0.554641 10.3515V8.00256C0.562406 8.01079 0.572113 8.0187 0.580155 8.02693C0.640611 8.08767 0.702176 8.14811 0.771506 8.20632C1.81617 9.10773 3.90523 9.80823 6.93302 9.80823C9.94805 9.80823 12.0318 9.11342 13.0809 8.2174C13.1647 8.14779 13.2401 8.07597 13.3111 8.00288L13.3114 8.00256V10.3515C13.2997 10.3967 13.2959 10.4445 13.3028 10.4923C13.3081 10.5277 13.3114 10.5635 13.3114 10.5992C13.3114 10.6502 13.3 10.7014 13.2895 10.7527ZM13.3114 4.20583V6.55474C13.2997 6.59999 13.2959 6.64776 13.3028 6.69554C13.3081 6.73098 13.3114 6.76673 13.3114 6.80248C13.3114 6.85342 13.3 6.90468 13.2895 6.95593C13.2817 6.99422 13.2709 7.03218 13.2573 7.07078C13.2462 7.10211 13.2326 7.13343 13.2177 7.16475C13.1991 7.20367 13.1783 7.24258 13.1536 7.2815C13.1353 7.31093 13.1145 7.34003 13.0929 7.36914C13.0621 7.41059 13.0294 7.45204 12.9922 7.49317C12.9697 7.51816 12.9451 7.54284 12.9201 7.56784C12.8746 7.61308 12.8272 7.65801 12.7742 7.70262C12.7515 7.72192 12.7271 7.74059 12.703 7.75957C12.6403 7.80893 12.5748 7.85797 12.503 7.90606C12.4841 7.91904 12.4639 7.93138 12.4442 7.94403C12.3616 7.99719 12.2753 8.05002 12.1821 8.10128C12.1702 8.10792 12.1577 8.11425 12.1455 8.12058C12.0415 8.17658 11.9328 8.23163 11.8166 8.28479C11.8133 8.28637 11.81 8.28764 11.8067 8.28922C11.1769 8.57619 10.3712 8.8176 9.43251 8.97579C9.4278 8.97643 9.42308 8.97706 9.41837 8.97801C9.23589 9.0087 9.0487 9.03591 8.85652 9.05995C8.82518 9.06375 8.79218 9.06628 8.76056 9.07008C8.59278 9.09001 8.42306 9.10836 8.24835 9.12292C8.16848 9.12956 8.08473 9.13272 8.00348 9.13842C7.87203 9.14728 7.74196 9.15709 7.60719 9.16247C7.38699 9.17038 7.16236 9.17544 6.93302 9.17544C6.70367 9.17544 6.47904 9.17038 6.25857 9.16152C6.1238 9.15614 5.99373 9.14601 5.86228 9.13747C5.78103 9.13209 5.69728 9.12861 5.61741 9.12197C5.4427 9.10741 5.27298 9.08906 5.1052 9.06913C5.07358 9.06533 5.04058 9.0628 5.00924 9.059C4.81706 9.03496 4.62987 9.00743 4.44739 8.97706C4.44268 8.97643 4.43796 8.97579 4.43325 8.97484C3.49452 8.81665 2.6889 8.57524 2.05911 8.28827C2.05578 8.287 2.05245 8.28542 2.04912 8.28384C1.93293 8.23068 1.82394 8.17563 1.72022 8.11963C1.7083 8.11299 1.69554 8.10666 1.68361 8.10033C1.59043 8.04907 1.50419 7.99655 1.42155 7.94308C1.40213 7.93043 1.38161 7.91809 1.36275 7.90511C1.29093 7.85702 1.22548 7.80798 1.16281 7.75862C1.13896 7.73964 1.11427 7.72097 1.09153 7.70167C1.03857 7.65706 0.991144 7.61213 0.945664 7.56689C0.920982 7.54221 0.896023 7.51753 0.87356 7.49222C0.836399 7.45109 0.803676 7.40996 0.772893 7.36819C0.751262 7.33908 0.730463 7.30998 0.71216 7.28055C0.687755 7.24164 0.666956 7.20272 0.648099 7.1638C0.633123 7.13248 0.619812 7.10116 0.608442 7.06983C0.594853 7.03155 0.584038 6.99327 0.576273 6.95498C0.566012 6.90468 0.554641 6.85342 0.554641 6.80248C0.554641 6.76673 0.558247 6.73098 0.563238 6.69554C0.570171 6.64776 0.566289 6.59999 0.554641 6.55474V4.20583C0.58792 4.24032 0.625913 4.27417 0.661965 4.30834C0.681932 4.32733 0.700512 4.34631 0.721589 4.36529C0.804785 4.43996 0.894637 4.51368 0.991976 4.5855C1.01222 4.60037 1.03496 4.61493 1.05604 4.6298C1.13757 4.6877 1.22382 4.74433 1.3145 4.80002C1.34806 4.82059 1.38161 4.84083 1.41628 4.86108C1.5175 4.91993 1.62371 4.9772 1.73547 5.03257C1.75378 5.04175 1.77042 5.05124 1.789 5.0601C1.91906 5.12306 2.05717 5.18317 2.20082 5.24139C2.24047 5.25753 2.28207 5.27271 2.32284 5.28853C2.43709 5.33251 2.55523 5.37459 2.67753 5.41541C2.72163 5.42996 2.76489 5.44515 2.81009 5.45907C2.97232 5.51033 3.13983 5.55905 3.31565 5.60398C3.33977 5.61031 3.36584 5.61537 3.39025 5.62138C3.54527 5.65998 3.70611 5.69573 3.8714 5.72927C3.92742 5.74066 3.98427 5.75142 4.0414 5.76218C4.19864 5.7916 4.36059 5.81849 4.52671 5.84317C4.56941 5.8495 4.61018 5.85678 4.65344 5.86279C4.85977 5.89126 5.07331 5.91563 5.29267 5.93651C5.34674 5.94157 5.40304 5.94537 5.45795 5.9498C5.63349 5.96435 5.81292 5.97637 5.99651 5.98587C6.06334 5.98935 6.1299 5.99283 6.19812 5.99567C6.43717 6.00485 6.68066 6.01149 6.93302 6.01149C7.18538 6.01149 7.42887 6.00485 7.66792 5.99567C7.73586 5.99283 7.80242 5.98935 7.86953 5.98587C8.05312 5.97637 8.23254 5.96435 8.40809 5.9498C8.463 5.94505 8.51902 5.94157 8.57337 5.93651C8.79273 5.91594 9.00627 5.89126 9.2126 5.86279C9.25586 5.85678 9.29662 5.8495 9.33933 5.84317C9.50545 5.81849 9.66712 5.7916 9.82464 5.76218C9.88177 5.75142 9.93862 5.74066 9.99464 5.72927C10.1599 5.69573 10.3208 5.65998 10.4758 5.62138C10.5002 5.61537 10.5263 5.60999 10.5504 5.60398C10.7262 5.55905 10.8937 5.51001 11.0559 5.45907C11.1011 5.44483 11.1444 5.42996 11.1885 5.41541C11.3108 5.37459 11.4289 5.33251 11.5432 5.28853C11.584 5.27271 11.6256 5.25753 11.6652 5.24139C11.8089 5.18317 11.9473 5.12306 12.077 5.0601C12.0956 5.05124 12.1123 5.04175 12.1306 5.03257C12.2423 4.97688 12.3485 4.91993 12.4498 4.86108C12.4844 4.84083 12.5183 4.82059 12.5515 4.80002C12.6422 4.74465 12.7285 4.68802 12.81 4.6298C12.8311 4.61493 12.8538 4.60037 12.8741 4.5855C12.9714 4.51368 13.0613 4.44028 13.1444 4.36529C13.1652 4.34631 13.1838 4.32733 13.2041 4.30834C13.2401 4.27417 13.2781 4.24032 13.3114 4.20583ZM6.93302 0.632789C10.6921 0.632789 13.3114 1.88318 13.3114 3.00575C13.3114 4.12831 10.6921 5.37871 6.93302 5.37871C3.17394 5.37871 0.554641 4.12831 0.554641 3.00575C0.554641 1.88318 3.17394 0.632789 6.93302 0.632789ZM13.3114 14.4602C13.3075 14.4741 13.3047 14.4883 13.3025 14.5029C13.1453 15.5973 10.5482 16.7689 6.93302 16.7689C3.31787 16.7689 0.720757 15.5973 0.563516 14.5029C0.561297 14.4887 0.558247 14.4747 0.554641 14.4614V11.7993C0.562406 11.8075 0.572113 11.8154 0.580155 11.8237C0.640611 11.8844 0.702176 11.9448 0.771506 12.0031C1.81617 12.9045 3.90523 13.605 6.93302 13.605C9.94805 13.605 12.0318 12.9102 13.0809 12.0141C13.1647 11.9445 13.2401 11.8727 13.3111 11.7996L13.3114 11.7993V14.4602V14.4602Z"/>
</mask>
<path d="M13.8255 2.69252C13.5044 1.33518 11.1142 0 6.93302 0C2.75185 0 0.361349 1.33518 0.0404888 2.69252C0.0171939 2.73903 0 2.78997 0 2.84755V3.00575V6.64428V6.80248V6.96068V10.441V10.5992V10.7574V14.5541C0 14.6054 0.0119248 14.6538 0.0324466 14.6968C0.359962 16.2456 3.29013 17.4017 6.93302 17.4017C10.5676 17.4017 13.493 16.2503 13.8314 14.7073C13.8536 14.662 13.866 14.6098 13.866 14.5541V10.7574V10.5992V10.441V6.96068V6.80248V6.64428V3.00575V2.84755C13.866 2.78997 13.8488 2.73903 13.8255 2.69252ZM13.2895 10.7527C13.2817 10.7909 13.2709 10.8289 13.2573 10.8675C13.2462 10.8988 13.2326 10.9302 13.2177 10.9615C13.1991 11.0004 13.1783 11.0393 13.1536 11.0782C13.1353 11.1077 13.1145 11.1368 13.0929 11.1659C13.0621 11.2073 13.0294 11.2488 12.9922 11.2899C12.9697 11.3149 12.9451 11.3396 12.9201 11.3646C12.8746 11.4098 12.8272 11.4547 12.7742 11.4994C12.7515 11.5187 12.7271 11.5373 12.703 11.5563C12.6403 11.6057 12.5748 11.6547 12.503 11.7028C12.4841 11.7158 12.4639 11.7281 12.4442 11.7408C12.3616 11.7939 12.2753 11.8468 12.1821 11.898C12.1702 11.9047 12.1577 11.911 12.1455 11.9173C12.0415 11.9733 11.9328 12.0284 11.8166 12.0815C11.8133 12.0831 11.81 12.0844 11.8067 12.086C11.1769 12.3729 10.3712 12.6143 9.43251 12.7725C9.4278 12.7732 9.42308 12.7738 9.41837 12.7747C9.23589 12.8054 9.0487 12.8326 8.85652 12.8567C8.82518 12.8605 8.79218 12.863 8.76056 12.8668C8.59278 12.8867 8.42306 12.9051 8.24835 12.9196C8.16848 12.9263 8.08473 12.9295 8.00348 12.9352C7.87203 12.944 7.74196 12.9538 7.60719 12.9592C7.38699 12.9671 7.16236 12.9722 6.93302 12.9722C6.70367 12.9722 6.47904 12.9671 6.25857 12.9583C6.1238 12.9529 5.99373 12.9427 5.86228 12.9342C5.78103 12.9288 5.69728 12.9253 5.61741 12.9187C5.4427 12.9041 5.27298 12.8858 5.1052 12.8659C5.07358 12.8621 5.04058 12.8595 5.00924 12.8557C4.81706 12.8317 4.62987 12.8042 4.44739 12.7738C4.44268 12.7732 4.43796 12.7725 4.43325 12.7716C3.49452 12.6134 2.6889 12.372 2.05911 12.085C2.05578 12.0837 2.05245 12.0822 2.04912 12.0806C1.93293 12.0274 1.82394 11.9724 1.72022 11.9164C1.7083 11.9097 1.69554 11.9034 1.68361 11.8971C1.59043 11.8458 1.50419 11.7933 1.42155 11.7398C1.40213 11.7272 1.38161 11.7148 1.36275 11.7018C1.29093 11.6538 1.22548 11.6047 1.16281 11.5554C1.13896 11.5364 1.11427 11.5177 1.09153 11.4984C1.03857 11.4538 0.991144 11.4089 0.945664 11.3636C0.920982 11.3389 0.896023 11.3143 0.87356 11.289C0.836399 11.2478 0.803676 11.2067 0.772893 11.1649C0.751262 11.1358 0.730463 11.1067 0.71216 11.0773C0.687755 11.0384 0.666956 10.9995 0.648099 10.9605C0.633123 10.9292 0.619812 10.8979 0.608442 10.8666C0.594853 10.8283 0.584038 10.79 0.576273 10.7517C0.566012 10.7014 0.554641 10.6502 0.554641 10.5992C0.554641 10.5635 0.558247 10.5277 0.563238 10.4923C0.570171 10.4445 0.566289 10.3967 0.554641 10.3515V8.00256C0.562406 8.01079 0.572113 8.0187 0.580155 8.02693C0.640611 8.08767 0.702176 8.14811 0.771506 8.20632C1.81617 9.10773 3.90523 9.80823 6.93302 9.80823C9.94805 9.80823 12.0318 9.11342 13.0809 8.2174C13.1647 8.14779 13.2401 8.07597 13.3111 8.00288L13.3114 8.00256V10.3515C13.2997 10.3967 13.2959 10.4445 13.3028 10.4923C13.3081 10.5277 13.3114 10.5635 13.3114 10.5992C13.3114 10.6502 13.3 10.7014 13.2895 10.7527ZM13.3114 4.20583V6.55474C13.2997 6.59999 13.2959 6.64776 13.3028 6.69554C13.3081 6.73098 13.3114 6.76673 13.3114 6.80248C13.3114 6.85342 13.3 6.90468 13.2895 6.95593C13.2817 6.99422 13.2709 7.03218 13.2573 7.07078C13.2462 7.10211 13.2326 7.13343 13.2177 7.16475C13.1991 7.20367 13.1783 7.24258 13.1536 7.2815C13.1353 7.31093 13.1145 7.34003 13.0929 7.36914C13.0621 7.41059 13.0294 7.45204 12.9922 7.49317C12.9697 7.51816 12.9451 7.54284 12.9201 7.56784C12.8746 7.61308 12.8272 7.65801 12.7742 7.70262C12.7515 7.72192 12.7271 7.74059 12.703 7.75957C12.6403 7.80893 12.5748 7.85797 12.503 7.90606C12.4841 7.91904 12.4639 7.93138 12.4442 7.94403C12.3616 7.99719 12.2753 8.05002 12.1821 8.10128C12.1702 8.10792 12.1577 8.11425 12.1455 8.12058C12.0415 8.17658 11.9328 8.23163 11.8166 8.28479C11.8133 8.28637 11.81 8.28764 11.8067 8.28922C11.1769 8.57619 10.3712 8.8176 9.43251 8.97579C9.4278 8.97643 9.42308 8.97706 9.41837 8.97801C9.23589 9.0087 9.0487 9.03591 8.85652 9.05995C8.82518 9.06375 8.79218 9.06628 8.76056 9.07008C8.59278 9.09001 8.42306 9.10836 8.24835 9.12292C8.16848 9.12956 8.08473 9.13272 8.00348 9.13842C7.87203 9.14728 7.74196 9.15709 7.60719 9.16247C7.38699 9.17038 7.16236 9.17544 6.93302 9.17544C6.70367 9.17544 6.47904 9.17038 6.25857 9.16152C6.1238 9.15614 5.99373 9.14601 5.86228 9.13747C5.78103 9.13209 5.69728 9.12861 5.61741 9.12197C5.4427 9.10741 5.27298 9.08906 5.1052 9.06913C5.07358 9.06533 5.04058 9.0628 5.00924 9.059C4.81706 9.03496 4.62987 9.00743 4.44739 8.97706C4.44268 8.97643 4.43796 8.97579 4.43325 8.97484C3.49452 8.81665 2.6889 8.57524 2.05911 8.28827C2.05578 8.287 2.05245 8.28542 2.04912 8.28384C1.93293 8.23068 1.82394 8.17563 1.72022 8.11963C1.7083 8.11299 1.69554 8.10666 1.68361 8.10033C1.59043 8.04907 1.50419 7.99655 1.42155 7.94308C1.40213 7.93043 1.38161 7.91809 1.36275 7.90511C1.29093 7.85702 1.22548 7.80798 1.16281 7.75862C1.13896 7.73964 1.11427 7.72097 1.09153 7.70167C1.03857 7.65706 0.991144 7.61213 0.945664 7.56689C0.920982 7.54221 0.896023 7.51753 0.87356 7.49222C0.836399 7.45109 0.803676 7.40996 0.772893 7.36819C0.751262 7.33908 0.730463 7.30998 0.71216 7.28055C0.687755 7.24164 0.666956 7.20272 0.648099 7.1638C0.633123 7.13248 0.619812 7.10116 0.608442 7.06983C0.594853 7.03155 0.584038 6.99327 0.576273 6.95498C0.566012 6.90468 0.554641 6.85342 0.554641 6.80248C0.554641 6.76673 0.558247 6.73098 0.563238 6.69554C0.570171 6.64776 0.566289 6.59999 0.554641 6.55474V4.20583C0.58792 4.24032 0.625913 4.27417 0.661965 4.30834C0.681932 4.32733 0.700512 4.34631 0.721589 4.36529C0.804785 4.43996 0.894637 4.51368 0.991976 4.5855C1.01222 4.60037 1.03496 4.61493 1.05604 4.6298C1.13757 4.6877 1.22382 4.74433 1.3145 4.80002C1.34806 4.82059 1.38161 4.84083 1.41628 4.86108C1.5175 4.91993 1.62371 4.9772 1.73547 5.03257C1.75378 5.04175 1.77042 5.05124 1.789 5.0601C1.91906 5.12306 2.05717 5.18317 2.20082 5.24139C2.24047 5.25753 2.28207 5.27271 2.32284 5.28853C2.43709 5.33251 2.55523 5.37459 2.67753 5.41541C2.72163 5.42996 2.76489 5.44515 2.81009 5.45907C2.97232 5.51033 3.13983 5.55905 3.31565 5.60398C3.33977 5.61031 3.36584 5.61537 3.39025 5.62138C3.54527 5.65998 3.70611 5.69573 3.8714 5.72927C3.92742 5.74066 3.98427 5.75142 4.0414 5.76218C4.19864 5.7916 4.36059 5.81849 4.52671 5.84317C4.56941 5.8495 4.61018 5.85678 4.65344 5.86279C4.85977 5.89126 5.07331 5.91563 5.29267 5.93651C5.34674 5.94157 5.40304 5.94537 5.45795 5.9498C5.63349 5.96435 5.81292 5.97637 5.99651 5.98587C6.06334 5.98935 6.1299 5.99283 6.19812 5.99567C6.43717 6.00485 6.68066 6.01149 6.93302 6.01149C7.18538 6.01149 7.42887 6.00485 7.66792 5.99567C7.73586 5.99283 7.80242 5.98935 7.86953 5.98587C8.05312 5.97637 8.23254 5.96435 8.40809 5.9498C8.463 5.94505 8.51902 5.94157 8.57337 5.93651C8.79273 5.91594 9.00627 5.89126 9.2126 5.86279C9.25586 5.85678 9.29662 5.8495 9.33933 5.84317C9.50545 5.81849 9.66712 5.7916 9.82464 5.76218C9.88177 5.75142 9.93862 5.74066 9.99464 5.72927C10.1599 5.69573 10.3208 5.65998 10.4758 5.62138C10.5002 5.61537 10.5263 5.60999 10.5504 5.60398C10.7262 5.55905 10.8937 5.51001 11.0559 5.45907C11.1011 5.44483 11.1444 5.42996 11.1885 5.41541C11.3108 5.37459 11.4289 5.33251 11.5432 5.28853C11.584 5.27271 11.6256 5.25753 11.6652 5.24139C11.8089 5.18317 11.9473 5.12306 12.077 5.0601C12.0956 5.05124 12.1123 5.04175 12.1306 5.03257C12.2423 4.97688 12.3485 4.91993 12.4498 4.86108C12.4844 4.84083 12.5183 4.82059 12.5515 4.80002C12.6422 4.74465 12.7285 4.68802 12.81 4.6298C12.8311 4.61493 12.8538 4.60037 12.8741 4.5855C12.9714 4.51368 13.0613 4.44028 13.1444 4.36529C13.1652 4.34631 13.1838 4.32733 13.2041 4.30834C13.2401 4.27417 13.2781 4.24032 13.3114 4.20583ZM6.93302 0.632789C10.6921 0.632789 13.3114 1.88318 13.3114 3.00575C13.3114 4.12831 10.6921 5.37871 6.93302 5.37871C3.17394 5.37871 0.554641 4.12831 0.554641 3.00575C0.554641 1.88318 3.17394 0.632789 6.93302 0.632789ZM13.3114 14.4602C13.3075 14.4741 13.3047 14.4883 13.3025 14.5029C13.1453 15.5973 10.5482 16.7689 6.93302 16.7689C3.31787 16.7689 0.720757 15.5973 0.563516 14.5029C0.561297 14.4887 0.558247 14.4747 0.554641 14.4614V11.7993C0.562406 11.8075 0.572113 11.8154 0.580155 11.8237C0.640611 11.8844 0.702176 11.9448 0.771506 12.0031C1.81617 12.9045 3.90523 13.605 6.93302 13.605C9.94805 13.605 12.0318 12.9102 13.0809 12.0141C13.1647 11.9445 13.2401 11.8727 13.3111 11.7996L13.3114 11.7993V14.4602V14.4602Z" fill="#CCCCCC" stroke="#CCCCCC" stroke-width="4" mask="url(#path-1-inside-1)"/>
<ellipse cx="15.1659" cy="12.0845" rx="8.23296" ry="9.18423" fill="white"/>
<path d="M15.166 1.93353C10.143 1.93353 6.06641 6.48117 6.06641 12.0845C6.06641 17.6879 10.143 22.2355 15.166 22.2355C20.189 22.2355 24.2656 17.6879 24.2656 12.0845C24.2656 6.48117 20.189 1.93353 15.166 1.93353ZM15.166 20.2053C11.1531 20.2053 7.88632 16.5611 7.88632 12.0845C7.88632 7.60793 11.1531 3.96373 15.166 3.96373C19.1789 3.96373 22.4457 7.60793 22.4457 12.0845C22.4457 16.5611 19.1789 20.2053 15.166 20.2053ZM15.4481 11.2115C13.8375 10.7547 13.3188 10.2573 13.3188 9.51632C13.3188 8.66364 14.0376 8.06473 15.2297 8.06473C16.4854 8.06473 16.9586 8.73469 16.995 9.72949H18.551C18.5055 8.36926 17.7594 7.12068 16.2852 6.71465V4.97883H14.165V6.69434C12.791 7.01917 11.69 8.01397 11.69 9.54677C11.69 11.3638 13.0458 12.2774 15.0204 12.8052C16.7948 13.2722 17.1497 13.9726 17.1497 14.7035C17.1497 15.2415 16.7948 16.1145 15.2388 16.1145C13.7829 16.1145 13.2096 15.3836 13.1277 14.4497H11.5626C11.6536 16.1754 12.8001 17.1499 14.165 17.4645V19.1902H16.2943V17.495C17.6775 17.2006 18.7694 16.3175 18.7785 14.6832C18.7694 12.45 17.0496 11.6785 15.4481 11.2115V11.2115Z" fill="#CCCCCC"/>
</svg>
