<svg width="19" height="19" viewBox="0 0 19 19" fill="none" xmlns="http://www.w3.org/2000/svg">
<path d="M9.5 0C4.256 0 0 4.256 0 9.5C0 14.744 4.256 19 9.5 19C14.744 19 19 14.744 19 9.5C19 4.256 14.744 0 9.5 0ZM9.5 17.1C5.3105 17.1 1.9 13.6895 1.9 9.5C1.9 5.3105 5.3105 1.9 9.5 1.9C13.6895 1.9 17.1 5.3105 17.1 9.5C17.1 13.6895 13.6895 17.1 9.5 17.1ZM9.7945 8.683C8.113 8.2555 7.5715 7.79 7.5715 7.0965C7.5715 6.2985 8.322 5.738 9.5665 5.738C10.8775 5.738 11.3715 6.365 11.4095 7.296H13.034C12.9865 6.023 12.2075 4.8545 10.6685 4.4745V2.85H8.455V4.4555C7.0205 4.7595 5.871 5.6905 5.871 7.125C5.871 8.8255 7.2865 9.6805 9.348 10.1745C11.2005 10.6115 11.571 11.267 11.571 11.951C11.571 12.4545 11.2005 13.2715 9.576 13.2715C8.056 13.2715 7.4575 12.5875 7.372 11.7135H5.738C5.833 13.3285 7.03 14.2405 8.455 14.535V16.15H10.678V14.5635C12.122 14.288 13.262 13.4615 13.2715 11.932C13.262 9.842 11.4665 9.12 9.7945 8.683Z" fill="#6C6C6C" fill-opacity="0.6"/>
<path d="M14.8833 1.26351L14.8833 5.06668L15.5167 5.06668L15.5167 1.26351L16.4667 1.26351L15.2 1.42497e-05L13.9333 1.26351L14.8833 1.26351Z" fill="#6C6C6C" fill-opacity="0.6"/>
</svg>
