<svg width="25" height="21" viewBox="0 0 25 21" fill="none" xmlns="http://www.w3.org/2000/svg">
<mask id="path-1-inside-1" fill="white">
<path d="M14.244 2.48669C13.9131 1.23312 11.4506 0 7.14286 0C2.83514 0 0.372286 1.23312 0.0417143 2.48669C0.0177143 2.52964 0 2.57669 0 2.62987V2.77597V6.13636V6.28247V6.42857V9.64286V9.78896V9.93506V13.4416C0 13.4889 0.0122857 13.5336 0.0334286 13.5733C0.370857 15.0037 3.38971 16.0714 7.14286 16.0714C10.8874 16.0714 13.9014 15.0081 14.25 13.583C14.2729 13.5412 14.2857 13.493 14.2857 13.4416V9.93506V9.78896V9.64286V6.42857V6.28247V6.13636V2.77597V2.62987C14.2857 2.57669 14.268 2.52964 14.244 2.48669ZM13.6917 9.93068C13.6837 9.96604 13.6726 10.0011 13.6586 10.0368C13.6471 10.0657 13.6331 10.0946 13.6177 10.1235C13.5986 10.1595 13.5771 10.1954 13.5517 10.2314C13.5329 10.2585 13.5114 10.2854 13.4891 10.3123C13.4574 10.3506 13.4237 10.3889 13.3854 10.4269C13.3623 10.4499 13.3369 10.4727 13.3111 10.4958C13.2643 10.5376 13.2154 10.5791 13.1609 10.6203C13.1374 10.6381 13.1123 10.6554 13.0874 10.6729C13.0229 10.7185 12.9554 10.7638 12.8814 10.8082C12.862 10.8202 12.8411 10.8316 12.8209 10.8432C12.7357 10.8923 12.6469 10.9411 12.5509 10.9885C12.5386 10.9946 12.5257 11.0005 12.5131 11.0063C12.406 11.058 12.294 11.1089 12.1743 11.158C12.1709 11.1594 12.1674 11.1606 12.164 11.162C11.5151 11.4271 10.6851 11.65 9.718 11.7961C9.71314 11.7967 9.70829 11.7973 9.70343 11.7982C9.51543 11.8265 9.32257 11.8517 9.12457 11.8739C9.09229 11.8774 9.05829 11.8797 9.02571 11.8832C8.85286 11.9016 8.678 11.9186 8.498 11.932C8.41571 11.9381 8.32943 11.9411 8.24572 11.9463C8.11029 11.9545 7.97629 11.9636 7.83743 11.9685C7.61057 11.9758 7.37914 11.9805 7.14286 11.9805C6.90657 11.9805 6.67514 11.9758 6.448 11.9677C6.30914 11.9627 6.17514 11.9533 6.03971 11.9455C5.956 11.9405 5.86971 11.9373 5.78743 11.9311C5.60743 11.9177 5.43257 11.9007 5.25972 11.8823C5.22714 11.8788 5.19314 11.8765 5.16086 11.873C4.96286 11.8508 4.77 11.8254 4.582 11.7973C4.57714 11.7967 4.57229 11.7961 4.56743 11.7953C3.60029 11.6492 2.77029 11.4262 2.12143 11.1612C2.118 11.16 2.11457 11.1585 2.11114 11.1571C1.99143 11.108 1.87914 11.0571 1.77229 11.0054C1.76 10.9993 1.74686 10.9934 1.73457 10.9876C1.63857 10.9403 1.54971 10.8918 1.46457 10.8424C1.44457 10.8307 1.42343 10.8193 1.404 10.8073C1.33 10.7629 1.26257 10.7176 1.198 10.672C1.17343 10.6545 1.148 10.6372 1.12457 10.6194C1.07 10.5782 1.02114 10.5367 0.974286 10.4949C0.948857 10.4721 0.923143 10.4494 0.9 10.426C0.861714 10.388 0.828 10.35 0.796286 10.3114C0.774 10.2845 0.752571 10.2577 0.733714 10.2305C0.708571 10.1945 0.687143 10.1586 0.667714 10.1227C0.652286 10.0937 0.638571 10.0648 0.626857 10.0359C0.612857 10.0005 0.601714 9.96516 0.593714 9.9298C0.583143 9.88334 0.571429 9.83601 0.571429 9.78896C0.571429 9.75594 0.575143 9.72292 0.580286 9.69019C0.587429 9.64607 0.583429 9.60195 0.571429 9.56016V7.39081C0.579429 7.39841 0.589429 7.40571 0.597714 7.41331C0.66 7.46942 0.723429 7.52523 0.794857 7.57899C1.87114 8.41149 4.02343 9.05844 7.14286 9.05844C10.2491 9.05844 12.396 8.41675 13.4769 7.58922C13.5631 7.52493 13.6409 7.4586 13.714 7.3911L13.7143 9.56016C13.7023 9.60195 13.6983 9.64607 13.7054 9.69019C13.7109 9.72292 13.7143 9.75594 13.7143 9.78896C13.7143 9.83601 13.7026 9.88334 13.6917 9.93068ZM13.7143 3.88432V6.05367C13.7023 6.09545 13.6983 6.13958 13.7054 6.1837C13.7109 6.21643 13.7143 6.24945 13.7143 6.28247C13.7143 6.32951 13.7026 6.37685 13.6917 6.42419C13.6837 6.45955 13.6726 6.49461 13.6586 6.53026C13.6471 6.55919 13.6331 6.58812 13.6177 6.61705C13.5986 6.65299 13.5771 6.68893 13.5517 6.72487C13.5329 6.75205 13.5114 6.77893 13.4891 6.80581C13.4574 6.84409 13.4237 6.88237 13.3854 6.92036C13.3623 6.94344 13.3369 6.96623 13.3111 6.98932C13.2643 7.0311 13.2154 7.0726 13.1609 7.1138C13.1374 7.13162 13.1123 7.14886 13.0874 7.1664C13.0229 7.21198 12.9554 7.25727 12.8814 7.30169C12.862 7.31367 12.8411 7.32506 12.8209 7.33675C12.7357 7.38584 12.6469 7.43464 12.5509 7.48198C12.5386 7.48812 12.5257 7.49396 12.5131 7.4998C12.406 7.55153 12.294 7.60237 12.1743 7.65146C12.1709 7.65292 12.1674 7.65409 12.164 7.65555C11.5151 7.92058 10.6851 8.14354 9.718 8.28964C9.71314 8.29023 9.70829 8.29081 9.70343 8.29169C9.51543 8.32003 9.32257 8.34516 9.12457 8.36737C9.09229 8.37088 9.05829 8.37321 9.02571 8.37672C8.85286 8.39513 8.678 8.41208 8.498 8.42552C8.41571 8.43166 8.32943 8.43458 8.24572 8.43984C8.11029 8.44802 7.97629 8.45708 7.83743 8.46204C7.61057 8.46935 7.37914 8.47403 7.14286 8.47403C6.90657 8.47403 6.67514 8.46935 6.448 8.46117C6.30914 8.4562 6.17514 8.44685 6.03971 8.43896C5.956 8.43399 5.86971 8.43078 5.78743 8.42464C5.60743 8.4112 5.43257 8.39425 5.25972 8.37584C5.22714 8.37234 5.19314 8.37 5.16086 8.36649C4.96286 8.34429 4.77 8.31886 4.582 8.29081C4.57714 8.29023 4.57229 8.28964 4.56743 8.28876C3.60029 8.14266 2.77029 7.91971 2.12143 7.65467C2.118 7.65351 2.11457 7.65204 2.11114 7.65058C1.99143 7.60149 1.87914 7.55065 1.77229 7.49893C1.76 7.49279 1.74686 7.48695 1.73457 7.4811C1.63857 7.43377 1.54971 7.38526 1.46457 7.33588C1.44457 7.32419 1.42343 7.31279 1.404 7.30081C1.33 7.2564 1.26257 7.2111 1.198 7.16552C1.17343 7.14799 1.148 7.13075 1.12457 7.11292C1.07 7.07172 1.02114 7.03023 0.974286 6.98844C0.948857 6.96565 0.923143 6.94286 0.9 6.91948C0.861714 6.88149 0.828 6.84351 0.796286 6.80493C0.774 6.77805 0.752571 6.75117 0.733714 6.72399C0.708571 6.68805 0.687143 6.65211 0.667714 6.61617C0.652286 6.58724 0.638571 6.55831 0.626857 6.52938C0.612857 6.49403 0.601714 6.45867 0.593714 6.42331C0.583143 6.37685 0.571429 6.32951 0.571429 6.28247C0.571429 6.24945 0.575143 6.21643 0.580286 6.1837C0.587429 6.13958 0.583429 6.09545 0.571429 6.05367V3.88432C0.605714 3.91617 0.644857 3.94743 0.682 3.97899C0.702572 3.99653 0.721714 4.01406 0.743429 4.03159C0.829143 4.10055 0.921714 4.16864 1.022 4.23497C1.04286 4.2487 1.06629 4.26214 1.088 4.27588C1.172 4.32935 1.26086 4.38166 1.35429 4.43308C1.38886 4.45208 1.42343 4.47078 1.45914 4.48948C1.56343 4.54383 1.67286 4.59672 1.788 4.64786C1.80686 4.65633 1.824 4.6651 1.84314 4.67328C1.97714 4.73143 2.11943 4.78695 2.26743 4.84071C2.30829 4.85562 2.35114 4.86964 2.39314 4.88425C2.51086 4.92487 2.63257 4.96373 2.75857 5.00143C2.804 5.01487 2.84857 5.0289 2.89514 5.04175C3.06229 5.08909 3.23486 5.13409 3.416 5.17558C3.44086 5.18143 3.46771 5.1861 3.49286 5.19166C3.65257 5.2273 3.81829 5.26032 3.98857 5.2913C4.04629 5.30182 4.10486 5.31175 4.16371 5.32169C4.32571 5.34886 4.49257 5.3737 4.66371 5.39649C4.70771 5.40234 4.74971 5.40906 4.79429 5.41461C5.00686 5.44091 5.22686 5.46341 5.45286 5.4827C5.50857 5.48737 5.56657 5.49088 5.62314 5.49497C5.804 5.50841 5.98886 5.51951 6.178 5.52828C6.24686 5.53149 6.31543 5.53471 6.38572 5.53734C6.632 5.54581 6.88286 5.55195 7.14286 5.55195C7.40286 5.55195 7.65371 5.54581 7.9 5.53734C7.97 5.53471 8.03857 5.53149 8.10772 5.52828C8.29686 5.51951 8.48171 5.50841 8.66257 5.49497C8.71914 5.49058 8.77686 5.48737 8.83286 5.4827C9.05886 5.4637 9.27886 5.44091 9.49143 5.41461C9.536 5.40906 9.578 5.40234 9.622 5.39649C9.79314 5.3737 9.95971 5.34886 10.122 5.32169C10.1809 5.31175 10.2394 5.30182 10.2971 5.2913C10.4674 5.26032 10.6331 5.2273 10.7929 5.19166C10.818 5.1861 10.8449 5.18114 10.8697 5.17558C11.0509 5.13409 11.2234 5.0888 11.3906 5.04175C11.4371 5.0286 11.4817 5.01487 11.5271 5.00143C11.6531 4.96373 11.7749 4.92487 11.8926 4.88425C11.9346 4.86964 11.9774 4.85562 12.0183 4.84071C12.1663 4.78695 12.3089 4.73143 12.4426 4.67328C12.4617 4.6651 12.4789 4.65633 12.4977 4.64786C12.6129 4.59643 12.7223 4.54383 12.8266 4.48948C12.8623 4.47078 12.8971 4.45208 12.9314 4.43308C13.0249 4.38195 13.1137 4.32964 13.1977 4.27588C13.2194 4.26214 13.2429 4.2487 13.2637 4.23497C13.364 4.16864 13.4566 4.10084 13.5423 4.03159C13.5637 4.01406 13.5829 3.99653 13.6037 3.97899C13.6409 3.94743 13.68 3.91617 13.7143 3.88432ZM7.14286 0.584416C11.0157 0.584416 13.7143 1.73922 13.7143 2.77597C13.7143 3.81273 11.0157 4.96753 7.14286 4.96753C3.27 4.96753 0.571429 3.81273 0.571429 2.77597C0.571429 1.73922 3.27 0.584416 7.14286 0.584416ZM13.7143 13.3548C13.7103 13.3676 13.7074 13.3808 13.7051 13.3942C13.5431 14.405 10.8674 15.487 7.14286 15.487C3.41829 15.487 0.742571 14.405 0.580571 13.3942C0.578286 13.3811 0.575143 13.3682 0.571429 13.3559V10.8973C0.579429 10.9049 0.589429 10.9122 0.597714 10.9198C0.66 10.9759 0.723429 11.0317 0.794857 11.0855C1.87114 11.918 4.02343 12.5649 7.14286 12.5649C10.2491 12.5649 12.396 11.9232 13.4769 11.0957C13.5631 11.0314 13.6409 10.9651 13.714 10.8976L13.7143 13.3548Z"/>
</mask>
<path d="M14.244 2.48669C13.9131 1.23312 11.4506 0 7.14286 0C2.83514 0 0.372286 1.23312 0.0417143 2.48669C0.0177143 2.52964 0 2.57669 0 2.62987V2.77597V6.13636V6.28247V6.42857V9.64286V9.78896V9.93506V13.4416C0 13.4889 0.0122857 13.5336 0.0334286 13.5733C0.370857 15.0037 3.38971 16.0714 7.14286 16.0714C10.8874 16.0714 13.9014 15.0081 14.25 13.583C14.2729 13.5412 14.2857 13.493 14.2857 13.4416V9.93506V9.78896V9.64286V6.42857V6.28247V6.13636V2.77597V2.62987C14.2857 2.57669 14.268 2.52964 14.244 2.48669ZM13.6917 9.93068C13.6837 9.96604 13.6726 10.0011 13.6586 10.0368C13.6471 10.0657 13.6331 10.0946 13.6177 10.1235C13.5986 10.1595 13.5771 10.1954 13.5517 10.2314C13.5329 10.2585 13.5114 10.2854 13.4891 10.3123C13.4574 10.3506 13.4237 10.3889 13.3854 10.4269C13.3623 10.4499 13.3369 10.4727 13.3111 10.4958C13.2643 10.5376 13.2154 10.5791 13.1609 10.6203C13.1374 10.6381 13.1123 10.6554 13.0874 10.6729C13.0229 10.7185 12.9554 10.7638 12.8814 10.8082C12.862 10.8202 12.8411 10.8316 12.8209 10.8432C12.7357 10.8923 12.6469 10.9411 12.5509 10.9885C12.5386 10.9946 12.5257 11.0005 12.5131 11.0063C12.406 11.058 12.294 11.1089 12.1743 11.158C12.1709 11.1594 12.1674 11.1606 12.164 11.162C11.5151 11.4271 10.6851 11.65 9.718 11.7961C9.71314 11.7967 9.70829 11.7973 9.70343 11.7982C9.51543 11.8265 9.32257 11.8517 9.12457 11.8739C9.09229 11.8774 9.05829 11.8797 9.02571 11.8832C8.85286 11.9016 8.678 11.9186 8.498 11.932C8.41571 11.9381 8.32943 11.9411 8.24572 11.9463C8.11029 11.9545 7.97629 11.9636 7.83743 11.9685C7.61057 11.9758 7.37914 11.9805 7.14286 11.9805C6.90657 11.9805 6.67514 11.9758 6.448 11.9677C6.30914 11.9627 6.17514 11.9533 6.03971 11.9455C5.956 11.9405 5.86971 11.9373 5.78743 11.9311C5.60743 11.9177 5.43257 11.9007 5.25972 11.8823C5.22714 11.8788 5.19314 11.8765 5.16086 11.873C4.96286 11.8508 4.77 11.8254 4.582 11.7973C4.57714 11.7967 4.57229 11.7961 4.56743 11.7953C3.60029 11.6492 2.77029 11.4262 2.12143 11.1612C2.118 11.16 2.11457 11.1585 2.11114 11.1571C1.99143 11.108 1.87914 11.0571 1.77229 11.0054C1.76 10.9993 1.74686 10.9934 1.73457 10.9876C1.63857 10.9403 1.54971 10.8918 1.46457 10.8424C1.44457 10.8307 1.42343 10.8193 1.404 10.8073C1.33 10.7629 1.26257 10.7176 1.198 10.672C1.17343 10.6545 1.148 10.6372 1.12457 10.6194C1.07 10.5782 1.02114 10.5367 0.974286 10.4949C0.948857 10.4721 0.923143 10.4494 0.9 10.426C0.861714 10.388 0.828 10.35 0.796286 10.3114C0.774 10.2845 0.752571 10.2577 0.733714 10.2305C0.708571 10.1945 0.687143 10.1586 0.667714 10.1227C0.652286 10.0937 0.638571 10.0648 0.626857 10.0359C0.612857 10.0005 0.601714 9.96516 0.593714 9.9298C0.583143 9.88334 0.571429 9.83601 0.571429 9.78896C0.571429 9.75594 0.575143 9.72292 0.580286 9.69019C0.587429 9.64607 0.583429 9.60195 0.571429 9.56016V7.39081C0.579429 7.39841 0.589429 7.40571 0.597714 7.41331C0.66 7.46942 0.723429 7.52523 0.794857 7.57899C1.87114 8.41149 4.02343 9.05844 7.14286 9.05844C10.2491 9.05844 12.396 8.41675 13.4769 7.58922C13.5631 7.52493 13.6409 7.4586 13.714 7.3911L13.7143 9.56016C13.7023 9.60195 13.6983 9.64607 13.7054 9.69019C13.7109 9.72292 13.7143 9.75594 13.7143 9.78896C13.7143 9.83601 13.7026 9.88334 13.6917 9.93068ZM13.7143 3.88432V6.05367C13.7023 6.09545 13.6983 6.13958 13.7054 6.1837C13.7109 6.21643 13.7143 6.24945 13.7143 6.28247C13.7143 6.32951 13.7026 6.37685 13.6917 6.42419C13.6837 6.45955 13.6726 6.49461 13.6586 6.53026C13.6471 6.55919 13.6331 6.58812 13.6177 6.61705C13.5986 6.65299 13.5771 6.68893 13.5517 6.72487C13.5329 6.75205 13.5114 6.77893 13.4891 6.80581C13.4574 6.84409 13.4237 6.88237 13.3854 6.92036C13.3623 6.94344 13.3369 6.96623 13.3111 6.98932C13.2643 7.0311 13.2154 7.0726 13.1609 7.1138C13.1374 7.13162 13.1123 7.14886 13.0874 7.1664C13.0229 7.21198 12.9554 7.25727 12.8814 7.30169C12.862 7.31367 12.8411 7.32506 12.8209 7.33675C12.7357 7.38584 12.6469 7.43464 12.5509 7.48198C12.5386 7.48812 12.5257 7.49396 12.5131 7.4998C12.406 7.55153 12.294 7.60237 12.1743 7.65146C12.1709 7.65292 12.1674 7.65409 12.164 7.65555C11.5151 7.92058 10.6851 8.14354 9.718 8.28964C9.71314 8.29023 9.70829 8.29081 9.70343 8.29169C9.51543 8.32003 9.32257 8.34516 9.12457 8.36737C9.09229 8.37088 9.05829 8.37321 9.02571 8.37672C8.85286 8.39513 8.678 8.41208 8.498 8.42552C8.41571 8.43166 8.32943 8.43458 8.24572 8.43984C8.11029 8.44802 7.97629 8.45708 7.83743 8.46204C7.61057 8.46935 7.37914 8.47403 7.14286 8.47403C6.90657 8.47403 6.67514 8.46935 6.448 8.46117C6.30914 8.4562 6.17514 8.44685 6.03971 8.43896C5.956 8.43399 5.86971 8.43078 5.78743 8.42464C5.60743 8.4112 5.43257 8.39425 5.25972 8.37584C5.22714 8.37234 5.19314 8.37 5.16086 8.36649C4.96286 8.34429 4.77 8.31886 4.582 8.29081C4.57714 8.29023 4.57229 8.28964 4.56743 8.28876C3.60029 8.14266 2.77029 7.91971 2.12143 7.65467C2.118 7.65351 2.11457 7.65204 2.11114 7.65058C1.99143 7.60149 1.87914 7.55065 1.77229 7.49893C1.76 7.49279 1.74686 7.48695 1.73457 7.4811C1.63857 7.43377 1.54971 7.38526 1.46457 7.33588C1.44457 7.32419 1.42343 7.31279 1.404 7.30081C1.33 7.2564 1.26257 7.2111 1.198 7.16552C1.17343 7.14799 1.148 7.13075 1.12457 7.11292C1.07 7.07172 1.02114 7.03023 0.974286 6.98844C0.948857 6.96565 0.923143 6.94286 0.9 6.91948C0.861714 6.88149 0.828 6.84351 0.796286 6.80493C0.774 6.77805 0.752571 6.75117 0.733714 6.72399C0.708571 6.68805 0.687143 6.65211 0.667714 6.61617C0.652286 6.58724 0.638571 6.55831 0.626857 6.52938C0.612857 6.49403 0.601714 6.45867 0.593714 6.42331C0.583143 6.37685 0.571429 6.32951 0.571429 6.28247C0.571429 6.24945 0.575143 6.21643 0.580286 6.1837C0.587429 6.13958 0.583429 6.09545 0.571429 6.05367V3.88432C0.605714 3.91617 0.644857 3.94743 0.682 3.97899C0.702572 3.99653 0.721714 4.01406 0.743429 4.03159C0.829143 4.10055 0.921714 4.16864 1.022 4.23497C1.04286 4.2487 1.06629 4.26214 1.088 4.27588C1.172 4.32935 1.26086 4.38166 1.35429 4.43308C1.38886 4.45208 1.42343 4.47078 1.45914 4.48948C1.56343 4.54383 1.67286 4.59672 1.788 4.64786C1.80686 4.65633 1.824 4.6651 1.84314 4.67328C1.97714 4.73143 2.11943 4.78695 2.26743 4.84071C2.30829 4.85562 2.35114 4.86964 2.39314 4.88425C2.51086 4.92487 2.63257 4.96373 2.75857 5.00143C2.804 5.01487 2.84857 5.0289 2.89514 5.04175C3.06229 5.08909 3.23486 5.13409 3.416 5.17558C3.44086 5.18143 3.46771 5.1861 3.49286 5.19166C3.65257 5.2273 3.81829 5.26032 3.98857 5.2913C4.04629 5.30182 4.10486 5.31175 4.16371 5.32169C4.32571 5.34886 4.49257 5.3737 4.66371 5.39649C4.70771 5.40234 4.74971 5.40906 4.79429 5.41461C5.00686 5.44091 5.22686 5.46341 5.45286 5.4827C5.50857 5.48737 5.56657 5.49088 5.62314 5.49497C5.804 5.50841 5.98886 5.51951 6.178 5.52828C6.24686 5.53149 6.31543 5.53471 6.38572 5.53734C6.632 5.54581 6.88286 5.55195 7.14286 5.55195C7.40286 5.55195 7.65371 5.54581 7.9 5.53734C7.97 5.53471 8.03857 5.53149 8.10772 5.52828C8.29686 5.51951 8.48171 5.50841 8.66257 5.49497C8.71914 5.49058 8.77686 5.48737 8.83286 5.4827C9.05886 5.4637 9.27886 5.44091 9.49143 5.41461C9.536 5.40906 9.578 5.40234 9.622 5.39649C9.79314 5.3737 9.95971 5.34886 10.122 5.32169C10.1809 5.31175 10.2394 5.30182 10.2971 5.2913C10.4674 5.26032 10.6331 5.2273 10.7929 5.19166C10.818 5.1861 10.8449 5.18114 10.8697 5.17558C11.0509 5.13409 11.2234 5.0888 11.3906 5.04175C11.4371 5.0286 11.4817 5.01487 11.5271 5.00143C11.6531 4.96373 11.7749 4.92487 11.8926 4.88425C11.9346 4.86964 11.9774 4.85562 12.0183 4.84071C12.1663 4.78695 12.3089 4.73143 12.4426 4.67328C12.4617 4.6651 12.4789 4.65633 12.4977 4.64786C12.6129 4.59643 12.7223 4.54383 12.8266 4.48948C12.8623 4.47078 12.8971 4.45208 12.9314 4.43308C13.0249 4.38195 13.1137 4.32964 13.1977 4.27588C13.2194 4.26214 13.2429 4.2487 13.2637 4.23497C13.364 4.16864 13.4566 4.10084 13.5423 4.03159C13.5637 4.01406 13.5829 3.99653 13.6037 3.97899C13.6409 3.94743 13.68 3.91617 13.7143 3.88432ZM7.14286 0.584416C11.0157 0.584416 13.7143 1.73922 13.7143 2.77597C13.7143 3.81273 11.0157 4.96753 7.14286 4.96753C3.27 4.96753 0.571429 3.81273 0.571429 2.77597C0.571429 1.73922 3.27 0.584416 7.14286 0.584416ZM13.7143 13.3548C13.7103 13.3676 13.7074 13.3808 13.7051 13.3942C13.5431 14.405 10.8674 15.487 7.14286 15.487C3.41829 15.487 0.742571 14.405 0.580571 13.3942C0.578286 13.3811 0.575143 13.3682 0.571429 13.3559V10.8973C0.579429 10.9049 0.589429 10.9122 0.597714 10.9198C0.66 10.9759 0.723429 11.0317 0.794857 11.0855C1.87114 11.918 4.02343 12.5649 7.14286 12.5649C10.2491 12.5649 12.396 11.9232 13.4769 11.0957C13.5631 11.0314 13.6409 10.9651 13.714 10.8976L13.7143 13.3548Z" fill="#ABABAB" fill-opacity="0.64" stroke="#6C6C6C" stroke-width="4" mask="url(#path-1-inside-1)"/>
<circle cx="15.6252" cy="11.1607" r="8.48214" fill="white"/>
<path d="M15.625 1.78571C10.45 1.78571 6.25 5.98571 6.25 11.1607C6.25 16.3357 10.45 20.5357 15.625 20.5357C20.8 20.5357 25 16.3357 25 11.1607C25 5.98571 20.8 1.78571 15.625 1.78571ZM15.625 18.6607C11.4906 18.6607 8.125 15.2951 8.125 11.1607C8.125 7.02634 11.4906 3.66071 15.625 3.66071C19.7594 3.66071 23.125 7.02634 23.125 11.1607C23.125 15.2951 19.7594 18.6607 15.625 18.6607ZM15.9156 10.3545C14.2563 9.93259 13.7219 9.47321 13.7219 8.78884C13.7219 8.00134 14.4625 7.44821 15.6906 7.44821C16.9844 7.44821 17.4719 8.06696 17.5094 8.98571H19.1125C19.0656 7.72946 18.2969 6.57634 16.7781 6.20134V4.59821H14.5938V6.18259C13.1781 6.48259 12.0438 7.40134 12.0438 8.81696C12.0438 10.4951 13.4406 11.3388 15.475 11.8263C17.3031 12.2576 17.6688 12.9045 17.6688 13.5795C17.6688 14.0763 17.3031 14.8826 15.7 14.8826C14.2 14.8826 13.6094 14.2076 13.525 13.3451H11.9125C12.0062 14.9388 13.1875 15.8388 14.5938 16.1295V17.7232H16.7875V16.1576C18.2125 15.8857 19.3375 15.0701 19.3469 13.5607C19.3375 11.4982 17.5656 10.7857 15.9156 10.3545Z" fill="#6C6C6C" fill-opacity="0.7"/>
</svg>
