<svg width="17" height="21" viewBox="0 0 17 21" fill="none" xmlns="http://www.w3.org/2000/svg">
<path d="M16.582 6.72H15.0492V6.58C15.0492 2.95176 12.1112 0 8.5 0C4.88875 0 1.95082 2.95176 1.95082 6.58V6.72H0.418033C0.187279 6.72 0 6.90816 0 7.14V20.58C0 20.8118 0.187279 21 0.418033 21H16.582C16.8127 21 17 20.8118 17 20.58V7.14C17 6.90816 16.8127 6.72 16.582 6.72ZM2.78689 6.58C2.78689 3.41488 5.3497 0.84 8.5 0.84C11.6503 0.84 14.2131 3.41488 14.2131 6.58V6.72H2.78689V6.58ZM16.1639 20.16H0.836066V7.56H16.1639V20.16Z" fill="white"/>
</svg>
