<svg width="92" height="21" viewBox="0 0 92 21" fill="none" xmlns="http://www.w3.org/2000/svg">
<path d="M10.3604 6.63063H9.11711V11.6036L13.054 13.9658L13.6757 12.9463L10.3604 10.982V6.63063ZM14.3694 1.50018L18.1878 4.68703L17.1269 5.95928L13.306 2.77409L14.3694 1.50018ZM5.52248 1.50018L6.58504 2.77326L2.7658 5.95928L1.7049 4.6862L5.52248 1.50018ZM9.94594 3.31532C5.82666 3.31532 2.48648 6.6555 2.48648 10.7748C2.48648 14.8941 5.82666 18.2342 9.94594 18.2342C14.0652 18.2342 17.4054 14.8941 17.4054 10.7748C17.4054 6.6555 14.0652 3.31532 9.94594 3.31532ZM9.94594 16.5766C6.74666 16.5766 4.14414 13.9741 4.14414 10.7748C4.14414 7.5755 6.74666 4.97298 9.94594 4.97298C13.1452 4.97298 15.7477 7.5755 15.7477 10.7748C15.7477 13.9741 13.1452 16.5766 9.94594 16.5766Z" fill="white"/>
<path d="M85.0959 4.14414H83.7118V2.48648H80.3965V4.14414H79.0123C78.4073 4.14414 77.91 4.64144 77.91 5.24648V17.9524C77.91 18.5658 78.4073 19.0631 79.0123 19.0631H85.0876C85.701 19.0631 86.1983 18.5658 86.1983 17.9607V5.24648C86.1983 4.64144 85.701 4.14414 85.0959 4.14414Z" fill="white"/>
<path d="M49.7297 18.2342H66.3063V1.65765L49.7297 18.2342Z" fill="white"/>
<path d="M33.9902 18.6404L43.6295 6.63062C43.2565 6.34882 39.5434 3.31531 33.9819 3.31531C28.4122 3.31531 24.7073 6.34882 24.3344 6.63062L33.9736 18.6404L33.9819 18.6486L33.9902 18.6404Z" fill="white"/>
</svg>
