<svg width="100%" height="134" viewBox="0 0 248 134" fill="none" xmlns="http://www.w3.org/2000/svg">
<path d="M124.789 134C191.494 134 245.569 130.414 245.569 125.99C245.569 121.567 191.494 117.981 124.789 117.981C58.0841 117.981 4.00903 121.567 4.00903 125.99C4.00903 130.414 58.0841 134 124.789 134Z" fill="#CCCCCC" fill-opacity="0.49"/>
<path d="M120.16 38.3056C100.482 38.3056 86.3528 50.9524 86.3528 80.4617C86.3528 113.906 100.482 122.758 120.16 122.758C139.838 122.758 154.809 113.062 154.809 80.4617C154.809 45.6126 139.838 38.3056 120.16 38.3056ZM120.289 111.657C106.66 111.657 99.539 103.647 99.539 80.4833C99.539 60.0445 106.951 49.2662 120.581 49.2662C134.21 49.2662 141.623 56.346 141.623 80.4833C141.623 103.063 133.919 111.657 120.289 111.657Z" fill="#9139CA"/>
<path d="M74.5693 99.432H66.4331V75.4317C66.4331 74.157 65.9276 72.9345 65.0278 72.0331C64.128 71.1317 62.9075 70.6253 61.635 70.6253H59.7285C59.0984 70.6253 58.4744 70.7496 57.8923 70.9912C57.3102 71.2327 56.7812 71.5867 56.3357 72.0331C55.8901 72.4794 55.5367 73.0093 55.2955 73.5924C55.0544 74.1755 54.9303 74.8006 54.9303 75.4317V99.432H31.981C31.5088 99.432 31.0447 99.3097 30.6337 99.0771C30.2226 98.8445 29.8785 98.5094 29.6349 98.1044C29.3912 97.6993 29.2561 97.238 29.2428 96.7653C29.2296 96.2925 29.3385 95.8244 29.559 95.4062L53.8484 49.355C54.1512 48.7808 54.3347 48.1512 54.3879 47.504C54.4411 46.8569 54.3628 46.2056 54.1578 45.5896C53.9528 44.9736 53.6254 44.4055 53.1951 43.9198C52.7649 43.4341 52.2409 43.0407 51.6548 42.7634L50.2209 42.0851C49.1075 41.5585 47.8347 41.4807 46.6657 41.8679C45.4967 42.2551 44.521 43.0777 43.9405 44.1654L14.3165 99.6784C13.812 100.624 13.5481 101.679 13.5481 102.751C13.5481 103.607 13.7164 104.454 14.0434 105.245C14.3703 106.036 14.8496 106.754 15.4537 107.359C16.0579 107.965 16.7752 108.445 17.5645 108.772C18.3539 109.1 19.2 109.268 20.0544 109.268H54.9303V124.445C54.9303 125.201 55.0791 125.95 55.3681 126.649C55.6571 127.348 56.0808 127.983 56.6149 128.518C57.1489 129.053 57.783 129.478 58.4807 129.767C59.1785 130.057 59.9264 130.206 60.6817 130.206C61.437 130.206 62.1849 130.057 62.8827 129.767C63.5805 129.478 64.2145 129.053 64.7486 128.518C65.2827 127.983 65.7063 127.348 65.9953 126.649C66.2844 125.95 66.4331 125.201 66.4331 124.445V109.268H74.5693C75.8715 109.268 77.1203 108.75 78.041 107.828C78.9618 106.906 79.4791 105.655 79.4791 104.35C79.4791 103.046 78.9618 101.795 78.041 100.872C77.1203 99.9501 75.8715 99.432 74.5693 99.432Z" fill="#08A4B3"/>
<path d="M225.229 99.432H217.093V75.4317C217.093 74.157 216.587 72.9345 215.687 72.0331C214.787 71.1317 213.567 70.6253 212.294 70.6253H210.388C209.758 70.6253 209.134 70.7496 208.552 70.9912C207.97 71.2327 207.441 71.5867 206.995 72.0331C206.55 72.4794 206.196 73.0093 205.955 73.5924C205.714 74.1755 205.59 74.8006 205.59 75.4317V99.432H182.64C182.168 99.432 181.704 99.3097 181.293 99.0771C180.882 98.8445 180.538 98.5094 180.294 98.1044C180.051 97.6993 179.916 97.238 179.902 96.7653C179.889 96.2925 179.998 95.8244 180.218 95.4062L204.508 49.355C204.811 48.7808 204.994 48.1512 205.047 47.504C205.101 46.8569 205.022 46.2056 204.817 45.5896C204.612 44.9736 204.285 44.4055 203.855 43.9198C203.424 43.434 202.9 43.0407 202.314 42.7634L200.88 42.0851C199.767 41.5585 198.494 41.4807 197.325 41.8679C196.156 42.2551 195.18 43.0777 194.6 44.1654L164.976 99.6784C164.471 100.624 164.208 101.679 164.208 102.751C164.208 104.479 164.893 106.137 166.113 107.359C167.333 108.582 168.988 109.268 170.714 109.268H205.59V124.445C205.59 125.973 206.196 127.438 207.274 128.518C208.353 129.599 209.816 130.206 211.341 130.206C212.866 130.206 214.329 129.599 215.408 128.518C216.487 127.438 217.093 125.973 217.093 124.445V109.268H225.229C226.531 109.268 227.78 108.75 228.7 107.828C229.621 106.906 230.138 105.655 230.138 104.35C230.138 103.046 229.621 101.795 228.7 100.872C227.78 99.9501 226.531 99.432 225.229 99.432Z" fill="#01BCC8"/>
<path d="M76.8137 96.6216H68.6775V72.6213C68.6775 71.9901 68.5534 71.3651 68.3123 70.782C68.0712 70.1988 67.7177 69.669 67.2722 69.2227C66.8266 68.7763 66.2977 68.4223 65.7155 68.1807C65.1334 67.9392 64.5095 67.8149 63.8794 67.8149H61.9729C60.7003 67.8149 59.4799 68.3213 58.5801 69.2227C57.6802 70.124 57.1747 71.3466 57.1747 72.6213V96.6216H34.2253C33.7532 96.6216 33.2891 96.4993 32.8781 96.2667C32.467 96.0341 32.1229 95.699 31.8792 95.294C31.6356 94.8889 31.5005 94.4276 31.4872 93.9549C31.4739 93.4821 31.5829 93.014 31.8034 92.5958L56.0927 46.5446C56.3956 45.9704 56.5791 45.3408 56.6323 44.6936C56.6855 44.0464 56.6072 43.3952 56.4022 42.7792C56.1972 42.1631 55.8697 41.5951 55.4395 41.1094C55.0093 40.6236 54.4853 40.2303 53.8992 39.953L52.4653 39.2747C51.3519 38.748 50.0791 38.6703 48.9101 39.0575C47.741 39.4447 46.7654 40.2673 46.1849 41.355L16.5609 96.868C16.0564 97.8133 15.7925 98.8686 15.7925 99.9405V99.9405C15.7925 101.669 16.478 103.327 17.6981 104.549C18.9183 105.771 20.5732 106.458 22.2988 106.458H57.1747V121.634C57.1747 122.391 57.3235 123.14 57.6125 123.839C57.9015 124.538 58.3252 125.173 58.8592 125.708C59.3933 126.243 60.0273 126.667 60.7251 126.957C61.4229 127.247 62.1708 127.396 62.9261 127.396H62.9261C64.4515 127.396 65.9144 126.789 66.993 125.708C68.0716 124.628 68.6775 123.162 68.6775 121.634V106.458H76.8137C77.4585 106.458 78.0969 106.331 78.6926 106.084C79.2883 105.836 79.8295 105.474 80.2854 105.017C80.7413 104.561 81.103 104.019 81.3497 103.422C81.5965 102.825 81.7234 102.186 81.7234 101.54V101.54C81.7235 100.894 81.5965 100.254 81.3497 99.6577C81.103 99.061 80.7413 98.5188 80.2854 98.0621C79.8295 97.6054 79.2883 97.2431 78.6926 96.9959C78.0969 96.7488 77.4585 96.6216 76.8137 96.6216V96.6216Z" stroke="#3F3D56" stroke-miterlimit="10"/>
<path d="M229.437 96.6216H221.301V72.6213C221.301 71.3466 220.795 70.124 219.895 69.2227C218.996 68.3213 217.775 67.8149 216.503 67.8149H214.596C213.966 67.8149 213.342 67.9392 212.76 68.1807C212.178 68.4223 211.649 68.7763 211.203 69.2227C210.758 69.669 210.404 70.1988 210.163 70.782C209.922 71.3651 209.798 71.9901 209.798 72.6213V96.6216H186.849C186.377 96.6216 185.912 96.4993 185.501 96.2667C185.09 96.0341 184.746 95.699 184.503 95.294C184.259 94.8889 184.124 94.4276 184.111 93.9549C184.097 93.4821 184.206 93.014 184.427 92.5958L208.716 46.5446C209.019 45.9704 209.202 45.3408 209.256 44.6936C209.309 44.0464 209.231 43.3952 209.026 42.7792C208.821 42.1631 208.493 41.5951 208.063 41.1094C207.633 40.6236 207.109 40.2303 206.522 39.953L205.089 39.2747C203.975 38.748 202.702 38.6703 201.533 39.0575C200.364 39.4447 199.389 40.2673 198.808 41.355L169.184 96.868C168.68 97.8133 168.416 98.8686 168.416 99.9405C168.416 101.669 169.101 103.327 170.321 104.549C171.542 105.771 173.196 106.458 174.922 106.458H209.798V121.634C209.798 123.162 210.404 124.628 211.483 125.708C212.561 126.789 214.024 127.396 215.549 127.396V127.396C217.075 127.396 218.538 126.789 219.616 125.708C220.695 124.628 221.301 123.162 221.301 121.634V106.458H229.437C230.082 106.458 230.72 106.331 231.316 106.084C231.912 105.836 232.453 105.474 232.909 105.017C233.365 104.561 233.726 104.019 233.973 103.422C234.22 102.825 234.347 102.186 234.347 101.54V101.54C234.347 100.235 233.829 98.9844 232.909 98.0621C231.988 97.1397 230.739 96.6216 229.437 96.6216V96.6216Z" stroke="#3F3D56" stroke-miterlimit="10"/>
<path d="M124.649 35.7762C104.97 35.7762 90.8416 48.423 90.8416 77.9323C90.8416 111.376 104.97 120.229 124.649 120.229C144.327 120.229 159.298 110.533 159.298 77.9323C159.298 43.0833 144.327 35.7762 124.649 35.7762ZM124.778 109.128C111.148 109.128 104.028 101.118 104.028 77.9539C104.028 57.5151 111.44 46.7368 125.07 46.7368C138.699 46.7368 146.111 53.8167 146.111 77.9539C146.111 100.534 138.408 109.128 124.778 109.128Z" stroke="#81269D" stroke-miterlimit="10"/>
<path d="M108.875 7.14498C110.507 7.14498 111.829 5.82017 111.829 4.18595C111.829 2.55172 110.507 1.22691 108.875 1.22691C107.244 1.22691 105.921 2.55172 105.921 4.18595C105.921 5.82017 107.244 7.14498 108.875 7.14498Z" fill="#2F2E41"/>
<path d="M116.08 21.5071C120.656 21.5071 124.366 16.6926 124.366 10.7536C124.366 4.81453 120.656 0 116.08 0C111.504 0 107.795 4.81453 107.795 10.7536C107.795 16.6926 111.504 21.5071 116.08 21.5071Z" fill="#2F2E41"/>
<path opacity="0.1" d="M116.08 18.2594C111.93 18.2594 108.492 14.2982 107.889 9.1297C107.826 9.6687 107.795 10.2109 107.795 10.7536C107.795 16.6926 111.504 21.5071 116.08 21.5071C120.656 21.5071 124.366 16.6926 124.366 10.7536C124.366 10.2109 124.334 9.6687 124.272 9.1297C123.668 14.2982 120.231 18.2594 116.08 18.2594Z" fill="black"/>
<path d="M132.94 42.2458C132.762 42.9782 131.995 43.5648 131.145 43.9747C129.359 44.8364 127.155 45.0935 125.018 45.1798C124.473 45.213 123.926 45.2029 123.382 45.1495C122.329 45.0474 121.341 44.5924 120.577 43.8579C120.523 43.8223 120.478 43.7735 120.448 43.716C120.417 43.6585 120.402 43.5941 120.403 43.529C120.404 43.4638 120.421 43.4 120.453 43.3435C120.486 43.2869 120.532 43.2395 120.587 43.2056C121.725 41.9536 123.624 41.1858 125.537 40.6331C126.987 40.2139 129.516 39.1283 131.098 39.2748C132.631 39.4167 133.165 41.321 132.94 42.2458Z" fill="#3F3D56"/>
<path opacity="0.1" d="M132.94 42.2458C132.762 42.9782 131.995 43.5648 131.145 43.9747C129.359 44.8364 127.155 45.0935 125.018 45.1798C124.473 45.213 123.926 45.2029 123.382 45.1495C122.329 45.0474 121.341 44.5924 120.577 43.8579C120.523 43.8223 120.478 43.7735 120.448 43.716C120.417 43.6585 120.402 43.5941 120.403 43.529C120.404 43.4638 120.421 43.4 120.453 43.3435C120.486 43.2869 120.532 43.2395 120.587 43.2056C121.725 41.9536 123.624 41.1858 125.537 40.6331C126.987 40.2139 129.516 39.1283 131.098 39.2748C132.631 39.4167 133.165 41.321 132.94 42.2458Z" fill="black"/>
<path d="M110.227 36.7715C109.682 37.8421 109.583 39.0857 109.953 40.2291C110.328 41.3639 111.032 42.3614 111.974 43.0954C114.285 44.9513 117.467 45.2067 120.429 45.1809C123.025 45.1583 125.617 44.9803 128.192 44.6479C129.055 44.5713 129.903 44.3741 130.711 44.062C131.678 43.643 132.527 42.8745 132.871 41.8772C133.215 40.8799 132.971 39.6587 132.154 38.9932C131.436 38.4084 130.445 38.3279 129.521 38.2723L124.235 37.9541C124.757 37.4246 125.453 37.1252 126.089 36.7402C126.932 36.2296 127.493 35.3722 128.106 34.5992C129.052 33.4675 130.08 32.4082 131.183 31.4301C131.356 32.4188 131.98 33.2306 132.715 33.9128C133.449 34.5949 134.296 35.1441 135.06 35.7935C136.91 37.3666 138.242 39.5016 140.187 40.9543C141.525 40.602 142.776 39.9764 143.862 39.1166L143.106 37.7447C143.043 37.6035 142.945 37.4809 142.821 37.3885C142.607 37.2566 142.331 37.3246 142.082 37.2873C141.418 37.1875 141.128 36.4194 140.867 35.7993C140.152 34.0971 138.782 32.7764 137.612 31.3488C136.748 30.2951 135.982 29.1648 135.323 27.972C134.93 27.2606 134.571 26.5199 134.037 25.907C133.504 25.2941 132.756 24.8123 131.945 24.8105C131.228 24.809 130.566 25.1737 129.949 25.5406C128.071 26.6581 126.264 27.8913 124.539 29.2331C123.636 29.9353 122.739 30.6773 121.679 31.1079C121.233 31.2891 120.763 31.413 120.335 31.6336C119.586 32.02 119.017 32.6736 118.405 33.2539C116.221 35.3234 113.231 36.6643 110.227 36.7715Z" fill="#3F3D56"/>
<path d="M121.28 22.0412C121.256 22.6738 121.122 23.2973 120.883 23.8837C120.763 24.1762 120.583 24.4406 120.356 24.6605C120.129 24.8804 119.859 25.0511 119.563 25.1619C119.143 25.2746 118.702 25.289 118.275 25.2037C117.903 25.1648 117.545 25.0424 117.226 24.8457C116.731 24.5044 116.484 23.8952 116.394 23.2991C116.303 22.7037 116.344 22.0953 116.286 21.4955C116.23 21.0111 116.138 20.5315 116.011 20.0608C115.972 19.9042 115.932 19.7483 115.893 19.5924C115.855 19.4365 115.818 19.2806 115.783 19.1247C115.752 18.9782 115.722 18.831 115.697 18.683C115.676 18.5582 115.657 18.4326 115.643 18.3063C115.631 17.9319 115.569 17.5608 115.458 17.2028C115.355 16.9706 115.225 16.751 115.072 16.5482C115.007 16.4544 114.943 16.3605 114.885 16.2631C114.716 16.0099 114.638 15.707 114.662 15.4036C114.669 15.3566 114.68 15.3105 114.696 15.2657C114.702 15.2484 114.708 15.2311 114.716 15.2145C114.78 15.1968 114.84 15.1636 114.889 15.1177C114.938 15.0718 114.975 15.0146 114.997 14.951C115.022 14.8145 115.01 14.6738 114.963 14.5433C114.91 14.3608 114.836 14.1849 114.744 14.0186C114.683 13.9089 114.478 13.7111 114.476 13.5855C114.473 13.3329 114.966 13.1294 115.166 13.0298C115.775 12.7242 116.454 12.5863 117.134 12.63C117.57 12.6596 118.043 12.7938 118.283 13.1597C118.499 13.4895 118.471 13.9168 118.563 14.3C118.573 14.3557 118.596 14.4081 118.631 14.4523C118.678 14.4952 118.737 14.5225 118.801 14.5303C118.907 14.5515 119.017 14.5559 119.125 14.5433H119.126C119.154 14.541 119.183 14.5369 119.211 14.531C119.379 14.4999 119.538 14.431 119.676 14.3296C119.765 14.3058 119.855 14.2863 119.946 14.2712C119.95 14.2708 119.953 14.2701 119.957 14.269C120.318 15.41 120.365 16.6333 120.66 17.7953C120.806 18.3734 121.016 18.9443 121.046 19.539C121.048 19.5649 121.048 19.5916 121.049 19.6183C121.054 19.8096 121.038 20.0023 121.046 20.1928C121.049 20.2786 121.059 20.3641 121.075 20.4483C121.107 20.5838 121.148 20.7173 121.195 20.8482L121.198 20.8546C121.211 20.8965 121.224 20.9391 121.235 20.9817C121.243 21.0127 121.25 21.043 121.256 21.074L121.257 21.0762C121.31 21.3951 121.318 21.72 121.28 22.0412Z" fill="#FBBEBE"/>
<path d="M116.224 14.5786C118.572 14.5786 120.475 12.6722 120.475 10.3205C120.475 7.96883 118.572 6.06241 116.224 6.06241C113.877 6.06241 111.973 7.96883 111.973 10.3205C111.973 12.6722 113.877 14.5786 116.224 14.5786Z" fill="#FBBEBE"/>
<path d="M143.212 33.5208C143.088 32.3591 142.676 31.2469 142.013 30.2861C142.123 30.9428 142.233 31.5993 142.344 32.2556C142.207 32.2955 142.06 32.2943 141.923 32.2521C141.786 32.2099 141.665 32.1286 141.573 32.0182C141.394 31.7943 141.257 31.5397 141.169 31.2669C140.686 30.0659 140.055 28.9305 139.289 27.8871C136.583 27.6612 133.908 26.5375 131.528 25.2276C129.148 23.9184 126.92 22.3486 124.572 20.9839C124.164 20.7373 123.74 20.5202 123.302 20.3343C122.567 20.0391 121.742 19.8861 121.046 19.539C120.999 19.5159 120.952 19.4914 120.906 19.4661C120.748 19.3803 120.599 19.2801 120.461 19.1666C120.386 19.1056 120.314 19.04 120.247 18.9703C119.9 18.5652 119.624 18.1033 119.432 17.6048C119.058 16.7763 118.925 15.7767 118.552 14.9482C118.724 14.7876 118.916 14.6513 119.125 14.5433H119.125C119.156 14.5274 119.186 14.5122 119.217 14.4978C119.365 14.4281 119.518 14.3719 119.676 14.3296C119.765 14.3058 119.855 14.2863 119.946 14.2712C119.95 14.2708 119.953 14.2701 119.957 14.269C120.378 14.2003 120.809 14.2345 121.214 14.3686C121.806 14.5693 122.306 14.9698 122.804 15.3487C123.612 15.9195 124.388 16.5359 125.127 17.1949C125.538 17.5889 125.912 18.0219 126.354 18.3799C126.721 18.6636 127.108 18.9205 127.512 19.1485C129.902 20.5746 132.292 22.0005 134.682 23.4261C135.491 23.909 136.301 24.3918 137.092 24.9028C138.294 25.6793 139.452 26.5209 140.61 27.3617C141.292 27.8568 141.974 28.3521 142.656 28.8477C142.88 28.9906 143.076 29.1725 143.236 29.3846C143.377 29.6255 143.465 29.8941 143.493 30.172C143.664 31.2949 143.568 32.4424 143.212 33.5208Z" fill="#FBBEBE"/>
<path d="M122.335 25.2434C122.048 26.5317 120.748 27.3104 120.069 28.4421C119.224 29.8465 119.569 31.479 119.886 33.0877C119.306 33.5879 118.727 34.088 118.147 34.5882C117.827 34.8632 117.507 35.1396 117.163 35.3828C116.661 35.7198 116.136 36.0218 115.592 36.2864C115.079 36.5505 114.566 36.8149 114.053 37.0795C113.577 37.3481 113.071 37.5626 112.547 37.719C111.536 37.9788 110.463 37.7969 109.463 37.496C109.345 37.465 109.231 37.4186 109.125 37.3581C109.063 37.3209 109.009 37.2716 108.965 37.2131C108.867 37.036 108.831 36.8307 108.864 36.6306C108.965 34.9447 109.377 33.2941 109.787 31.6559C110.006 30.673 110.301 29.7086 110.668 28.7712C111.028 27.9679 111.443 27.1901 111.908 26.4429C112.421 25.5028 113.03 24.6179 113.723 23.8022C114.061 23.4882 114.345 23.121 114.565 22.7152C114.821 22.1307 114.722 21.4602 114.774 20.8236C114.814 20.3454 114.94 19.8784 115.148 19.4459V19.4452C115.259 19.2122 115.393 18.9907 115.547 18.7841C115.617 18.9472 115.687 19.11 115.757 19.2727C115.803 19.3795 115.848 19.4861 115.894 19.5924C115.953 19.7295 116.011 19.8662 116.069 20.0023C116.237 20.3935 116.405 20.7844 116.572 21.1751C116.753 21.6672 117.011 22.1274 117.336 22.5384C117.485 22.7489 117.685 22.9172 117.918 23.0269C118.151 23.1366 118.408 23.1839 118.665 23.1642C118.921 23.1444 119.168 23.0584 119.382 22.9145C119.595 22.7705 119.768 22.5736 119.883 22.3429C120.125 21.9122 120.3 21.4471 120.403 20.9637C120.545 20.375 120.565 19.7632 120.461 19.1666C120.287 18.0176 119.799 16.8441 119.445 15.7767C119.3 15.4208 119.217 15.0431 119.198 14.6595C119.198 14.6164 119.203 14.5734 119.211 14.531C119.213 14.5202 119.215 14.5086 119.217 14.4978C119.365 14.4282 119.518 14.3719 119.676 14.3297C119.765 14.3058 119.855 14.2864 119.946 14.2712C120.258 15.9629 120.571 17.6546 120.884 19.3463C120.891 19.386 120.899 19.4257 120.906 19.4661C120.951 19.7086 120.996 19.9511 121.046 20.1929C121.092 20.4123 121.141 20.6309 121.196 20.8482L121.198 20.8547C121.216 20.9283 121.236 21.0012 121.256 21.0741L121.257 21.0762C121.312 21.2754 121.374 21.4732 121.444 21.668C121.868 22.8423 122.606 24.0244 122.335 25.2434Z" fill="#CA4901"/>
<path d="M139.586 43.3476C139.573 43.5958 139.621 43.8434 139.726 44.0685C139.992 44.5556 140.63 44.6663 141.182 44.7119C144.409 44.9775 147.655 44.8785 150.86 44.4165C151.034 44.4046 151.202 44.3521 151.352 44.2634C151.808 43.9434 151.527 43.1635 151.03 42.9139C150.532 42.6643 149.942 42.7244 149.396 42.6163C148.854 42.4796 148.337 42.2552 147.867 41.952C146.76 41.3149 145.669 40.6507 144.594 39.9593C143.954 39.5477 143.199 39.1084 142.479 39.3525C140.527 40.0139 139.573 41.2383 139.586 43.3476Z" fill="#3F3D56"/>
<path d="M115.8 19.0345V19.0352C115.795 19.0655 115.79 19.0951 115.783 19.1247C115.775 19.1738 115.766 19.2236 115.757 19.2727C115.667 19.731 115.558 20.1871 115.432 20.6403C115.086 21.8925 114.623 23.1245 114.163 24.3384C112.93 27.5933 111.696 30.8485 110.462 34.1039C110.151 34.9238 109.84 35.7444 109.486 36.5476C109.368 36.8154 109.247 37.0853 109.125 37.3581C108.692 38.3346 108.275 39.3428 108.137 40.3821C108.008 41.0661 107.993 41.7667 108.093 42.4556C108.231 43.1369 108.644 43.8023 109.29 44.0542C109.606 44.1776 110.058 44.3429 109.971 44.6712C109.924 44.8517 109.72 44.9397 109.536 44.97C109.294 45.0088 109.045 44.9935 108.809 44.9254C108.573 44.8573 108.355 44.738 108.17 44.576C107.825 44.2693 107.56 43.7922 107.101 43.741C106.783 43.7063 106.491 43.8969 106.2 44.0304C105.012 44.5738 103.629 44.1935 102.382 43.8074C102.48 43.3014 102.987 42.968 103.491 42.867C103.994 42.7652 104.515 42.8374 105.029 42.8237C105.193 42.8325 105.357 42.7904 105.496 42.7031C105.622 42.5879 105.71 42.4375 105.749 42.2716C106.079 41.2894 106.326 40.2806 106.484 39.2562C106.65 38.1859 106.719 37.099 106.955 36.0417C107.139 35.2168 107.423 34.4179 107.666 33.6081C108.137 31.9408 108.524 30.2508 108.825 28.5445C108.977 27.8356 109.086 27.1181 109.151 26.396C109.192 25.797 109.173 25.1951 109.231 24.5982C109.327 23.8217 109.489 23.0547 109.714 22.3053C109.935 21.4876 110.155 20.6704 110.375 19.8537C110.701 18.6448 111.051 17.389 111.878 16.4493C112.166 16.1185 112.518 15.8503 112.913 15.6614C113.308 15.4724 113.737 15.3667 114.175 15.3509C114.339 15.3507 114.502 15.3683 114.662 15.4036C114.689 15.4101 114.716 15.4165 114.742 15.4238C114.917 15.4695 115.084 15.5389 115.24 15.6302C115.495 15.4678 115.625 15.5248 115.794 15.7752C115.943 16.0403 116.013 16.3422 115.996 16.6456C116.01 17.4465 115.945 18.2467 115.8 19.0345Z" fill="#FBBEBE"/>
<path d="M116.08 19.9915L116.069 20.0023L116.011 20.0608L115.432 20.6403L115.148 19.4459L114.174 15.3509C114.338 15.3507 114.502 15.3683 114.662 15.4035C114.669 15.3566 114.68 15.3105 114.696 15.2657L114.742 15.4238L115.072 16.5482L115.697 18.683L115.8 19.0345V19.0352L116.08 19.9915Z" fill="#CA4901"/>
<path d="M119.756 6.92735C119.756 7.30653 119.68 7.6819 119.535 8.032C119.39 8.3821 119.177 8.70006 118.909 8.96771C118.812 9.06513 118.708 9.15531 118.597 9.23752C118.1 9.61296 117.495 9.81617 116.872 9.81646H113.415C112.652 9.81528 111.92 9.51052 111.38 8.9691C110.84 8.42768 110.537 7.69386 110.537 6.92876C110.537 6.16367 110.84 5.42984 111.38 4.88842C111.92 4.347 112.652 4.04224 113.415 4.04106H116.872C117.636 4.04305 118.368 4.34769 118.908 4.88847C119.448 5.42924 119.753 6.16222 119.756 6.92735Z" fill="#2F2E41"/>
<path d="M122.997 7.14498C124.628 7.14498 125.951 5.82017 125.951 4.18595C125.951 2.55172 124.628 1.22691 122.997 1.22691C121.365 1.22691 120.043 2.55172 120.043 4.18595C120.043 5.82017 121.365 7.14498 122.997 7.14498Z" fill="#2F2E41"/>
<path opacity="0.1" d="M122.924 1.22691C122.888 1.22691 122.852 1.22835 122.816 1.22965C123.581 1.25748 124.304 1.58113 124.835 2.1325C125.366 2.68387 125.662 3.41998 125.662 4.18595C125.662 4.95191 125.366 5.68802 124.835 6.23939C124.304 6.79076 123.581 7.11441 122.816 7.14224C122.852 7.14353 122.888 7.14498 122.924 7.14498C123.708 7.14498 124.459 6.83322 125.013 6.27829C125.567 5.72337 125.878 4.97073 125.878 4.18595C125.878 3.40116 125.567 2.64852 125.013 2.09359C124.459 1.53867 123.708 1.22691 122.924 1.22691Z" fill="black"/>
<path opacity="0.1" d="M108.875 1.22691C108.912 1.22691 108.948 1.22835 108.983 1.22965C108.219 1.25748 107.496 1.58113 106.965 2.1325C106.434 2.68387 106.138 3.41998 106.138 4.18595C106.138 4.95191 106.434 5.68802 106.965 6.23939C107.496 6.79076 108.219 7.11441 108.983 7.14224C108.948 7.14353 108.912 7.14498 108.875 7.14498C108.092 7.14429 107.342 6.83223 106.788 6.27737C106.235 5.72252 105.924 4.97028 105.924 4.18595C105.924 3.40161 106.235 2.64937 106.788 2.09452C107.342 1.53966 108.092 1.2276 108.875 1.22691Z" fill="black"/>
<path opacity="0.1" d="M118.597 9.23752C118.1 9.61296 117.494 9.81617 116.872 9.81646H113.415C112.793 9.81617 112.187 9.61296 111.69 9.23752H118.597Z" fill="black"/>
<path d="M140.918 30.6784C140.918 30.6784 141.663 32.8279 142.344 32.2556L141.801 29.446L140.918 30.6784Z" fill="#FBBEBE"/>
<path d="M231.538 96.2285C232.232 96.481 232.974 96.5688 233.707 96.4848C234.441 96.4008 235.144 96.1474 235.763 95.7445C236.382 95.3416 236.899 94.8002 237.273 94.163C237.647 93.5258 237.869 92.8103 237.92 92.0728C237.971 91.3353 237.851 90.596 237.568 89.9131C237.285 89.2302 236.848 88.6225 236.291 88.1378C235.733 87.6531 235.071 87.3046 234.357 87.1199C233.642 86.9352 232.894 86.9193 232.173 87.0734L232.292 89.5304L231.131 87.4248C229.993 87.9608 229.113 88.9279 228.685 90.1135C228.533 90.5288 228.441 90.9635 228.411 91.4048C228.338 92.44 228.603 93.471 229.168 94.3414C229.732 95.2118 230.564 95.8743 231.538 96.2285Z" fill="#57B894"/>
<path d="M237.28 124.725C236.87 122.636 238.645 120.783 240.399 119.579C242.152 118.375 244.201 117.192 244.799 115.149C245.659 112.212 243.098 109.522 241.104 107.203C239.625 105.482 238.355 103.591 237.321 101.571C236.906 100.76 236.525 99.9133 236.416 99.0094C236.259 97.7077 236.676 96.4123 237.097 95.1706C238.498 91.0342 239.996 86.9325 241.591 82.8654" stroke="#3D2C3F" stroke-miterlimit="10"/>
<path d="M231.734 95.5959C232.428 95.8485 233.171 95.9362 233.904 95.8522C234.637 95.7683 235.341 95.5148 235.96 95.1119C236.578 94.709 237.095 94.1676 237.469 93.5305C237.844 92.8933 238.065 92.1777 238.116 91.4402C238.167 90.7027 238.047 89.9634 237.764 89.2805C237.481 88.5976 237.044 87.9899 236.487 87.5052C235.93 87.0205 235.268 86.672 234.553 86.4873C233.838 86.3026 233.091 86.2867 232.369 86.4409L232.488 88.8978L231.328 86.7922C230.189 87.3283 229.309 88.2953 228.881 89.4809C228.73 89.8962 228.637 90.331 228.607 90.7722C228.534 91.8074 228.8 92.8384 229.364 93.7088C229.928 94.5793 230.76 95.2418 231.734 95.5959V95.5959Z" stroke="#3F3D56" stroke-miterlimit="10"/>
<path d="M236.698 82.0169C236.97 81.2645 237.427 80.5929 238.026 80.0639C238.625 79.5349 239.348 79.1655 240.128 78.9898L240.52 81.3256L241.247 78.8724C242.257 78.8874 243.236 79.2236 244.043 79.8323C244.85 80.4411 245.443 81.291 245.736 82.2592C246.029 83.2275 246.008 84.2641 245.675 85.2193C245.342 86.1746 244.714 86.999 243.883 87.5736C243.051 88.1483 242.059 88.4433 241.049 88.4163C240.039 88.3892 239.064 88.0413 238.265 87.423C237.465 86.8046 236.883 85.9477 236.601 84.976C236.319 84.0043 236.353 82.9681 236.698 82.0169H236.698Z" fill="#57B894"/>
<path d="M236.959 81.1735C237.231 80.4211 237.688 79.7495 238.288 79.2205C238.887 78.6915 239.61 78.3221 240.389 78.1464L240.781 80.4822L241.509 78.029C242.519 78.044 243.498 78.3802 244.305 78.9889C245.112 79.5977 245.704 80.4476 245.998 81.4158C246.291 82.3841 246.269 83.4207 245.936 84.3759C245.603 85.3311 244.975 86.1556 244.144 86.7302C243.313 87.3048 242.32 87.5999 241.311 87.5728C240.301 87.5458 239.326 87.1979 238.526 86.5796C237.727 85.9612 237.144 85.1043 236.862 84.1326C236.581 83.1609 236.615 82.1246 236.959 81.1735H236.959Z" stroke="#3F3D56" stroke-miterlimit="10"/>
<path d="M240.268 107.25C241.368 107.65 242.576 107.63 243.663 107.195C244.749 106.76 245.637 105.939 246.159 104.889C246.68 103.84 246.797 102.635 246.489 101.505C246.18 100.374 245.467 99.3965 244.485 98.7588L243.926 100.644L243.53 98.2807C243.526 98.2788 243.522 98.2773 243.518 98.276C242.929 98.0619 242.305 97.9659 241.679 97.9936C241.054 98.0214 240.44 98.1723 239.873 98.4377C239.306 98.7032 238.796 99.078 238.374 99.5407C237.951 100.003 237.624 100.545 237.411 101.134C237.197 101.724 237.102 102.35 237.13 102.976C237.158 103.603 237.309 104.217 237.574 104.785C237.84 105.353 238.214 105.863 238.676 106.286C239.138 106.709 239.679 107.037 240.268 107.25H240.268Z" fill="#57B894"/>
<path d="M240.495 106.396C241.595 106.796 242.803 106.776 243.889 106.341C244.976 105.905 245.864 105.085 246.385 104.035C246.907 102.986 247.024 101.781 246.715 100.65C246.407 99.5196 245.694 98.5422 244.712 97.9045L244.153 99.7897L243.757 97.4264C243.753 97.4245 243.749 97.423 243.745 97.4218C243.156 97.2076 242.531 97.1116 241.906 97.1393C241.281 97.1671 240.667 97.318 240.1 97.5834C239.533 97.8489 239.023 98.2237 238.601 98.6864C238.178 99.1491 237.851 99.6907 237.637 100.28C237.424 100.87 237.329 101.496 237.357 102.122C237.385 102.748 237.536 103.363 237.801 103.931C238.066 104.499 238.441 105.009 238.903 105.432C239.365 105.855 239.906 106.183 240.495 106.396H240.495Z" stroke="#3F3D56" stroke-miterlimit="10"/>
<path d="M235.307 115.178C235.496 116.256 236.049 117.236 236.874 117.954C237.699 118.671 238.745 119.083 239.837 119.12C240.93 119.157 242.001 118.817 242.872 118.156C243.743 117.495 244.361 116.555 244.623 115.492C244.884 114.429 244.772 113.309 244.306 112.318C243.841 111.328 243.049 110.529 242.065 110.054C241.08 109.579 239.963 109.457 238.9 109.709C237.836 109.962 236.892 110.573 236.225 111.44L238.348 114.641L235.447 112.942C235.222 113.665 235.174 114.432 235.307 115.178Z" fill="#57B894"/>
<path d="M235.503 114.545C235.692 115.623 236.246 116.603 237.071 117.321C237.895 118.039 238.942 118.451 240.034 118.488C241.126 118.524 242.197 118.184 243.069 117.523C243.94 116.863 244.558 115.922 244.819 114.859C245.08 113.797 244.968 112.676 244.503 111.686C244.037 110.696 243.245 109.896 242.261 109.421C241.277 108.946 240.159 108.824 239.096 109.077C238.033 109.329 237.088 109.94 236.421 110.807L238.545 114.008L235.644 112.309C235.419 113.032 235.37 113.799 235.503 114.545V114.545Z" stroke="#3F3D56" stroke-miterlimit="10"/>
<path d="M3.06224 107.857C3.51795 108.023 4.00591 108.08 4.48767 108.025C4.96942 107.97 5.43179 107.804 5.83834 107.539C6.24489 107.274 6.58451 106.918 6.83042 106.5C7.07633 106.081 7.22181 105.611 7.2554 105.127C7.28899 104.642 7.20976 104.156 7.02397 103.708C6.83818 103.259 6.5509 102.86 6.18478 102.541C5.81865 102.223 5.38369 101.994 4.91417 101.872C4.44466 101.751 3.95342 101.741 3.47919 101.842L3.55756 103.456L2.79513 102.073C2.04685 102.425 1.46877 103.06 1.18793 103.839C1.08819 104.112 1.02756 104.398 1.00784 104.688C0.95971 105.368 1.13423 106.045 1.50495 106.617C1.87567 107.189 2.42238 107.624 3.06224 107.857Z" fill="#57B894"/>
<path d="M6.8347 126.58C6.56556 125.207 7.73179 123.99 8.88375 123.199C10.0357 122.408 11.3817 121.63 11.7748 120.288C12.3397 118.358 10.657 116.591 9.34741 115.067C8.37579 113.937 7.54139 112.694 6.86168 111.367C6.56618 110.845 6.3649 110.276 6.26713 109.684C6.16387 108.829 6.43817 107.978 6.71451 107.162C7.6351 104.444 8.61937 101.749 9.66732 99.0771" stroke="#3D2C3F" stroke-miterlimit="10"/>
<path d="M3.19115 107.441C3.64686 107.607 4.13482 107.665 4.61657 107.61C5.09832 107.555 5.5607 107.388 5.96725 107.123C6.3738 106.859 6.71341 106.503 6.95932 106.084C7.20523 105.666 7.35071 105.195 7.3843 104.711C7.41789 104.226 7.33866 103.741 7.15287 103.292C6.96708 102.843 6.6798 102.444 6.31368 102.126C5.94756 101.807 5.5126 101.578 5.04308 101.457C4.57357 101.335 4.08233 101.325 3.6081 101.426L3.68647 103.041L2.92403 101.657C2.17575 102.009 1.59767 102.645 1.31683 103.424C1.2171 103.696 1.15646 103.982 1.13674 104.272C1.08861 104.952 1.26313 105.63 1.63385 106.201C2.00457 106.773 2.55129 107.209 3.19115 107.441V107.441Z" stroke="#3F3D56" stroke-miterlimit="10"/>
<path d="M6.4519 98.5196C6.63074 98.0253 6.9309 97.5841 7.32472 97.2365C7.71854 96.8889 8.19336 96.6462 8.70541 96.5308L8.9632 98.0655L9.44114 96.4537C10.1047 96.4635 10.748 96.6844 11.2781 97.0843C11.8083 97.4843 12.1978 98.0427 12.3904 98.6789C12.5831 99.315 12.569 99.9961 12.3501 100.624C12.1311 101.251 11.7188 101.793 11.1725 102.17C10.6263 102.548 9.97437 102.742 9.31094 102.724C8.64752 102.706 8.00691 102.478 7.48159 102.072C6.95627 101.665 6.57344 101.102 6.38836 100.464C6.20328 99.8254 6.22553 99.1446 6.4519 98.5196Z" fill="#57B894"/>
<path d="M6.62402 97.9655C6.80286 97.4712 7.10302 97.0299 7.49684 96.6824C7.89066 96.3348 8.36548 96.0921 8.87753 95.9767L9.13532 97.5113L9.61326 95.8995C10.2768 95.9094 10.9201 96.1302 11.4503 96.5302C11.9804 96.9302 12.3699 97.4885 12.5626 98.1247C12.7552 98.7609 12.7411 99.4419 12.5222 100.07C12.3033 100.697 11.8909 101.239 11.3446 101.616C10.7984 101.994 10.1465 102.188 9.48306 102.17C8.81964 102.152 8.17902 101.924 7.65371 101.517C7.12839 101.111 6.74556 100.548 6.56048 99.9097C6.3754 99.2712 6.39765 98.5904 6.62402 97.9655V97.9655Z" stroke="#3F3D56" stroke-miterlimit="10"/>
<path d="M8.79781 115.098C9.52052 115.361 10.3144 115.348 11.0282 115.062C11.742 114.776 12.3257 114.237 12.6682 113.547C13.0106 112.858 13.0878 112.066 12.885 111.323C12.6823 110.58 12.2137 109.938 11.5687 109.519L11.2014 110.758L10.941 109.205C10.9385 109.204 10.9358 109.203 10.9331 109.202C10.5465 109.061 10.136 108.998 9.72506 109.016C9.31413 109.035 8.91079 109.134 8.53811 109.308C8.16543 109.482 7.83071 109.729 7.55308 110.033C7.27545 110.337 7.06036 110.693 6.92008 111.08C6.77981 111.467 6.71712 111.879 6.73558 112.29C6.75404 112.702 6.8533 113.106 7.02768 113.479C7.20206 113.852 7.44815 114.187 7.75187 114.465C8.0556 114.743 8.41102 114.958 8.79781 115.098Z" fill="#57B894"/>
<path d="M8.94665 114.537C9.66936 114.8 10.4633 114.787 11.1771 114.501C11.8908 114.215 12.4746 113.676 12.817 112.986C13.1595 112.297 13.2366 111.505 13.0339 110.762C12.8311 110.019 12.3625 109.377 11.7175 108.958L11.3503 110.197L11.0899 108.644C11.0873 108.643 11.0846 108.642 11.0819 108.641C10.6954 108.5 10.2851 108.438 9.87437 108.456C9.46365 108.474 9.06056 108.574 8.68814 108.748C7.93599 109.1 7.35436 109.738 7.07121 110.52C6.78806 111.301 6.82657 112.164 7.17829 112.917C7.53 113.671 8.1661 114.254 8.94665 114.537V114.537Z" stroke="#3F3D56" stroke-miterlimit="10"/>
<path d="M5.53833 120.307C5.6626 121.015 6.0262 121.659 6.56818 122.131C7.11015 122.602 7.79753 122.873 8.51503 122.897C9.23254 122.921 9.93653 122.698 10.5089 122.264C11.0814 121.83 11.4874 121.212 11.6589 120.513C11.8305 119.815 11.7571 119.079 11.4512 118.428C11.1452 117.778 10.6252 117.252 9.97842 116.94C9.33164 116.628 8.5974 116.548 7.89884 116.714C7.20027 116.88 6.57986 117.281 6.14166 117.851L7.53659 119.954L5.63059 118.838C5.48281 119.313 5.45116 119.817 5.53833 120.307Z" fill="#57B894"/>
<path d="M5.66724 119.891C5.7915 120.6 6.15511 121.244 6.69708 121.715C7.23906 122.187 7.92644 122.457 8.64394 122.482C9.36144 122.506 10.0654 122.282 10.6379 121.848C11.2103 121.414 11.6163 120.796 11.7879 120.098C11.9594 119.399 11.886 118.663 11.5801 118.013C11.2741 117.362 10.7541 116.837 10.1073 116.525C9.46055 116.213 8.72631 116.133 8.02774 116.298C7.32918 116.464 6.70877 116.866 6.27056 117.435L7.6655 119.539L5.75949 118.422C5.61171 118.897 5.58007 119.401 5.66724 119.891V119.891Z" stroke="#3F3D56" stroke-miterlimit="10"/>
<path d="M111.12 78.2387C113.27 78.2387 115.013 75.9796 115.013 73.1928C115.013 70.406 113.27 68.1468 111.12 68.1468C108.971 68.1468 107.228 70.406 107.228 73.1928C107.228 75.9796 108.971 78.2387 111.12 78.2387Z" fill="#2F2E41"/>
<path d="M132.3 78.3534C134.45 78.3534 136.192 76.0942 136.192 73.3074C136.192 70.5206 134.45 68.2615 132.3 68.2615C130.15 68.2615 128.407 70.5206 128.407 73.3074C128.407 76.0942 130.15 78.3534 132.3 78.3534Z" fill="#2F2E41"/>
<path d="M129.323 88.2159C129.323 90.4958 126.145 92.3445 122.225 92.3445C118.305 92.3445 115.127 90.4958 115.127 88.2159C115.127 86.2411 117.511 84.5897 120.696 84.1861C121.203 84.1191 121.714 84.0861 122.225 84.0874C123.082 84.0847 123.937 84.177 124.774 84.3627C127.434 84.9567 129.323 86.459 129.323 88.2159Z" fill="#2F2E41"/>
<path d="M112.036 77.0919C114.186 77.0919 115.929 74.8327 115.929 72.0459C115.929 69.2591 114.186 67 112.036 67C109.887 67 108.144 69.2591 108.144 72.0459C108.144 74.8327 109.887 77.0919 112.036 77.0919Z" stroke="#3F3D56" stroke-miterlimit="10"/>
<path d="M133.216 77.2066C135.365 77.2066 137.108 74.9474 137.108 72.1606C137.108 69.3738 135.365 67.1147 133.216 67.1147C131.066 67.1147 129.323 69.3738 129.323 72.1606C129.323 74.9474 131.066 77.2066 133.216 77.2066Z" stroke="#3F3D56" stroke-miterlimit="10"/>
<path d="M123.141 91.1976C127.061 91.1976 130.239 89.3492 130.239 87.0691C130.239 84.789 127.061 82.9406 123.141 82.9406C119.221 82.9406 116.043 84.789 116.043 87.0691C116.043 89.3492 119.221 91.1976 123.141 91.1976Z" stroke="#3F3D56" stroke-miterlimit="10"/>
<path d="M124.858 84.7067C124.86 84.9951 124.752 85.2734 124.556 85.4847C124.464 85.5859 124.351 85.6669 124.226 85.7224C124.101 85.778 123.965 85.807 123.828 85.8076H121.538C121.256 85.7978 120.989 85.6765 120.796 85.4702C120.603 85.2639 120.5 84.9894 120.508 84.7067C120.507 84.4831 120.572 84.2642 120.696 84.078C121.202 84.0065 121.714 83.9714 122.225 83.9728C123.083 83.9699 123.939 84.0685 124.774 84.2663C124.83 84.4062 124.859 84.5558 124.858 84.7067Z" fill="white"/>
<path d="M112.036 71.8166C112.668 71.8166 113.181 71.3032 113.181 70.6698C113.181 70.0364 112.668 69.523 112.036 69.523C111.404 69.523 110.891 70.0364 110.891 70.6698C110.891 71.3032 111.404 71.8166 112.036 71.8166Z" fill="white"/>
<path d="M133.33 71.8166C133.962 71.8166 134.475 71.3032 134.475 70.6698C134.475 70.0364 133.962 69.523 133.33 69.523C132.698 69.523 132.185 70.0364 132.185 70.6698C132.185 71.3032 132.698 71.8166 133.33 71.8166Z" fill="white"/>
<path opacity="0.3" d="M134.475 82.5966C135.107 82.5966 135.62 82.0831 135.62 81.4498C135.62 80.8164 135.107 80.303 134.475 80.303C133.843 80.303 133.33 80.8164 133.33 81.4498C133.33 82.0831 133.843 82.5966 134.475 82.5966Z" fill="#6C63FF"/>
<path opacity="0.3" d="M106.541 82.5966C107.173 82.5966 107.686 82.0831 107.686 81.4498C107.686 80.8164 107.173 80.303 106.541 80.303C105.909 80.303 105.396 80.8164 105.396 81.4498C105.396 82.0831 105.909 82.5966 106.541 82.5966Z" fill="#6C63FF"/>
</svg>
